<?xml version="1.0" standalone="no"?>
<!DOCTYPE svg PUBLIC "-//W3C//DTD SVG 1.1//EN" "http://www.w3.org/Graphics/SVG/1.1/DTD/svg11.dtd" >
<svg>
<metadata>
Created by FontForge 20090622 at Mon May  2 06:39:09 2016
 By deploy user
Copyright 1990-1993 Bitstream Inc.  All rights reserved.
</metadata>
<defs>
<font id="LibertyBT-Regular" horiz-adv-x="1024" >
  <font-face 
    font-family="Liberty BT"
    font-weight="400"
    font-style="italic"
    font-stretch="normal"
    units-per-em="2048"
    panose-1="3 2 4 2 4 4 5 9 2 5"
    ascent="1638"
    descent="-410"
    x-height="465"
    cap-height="1528"
    bbox="-264 -483 2640 1835"
    underline-thickness="43"
    underline-position="-139"
    slope="-10"
    unicode-range="U+0020-U+F002"
  />
<missing-glyph horiz-adv-x="1229" 
d="M102 -362v1806h1024v-1806h-1024zM217 -248h795v1577h-795v-1577z" />
    <glyph glyph-name=".notdef" horiz-adv-x="1229" 
d="M102 -362v1806h1024v-1806h-1024zM217 -248h795v1577h-795v-1577z" />
    <glyph glyph-name=".null" horiz-adv-x="0" 
 />
    <glyph glyph-name="nonmarkingreturn" horiz-adv-x="365" 
 />
    <glyph glyph-name="space" unicode=" " horiz-adv-x="365" 
 />
    <glyph glyph-name="exclam" unicode="!" horiz-adv-x="588" 
d="M168 229l186 1010l92 29l21 -15l-270 -1024h-29zM96 33q0 19 13 33t32 14q20 0 34.5 -14.5t14.5 -32.5t-15 -32.5t-34 -14.5q-17 0 -31 14t-14 33z" />
    <glyph glyph-name="quotedbl" unicode="&#x22;" horiz-adv-x="666" 
d="M508 870h-29l-57 453q-2 12 -3 23.5t-1 21.5q0 47 19 70.5t57 23.5q37 0 57 -24.5t20 -69.5q0 -7 -0.5 -15.5t-3.5 -29.5zM186 870h-28l-60 453q-2 12 -3 23.5t-1 21.5q0 46 20 70t58 24q37 0 56.5 -24t19.5 -70q0 -6 -1 -15.5l-3 -28.5z" />
    <glyph glyph-name="numbersign" unicode="#" horiz-adv-x="1575" 
d="M700 877l-108 -304h301l106 304h-299zM809 1454h94l-174 -498h299l176 498h96l-176 -498h322l-27 -79h-323l-107 -304h348l-28 -79h-348l-175 -494h-96l174 494h-301l-174 -494h-94l174 494h-340l31 79h338l106 304h-368l28 79h369z" />
    <glyph glyph-name="dollar" unicode="$" horiz-adv-x="729" 
d="M291 14q94 19 151.5 84t57.5 152q0 53 -27 96.5t-90 91.5zM352 461l-59 43l-102 -482q20 -5 62 -9q2 -1 3 -1zM352 940q-69 -19 -107 -62t-38 -100q0 -42 20 -82.5t58 -74.5zM454 946q-9 1 -18 1.5t-18 0.5t-16.5 -0.5t-14.5 -1.5l-74 -350l58 -45zM518 813
q9 -10 16.5 -15t14.5 -5q13 0 21 10t8 26q0 29 -25.5 59t-65.5 46l-86 -406q80 -60 115 -119.5t35 -134.5q0 -117 -71.5 -195t-194.5 -93l-49 -234h-35l51 234q-25 2 -39 3.5t-27 3.5l-51 -241h-35l54 250q-75 32 -115.5 88.5t-40.5 128.5q0 60 31 97.5t80 37.5
q27 0 45 -14.5t18 -34.5q0 -22 -14.5 -35.5t-36.5 -13.5q-2 0 -6 2t-9 6q6 6 8.5 11.5t2.5 11.5q0 13 -9 22.5t-20 9.5q-23 0 -42 -30t-19 -70q0 -63 34 -111t99 -75l104 491q-64 65 -91.5 115.5t-27.5 103.5q0 82 57.5 143.5t155.5 84.5l52 233h32l-49 -227h27q4 0 15 -1.5
t25 -4.5l50 233h35l-51 -241q54 -21 84 -57t30 -79q0 -31 -14.5 -50t-38.5 -19q-15 0 -27 11t-12 24q0 5 0.5 9.5t1.5 10.5z" />
    <glyph glyph-name="percent" unicode="%" horiz-adv-x="981" 
d="M545 -274q-76 0 -124 58t-48 150q0 136 92.5 241.5t208.5 105.5q74 0 121 -58.5t47 -152.5q0 -133 -92.5 -238.5t-204.5 -105.5zM545 -246q100 0 184 98t84 218q0 82 -39 132t-100 50q-87 0 -163.5 -110.5t-76.5 -237.5q0 -68 31 -109t80 -41zM168 391q95 0 178.5 98
t83.5 218q0 82 -38 132t-99 50q-87 0 -164.5 -111.5t-77.5 -238.5q0 -69 31.5 -108.5t85.5 -39.5zM-31 -270l776 1106q-40 -27 -81 -39.5t-86 -12.5q-40 0 -75.5 10t-68.5 29q12 -26 18.5 -55t6.5 -61q0 -133 -92.5 -239t-204.5 -106q-76 0 -123 57t-47 150
q0 136 92.5 242.5t208.5 106.5q40 0 124.5 -52.5t166.5 -52.5q64 0 130.5 32.5t104.5 84.5h33l-832 -1200h-51z" />
    <glyph glyph-name="ampersand" unicode="&#x26;" horiz-adv-x="1546" 
d="M385 762q36 -29 78 -43t90 -14q35 0 54.5 11.5t19.5 33.5q0 20 -25 32.5t-67 12.5q-31 0 -69.5 -8.5t-80.5 -24.5zM334 768q-43 48 -63.5 97.5t-20.5 105.5q0 138 109 232.5t270 94.5q93 0 161 -49t68 -112q0 -32 -18.5 -53t-46.5 -21q-21 0 -36.5 15.5t-15.5 35.5
q0 6 1.5 12t4.5 12q10 -9 19.5 -13.5t19.5 -4.5q14 0 24.5 12t10.5 27q0 38 -58 74.5t-132 36.5q-131 0 -228.5 -99t-97.5 -231q0 -51 15 -90t45 -68q49 21 92 31t78 10q54 0 87 -20.5t33 -52.5q0 -35 -28.5 -54.5t-79.5 -19.5q-52 0 -99.5 17.5t-91.5 51.5
q-96 -54 -147 -141t-51 -194q0 -173 133.5 -284.5t343.5 -111.5q218 0 364 114.5t146 281.5q0 100 -65 164.5t-165 64.5q-82 0 -137 -40.5t-55 -96.5q0 -34 24 -60t54 -26q21 0 35 12t14 29q0 11 -7.5 17.5t-19.5 6.5h-12v6q0 14 11.5 24.5t25.5 10.5q25 0 41 -14.5
t16 -36.5q0 -36 -29 -60t-71 -24q-54 0 -88.5 42t-34.5 110q0 123 90.5 187t317.5 91q191 24 274.5 77.5t83.5 149.5q0 73 -47 117.5t-125 44.5q-68 0 -115 -32t-47 -72q0 -16 10.5 -26.5t26.5 -10.5q12 0 20 6t13 18q6 -9 8 -15.5t2 -12.5q0 -18 -16.5 -32.5t-38.5 -14.5
q-28 0 -44 18t-16 51q0 65 56.5 108.5t140.5 43.5q90 0 145.5 -53t55.5 -140q0 -54 -24.5 -100t-76.5 -88q-103 -85 -394 -118l-7 -1q-145 -17 -197 -52.5t-65 -111.5q31 49 81 73t119 24q111 0 186 -74t75 -186q0 -174 -156 -298t-383 -124q-250 0 -404.5 111.5
t-154.5 287.5q0 112 65.5 209.5t192.5 173.5z" />
    <glyph glyph-name="quotesingle" unicode="'" horiz-adv-x="342" 
d="M184 870h-28l-60 454q-1 6 -1.5 15t-0.5 29q0 47 19 70.5t57 23.5q37 0 57.5 -24.5t20.5 -69.5q0 -6 -1 -15.5l-3 -28.5z" />
    <glyph glyph-name="parenleft" unicode="(" horiz-adv-x="696" 
d="M748 1532l20 -21q-83 -70 -153.5 -177.5t-129.5 -252.5q-77 -193 -120 -405t-43 -402q0 -117 18.5 -227t56.5 -217l-26 -10q-58 164 -87.5 326t-29.5 309q0 301 127 577.5t367 499.5z" />
    <glyph glyph-name="parenright" unicode=")" horiz-adv-x="696" 
d="M-16 -180l-21 20q83 71 153 178.5t130 253.5q77 192 119.5 403t42.5 402q0 121 -18.5 231t-55.5 216l26 8q57 -164 86 -324.5t29 -308.5q0 -302 -126.5 -579.5t-364.5 -499.5z" />
    <glyph glyph-name="asterisk" unicode="*" horiz-adv-x="844" 
d="M461 1262q9 51 12.5 80.5t3.5 48.5q0 6 -1 34t-1 50q0 25 12 41t31 16q18 0 29.5 -11t11.5 -28q0 -16 -33 -91t-47 -142q64 20 134.5 60t91.5 40q18 0 29 -11t11 -28q0 -39 -97 -50t-163 -30q54 -47 132.5 -93t78.5 -73q0 -16 -12.5 -28.5t-30.5 -12.5q-23 0 -75 72
t-105 121q-9 -49 -12.5 -80t-3.5 -51v-82q0 -25 -12.5 -41.5t-30.5 -16.5q-16 0 -27.5 11t-11.5 24q0 23 33.5 99.5t46.5 140.5q-67 -22 -139 -63.5t-89 -41.5t-29 12t-12 29q0 38 98 50q98 13 165 32q-52 44 -130.5 89.5t-78.5 74.5q0 17 11 28t30 11q24 0 75 -71.5
t105 -118.5z" />
    <glyph glyph-name="plus" unicode="+" horiz-adv-x="1706" 
d="M813 1221h80v-570h559v-82h-559v-569h-80v569h-559v82h559v570z" />
    <glyph glyph-name="comma" unicode="," horiz-adv-x="365" 
d="M-49 -184l59 250l109 34l-144 -299z" />
    <glyph glyph-name="hyphen" unicode="-" horiz-adv-x="469" 
d="M-51 209v47h358v-47h-358z" />
    <glyph glyph-name="period" unicode="." horiz-adv-x="365" 
d="M-6 33q0 19 14 33t33 14t33 -14t14 -33t-14.5 -33t-32.5 -14t-32.5 14t-14.5 33z" />
    <glyph glyph-name="slash" unicode="/" horiz-adv-x="721" 
d="M-129 -190l-37 20l950 1702l39 -21z" />
    <glyph glyph-name="zero" unicode="0" horiz-adv-x="729" 
d="M233 14q106 0 189.5 128.5t83.5 291.5q0 99 -42 152t-120 53q-108 0 -189 -126.5t-81 -299.5q0 -94 42.5 -146.5t116.5 -52.5zM227 -14q-102 0 -165.5 75.5t-63.5 200.5q0 164 104 285t244 121q105 0 170.5 -75t65.5 -198q0 -167 -104 -288t-251 -121z" />
    <glyph glyph-name="one" unicode="1" horiz-adv-x="436" 
d="M49 0l148 569q-31 -35 -70 -65.5t-88 -57.5l-12 27q57 31 105.5 72t92.5 96l58 12l-170 -653h-64z" />
    <glyph glyph-name="two" unicode="2" horiz-adv-x="729" 
d="M156 68h141q170 0 223 64q12 15 23 15q6 0 9 -3t3 -9q0 -4 -7 -17.5t-18 -27.5l-67 -90h-426q0 1 -1 4t-1 4q0 25 93 77l41 23q151 86 221.5 167t70.5 167q0 73 -51 126t-121 53q-95 0 -159 -79t-64 -198q0 -18 3 -36.5t9 -39.5l-27 -12q-7 19 -10.5 42t-3.5 56
q0 128 80.5 216.5t193.5 88.5q105 0 169.5 -57.5t64.5 -148.5q0 -85 -79 -166t-310 -219z" />
    <glyph glyph-name="three" unicode="3" horiz-adv-x="729" 
d="M385 152q-63 -36 -109 -50t-94 -14q-54 0 -85 22.5t-31 61.5q0 41 34.5 65.5t92.5 24.5q55 0 110.5 -14t106.5 -41q43 43 64.5 93.5t21.5 109.5q0 93 -53 149.5t-138 56.5q-74 0 -134.5 -45.5t-94.5 -128.5l-25 13q37 100 112.5 156.5t174.5 56.5q101 0 169 -64t68 -160
q0 -76 -34.5 -139t-106.5 -119q55 -43 83 -98t28 -123q0 -146 -113 -250t-278 -104q-130 0 -211.5 59t-81.5 146q0 37 23 61.5t55 24.5q26 0 45.5 -17.5t19.5 -42.5q0 -8 -2.5 -17t-8.5 -19q-16 11 -28 16.5t-22 5.5q-19 0 -29 -10.5t-10 -30.5q0 -56 63.5 -97.5
t155.5 -41.5q144 0 232.5 89.5t88.5 233.5q0 55 -14.5 100t-44.5 81zM358 174q-44 29 -83.5 42t-79.5 13q-45 0 -73 -17.5t-28 -43.5q0 -23 23.5 -37t62.5 -14q48 0 97 15.5t81 41.5z" />
    <glyph glyph-name="four" unicode="4" horiz-adv-x="729" 
d="M264 -156l47 189q-39 12 -104 36q-103 37 -144 37q-19 0 -40 -5.5t-43 -16.5l-17 22q189 243 346 402.5t201 159.5q15 0 22 -3t12 -9l-143 -568q5 0 10 -1l5 -1h6q27 0 49 7t43 22l16 -23q-33 -26 -67.5 -40t-74.5 -19l-48 -189h-76zM328 100l127 502l-141 -141
q-214 -209 -289 -330q23 8 45 12t45 4q46 0 98 -11.5t115 -35.5z" />
    <glyph glyph-name="five" unicode="5" horiz-adv-x="729" 
d="M76 313l102 305q27 -4 56 -6t59 -2q82 0 134.5 14.5t78.5 43.5l18 -2q-9 -59 -64 -93t-141 -34q-23 0 -59.5 3t-48.5 3h-23l-42 -133q26 7 51 10.5t49 3.5q118 0 199 -78.5t81 -193.5q0 -140 -96 -237t-237 -97q-88 0 -148.5 47.5t-60.5 112.5q0 33 20.5 56t48.5 23
q23 0 34 -14t11 -43q0 -5 -0.5 -10t-1.5 -10q-9 7 -16.5 10.5t-11.5 3.5q-16 0 -25.5 -11.5t-9.5 -29.5q0 -43 48.5 -75t117.5 -32q116 0 187 72.5t71 190.5q0 92 -66 154.5t-162 62.5q-34 0 -61 -5t-55 -16z" />
    <glyph glyph-name="six" unicode="6" horiz-adv-x="729" 
d="M242 14q95 0 168 117t73 266q0 86 -38.5 137.5t-100.5 51.5q-95 0 -173.5 -120t-78.5 -271q0 -82 41.5 -131.5t108.5 -49.5zM520 883l12 -27q-137 -43 -222 -122.5t-124 -201.5q42 44 90 66.5t99 22.5q75 0 129.5 -67.5t54.5 -166.5q0 -149 -101.5 -275t-226.5 -126
q-89 0 -151 76.5t-62 191.5q0 202 141 380t361 249z" />
    <glyph glyph-name="seven" unicode="7" horiz-adv-x="729" 
d="M90 541l-27 12q30 64 62 90.5t78 26.5q43 0 127 -23.5t123 -23.5q34 0 73 9.5t82 29.5l17 -23q-198 -177 -315 -359.5t-117 -302.5q0 -46 20 -75t53 -29q9 0 21.5 5t27.5 16l15 -25q-22 -17 -45 -26t-45 -9q-52 0 -87.5 39.5t-35.5 95.5q0 96 88.5 233.5t335.5 405.5
q-51 -21 -96 -31t-91 -10q-52 0 -111.5 17.5t-72.5 17.5q-27 0 -45.5 -14t-34.5 -47z" />
    <glyph glyph-name="eight" unicode="8" horiz-adv-x="729" 
d="M276 475q-111 -38 -171 -106.5t-60 -157.5q0 -90 59.5 -143.5t159.5 -53.5q102 0 168 53t66 132q0 82 -175 235q-30 27 -47 41zM340 545q90 31 140 87t50 124q0 50 -41 85.5t-100 35.5q-76 0 -128 -41t-52 -99q0 -40 31 -85.5t100 -106.5zM254 500q-55 50 -78.5 95
t-23.5 99q0 91 66.5 151t164.5 60q80 0 133 -46.5t53 -117.5q0 -69 -54 -127t-150 -90q123 -109 157.5 -166t34.5 -125q0 -101 -85 -174t-206 -73q-115 0 -186.5 62t-71.5 161t60 170t186 121z" />
    <glyph glyph-name="nine" unicode="9" horiz-adv-x="729" 
d="M82 250q0 -81 40 -130.5t103 -49.5q106 0 190.5 122.5t84.5 278.5q0 81 -37 124.5t-107 43.5q-106 0 -190 -120t-84 -269zM25 -223l-7 28q158 32 261 120.5t139 221.5q-54 -60 -112 -90t-120 -30q-81 0 -132.5 61t-51.5 162q0 160 110 289t248 129q104 0 162 -72t58 -203
q0 -210 -159.5 -390.5t-395.5 -225.5z" />
    <glyph glyph-name="colon" unicode=":" horiz-adv-x="365" 
d="M72 403q0 19 13.5 33.5t33.5 14.5q19 0 33 -14.5t14 -33.5q0 -18 -14.5 -32.5t-32.5 -14.5q-19 0 -33 14.5t-14 32.5zM-10 33q0 19 13.5 33t33.5 14q19 0 33 -14t14 -33t-14.5 -33t-32.5 -14q-19 0 -33 14t-14 33z" />
    <glyph glyph-name="semicolon" unicode=";" horiz-adv-x="365" 
d="M76 403q0 19 14 33.5t33 14.5q20 0 34.5 -14.5t14.5 -33.5q0 -18 -15 -32.5t-34 -14.5t-33 14.5t-14 32.5zM-49 -184l59 250l109 34l-144 -299z" />
    <glyph glyph-name="less" unicode="&#x3c;" horiz-adv-x="1706" 
d="M1442 1124v-90l-1045 -424l1045 -424v-88l-1178 482v61z" />
    <glyph glyph-name="equal" unicode="=" horiz-adv-x="1706" 
d="M254 469h1198v-82h-1198v82zM254 831h1198v-79h-1198v79z" />
    <glyph glyph-name="greater" unicode="&#x3e;" horiz-adv-x="1706" 
d="M264 1124l1178 -483v-61l-1178 -482v88l1045 424l-1045 424v90z" />
    <glyph glyph-name="question" unicode="?" horiz-adv-x="924" 
d="M184 33q0 19 14 33t33 14q20 0 34 -14t14 -33t-14.5 -33t-33.5 -14t-33 13.5t-14 33.5zM264 229q31 81 82.5 154t128.5 147l17 16q245 238 245 433q0 105 -63.5 170t-165.5 65q-129 0 -218 -100.5t-89 -249.5q0 -44 10 -92t31 -100l-27 -13q-23 56 -34 110t-11 108
q0 165 107 282t258 117q122 0 203 -87.5t81 -219.5q0 -168 -244 -390l-77 -71q-78 -75 -128 -145t-75 -140z" />
    <glyph glyph-name="at" unicode="@" horiz-adv-x="2019" 
d="M1194 344q-59 -108 -138.5 -162.5t-178.5 -54.5q-115 0 -188 92t-73 240q0 106 49 214t136 193q65 65 142 101.5t151 36.5q83 0 139.5 -52t79.5 -149l57 184h121l-168 -604l-2 -6q-18 -68 -18 -103q0 -52 27.5 -81t76.5 -29q48 0 108 29t113 79q96 90 150.5 221.5
t54.5 274.5q0 291 -194.5 467t-516.5 176q-175 0 -327 -57.5t-271 -167.5q-137 -128 -206.5 -300t-69.5 -382q0 -175 55.5 -301t177.5 -232q118 -102 268 -155.5t320 -53.5q173 0 331 53.5t292 155.5l26 -30q-146 -109 -309 -164.5t-340 -55.5q-191 0 -342.5 45.5
t-271.5 139.5q-151 115 -228 275t-77 356q0 203 85 378.5t250 313.5q132 109 290.5 165t338.5 56q345 0 551.5 -186.5t206.5 -497.5q0 -156 -58 -295.5t-163 -234.5q-60 -55 -123.5 -83t-128.5 -28q-97 0 -148 55t-57 164zM1090 971q-58 0 -104.5 -31t-94.5 -102
q-74 -109 -117 -234t-43 -223q0 -100 44 -157.5t120 -57.5q67 0 131 45.5t123 134.5q59 91 93 198.5t34 198.5q0 96 -54.5 162t-131.5 66z" />
    <glyph glyph-name="A" unicode="A" horiz-adv-x="1892" 
d="M936 735q64 -1 120.5 -19t106.5 -52q50 34 114.5 50.5t149.5 16.5q54 0 118 -11q5 -1 7 -1q16 61 23.5 119t7.5 110q0 114 -37 205.5t-119 177.5q-171 -103 -292.5 -250t-198.5 -346zM1157 625q-29 -28 -43 -52.5t-14 -48.5q0 -20 10 -31.5t27 -11.5q19 0 35 20t16 48
q0 18 -7.5 36.5t-23.5 39.5zM1714 180l25 -12q-50 -88 -106.5 -137t-104.5 -49q-45 0 -69.5 38.5t-24.5 108.5q0 74 63 343q32 138 49 218q-25 7 -55.5 11t-63.5 4q-81 0 -140 -15.5t-103 -48.5q16 -25 24.5 -48t8.5 -44q0 -44 -23.5 -70t-60.5 -26q-28 0 -46 20.5t-18 52.5
q0 29 16.5 58.5t51.5 62.5q-45 30 -97 45t-108 15h-10q-173 -363 -361.5 -547.5t-388.5 -184.5q-111 0 -186.5 45.5t-75.5 108.5q0 29 18.5 48.5t44.5 19.5q27 0 43.5 -13.5t16.5 -36.5q0 -2 -2 -7.5t-6 -14.5q-6 10 -11.5 13t-17.5 3q-16 0 -25.5 -10t-9.5 -27
q0 -38 62 -69t149 -31q177 0 316 140t341 558q-63 -10 -120.5 -28.5t-110.5 -44.5l-12 26q69 34 133 53t127 25q107 216 244.5 369.5t314.5 255.5q-87 73 -197.5 109t-246.5 36q-170 0 -318 -64t-274 -192q-117 -118 -179.5 -263t-62.5 -298q0 -98 26.5 -192.5t79.5 -188.5
l-24 -16q-63 108 -94 216t-31 218q0 143 51 274t150 240q126 140 304 217.5t374 77.5q141 0 259 -39.5t216 -120.5q45 24 99.5 46t121.5 44l12 -26q-70 -25 -120.5 -46.5t-88.5 -41.5q101 -101 146 -210t45 -253q0 -42 -5 -88t-13 -95q20 -6 43 -16t51 -24l-11 -27
q-25 12 -47 21t-41 15l-55 -231q-70 -289 -70 -338q0 -39 11.5 -56t35.5 -17q32 0 79 42t83 109z" />
    <glyph glyph-name="B" unicode="B" horiz-adv-x="1716" 
d="M967 160q-7 8 -16 13t-17 5q-13 0 -22 -10.5t-9 -28.5q0 -46 64 -85.5t153 -39.5q149 0 257 129.5t108 311.5q0 115 -41.5 196t-122.5 123l-29 16q-94 49 -94 84q0 39 79 67l3 1q111 40 162 103t51 159q0 128 -121.5 213.5t-312.5 85.5q-180 0 -339 -55t-274 -158
q-116 -103 -184.5 -249.5t-68.5 -290.5q0 -54 9.5 -106t29.5 -101q31 7 65 10.5t72 3.5q51 0 106.5 -9.5t118.5 -29.5l-8 -26q-51 18 -105 27t-112 9q-33 0 -64 -2.5t-61 -7.5q14 -38 45 -88t76 -108l-23 -17q-51 68 -81 115.5t-50 89.5q-128 -29 -205.5 -101.5
t-77.5 -160.5q0 -103 95 -168.5t247 -65.5q116 0 223.5 48t170.5 126q84 105 133 425l22 137q49 279 146 430.5t278 242.5l12 -26q-137 -73 -213.5 -209.5t-130.5 -432.5q-2 -13 -7 -40q-63 -365 -185 -512q-88 -105 -204 -161t-245 -56q-162 0 -265 73t-103 185
q0 102 78 178.5t221 114.5q-24 61 -35.5 126t-11.5 134q0 325 250.5 530t652.5 205q224 0 367 -96.5t143 -243.5q0 -87 -57.5 -154t-166.5 -106q-19 -7 -50 -17q-66 -20 -66 -43q0 -20 73 -56q13 -6 19 -9q125 -62 186.5 -151.5t61.5 -211.5q0 -182 -135 -320t-312 -138
q-109 0 -181.5 50.5t-72.5 123.5q0 33 19 55.5t47 22.5q22 0 35.5 -13t13.5 -32q0 -8 -3.5 -16t-10.5 -17z" />
    <glyph glyph-name="C" unicode="C" horiz-adv-x="1270" 
d="M1116 332l21 -21q-137 -157 -297 -241t-324 -84q-207 0 -326.5 137.5t-119.5 376.5q0 159 55.5 314t165.5 300q150 200 335.5 314t354.5 114q153 0 243.5 -87.5t90.5 -233.5q0 -143 -69.5 -284t-192.5 -249q-75 -66 -155 -101.5t-153 -35.5q-98 0 -158.5 62.5
t-60.5 164.5q0 143 98 258.5t269 173.5l10 -26q-149 -50 -234 -162t-85 -256q0 -88 46.5 -136t131.5 -48q59 0 131 33.5t137 93.5q105 95 161 225t56 276q0 143 -68 224.5t-188 81.5t-247.5 -58.5t-233.5 -163.5q-165 -160 -257.5 -374t-92.5 -435q0 -233 96 -352t285 -119
q138 0 296.5 86.5t278.5 231.5z" />
    <glyph glyph-name="D" unicode="D" horiz-adv-x="1663" 
d="M721 100q69 -42 127 -62t115 -20q81 0 172 40.5t161 107.5q127 122 200 306.5t73 383.5q0 162 -53 293t-156 223q-170 -125 -266 -633l-23 -118q-34 -173 -123 -305.5t-227 -215.5zM651 59q-85 -36 -164 -54.5t-145 -18.5q-101 0 -166 35.5t-65 89.5q0 52 60 86t155 34
q72 0 159 -26t207 -84q216 114 311 618q12 65 19 99q45 232 113.5 351t193.5 206q-74 54 -168.5 82t-202.5 28q-194 0 -356.5 -71t-284.5 -209q-94 -107 -144 -235.5t-50 -264.5q0 -174 79 -276t222 -113v-29q-169 19 -261.5 130.5t-92.5 297.5q0 136 50.5 261t149.5 235
q136 149 310.5 226t377.5 77q115 0 214 -30t186 -91q18 14 52 32.5t81 41.5l14 -25q-37 -18 -66.5 -35t-54.5 -36q103 -92 157 -228.5t54 -304.5q0 -237 -92 -443t-248 -319q-74 -55 -159.5 -82.5t-180.5 -27.5q-66 0 -130 17.5t-134 55.5zM621 78q-112 63 -188.5 90
t-139.5 27q-65 0 -106.5 -24t-41.5 -60q0 -41 57 -69t144 -28q64 0 134.5 16.5t140.5 47.5z" />
    <glyph glyph-name="E" unicode="E" horiz-adv-x="1366" 
d="M440 354l-26 8q49 186 173 298t277 112q149 0 241.5 -87.5t92.5 -225.5q0 -195 -173 -334t-419 -139q-252 0 -408.5 122.5t-156.5 315.5q0 158 111 283.5t313 195.5q54 19 135 40q77 20 78 36q0 15 -51 25q-25 4 -42 8q-67 15 -108 67t-41 123q0 141 125.5 236.5
t315.5 95.5q121 0 204.5 -57t83.5 -136q0 -33 -15.5 -54t-39.5 -21q-19 0 -31 13.5t-12 35.5q0 7 0.5 11t1.5 7q4 -1 10 -3q13 -5 17 -5q13 0 20.5 9.5t7.5 25.5q0 56 -73 100.5t-181 44.5q-152 0 -255 -94.5t-103 -226.5q0 -62 24.5 -98t76.5 -50q10 -3 29 -7
q63 -14 63 -50t-97 -64q-54 -16 -90 -28q-194 -66 -291.5 -187.5t-97.5 -296.5q0 -181 124.5 -285t342.5 -104q235 0 404 129.5t169 294.5q0 132 -83 211.5t-220 79.5q-155 0 -266 -97.5t-160 -277.5z" />
    <glyph glyph-name="F" unicode="F" horiz-adv-x="1421" 
d="M895 844h285q30 197 97.5 318.5t184.5 195.5q41 25 101.5 49.5t60.5 38.5q0 6 -6.5 10t-15.5 4q-7 0 -141.5 -42t-237.5 -42q-76 0 -239 46t-239 46q-183 0 -335 -160.5t-152 -375.5q0 -84 20.5 -151.5t63.5 -127.5q59 16 113.5 24.5t101.5 8.5q107 0 200 -25t169 -73
l-15 -25q-65 41 -142 60.5t-169 19.5q-55 0 -112 -7.5t-117 -23.5q53 -67 142.5 -106t191.5 -39q16 0 34.5 1.5t40.5 4.5l4 -29q-7 0 -22 -2q-36 -4 -57 -4q-111 0 -206 43t-163 123q-136 -48 -214.5 -134.5t-78.5 -184.5q0 -120 118 -195.5t308 -75.5q334 0 505.5 193.5
t199.5 603.5h-279v33zM1264 811q-29 -396 -234.5 -610.5t-552.5 -214.5q-211 0 -337 81.5t-126 217.5q0 110 78.5 205t216.5 151q-42 73 -61 142.5t-19 148.5q0 242 177.5 421t416.5 179q101 0 264.5 -53.5t227.5 -53.5q70 0 170.5 30t116.5 30q24 0 36.5 -10.5t12.5 -30.5
q0 -26 -80.5 -62.5t-132.5 -85.5q-74 -69 -114 -173.5t-56 -278.5h180v-33h-184z" />
    <glyph glyph-name="G" unicode="G" horiz-adv-x="1417" 
d="M1208 733l54 6l6 -12l-17 -49q-75 -436 -314.5 -685t-582.5 -249q-178 0 -296.5 75t-118.5 179q0 119 120 205t293 86q112 0 213 -38.5t199 -117.5l-16 -22q-90 72 -187.5 107.5t-206.5 35.5q-159 0 -273 -74.5t-114 -173.5q0 -98 108 -166.5t271 -68.5q311 0 502 197.5
t303 635.5q-98 -118 -230 -181t-282 -63q-214 0 -345.5 119t-131.5 312q0 131 71 266.5t199 247.5q126 109 274 168t298 59q167 0 265.5 -62t98.5 -165q0 -73 -57.5 -121t-169.5 -70l-4 29q80 16 126 58.5t46 101.5q0 95 -80.5 147.5t-227.5 52.5q-132 0 -272 -60.5
t-256 -168.5q-110 -103 -169.5 -230.5t-59.5 -259.5q0 -175 115.5 -284t299.5 -109q163 0 304 88t245 254z" />
    <glyph glyph-name="H" unicode="H" horiz-adv-x="2095" 
d="M1626 811q177 54 289.5 188t112.5 281q0 49 -17 74.5t-49 25.5q-94 0 -185.5 -153t-150.5 -416zM1381 716q-33 -17 -49.5 -38t-16.5 -45q0 -23 13 -37t34 -14q25 0 41 18t16 45q0 18 -10 36.5t-28 34.5zM1159 803q21 205 65 320.5t126 187.5q42 38 110 76.5t68 52.5
q0 7 -5.5 11.5t-15.5 4.5q-16 0 -80 -25.5t-106 -25.5q-32 0 -188 37t-275 37q-283 0 -462 -161t-179 -409q0 -100 36 -182t109 -147q148 110 342 167.5t418 57.5q2 0 7 -1q16 -1 30 -1zM1157 774q-14 0 -30 2h-5q-218 0 -402.5 -54t-330.5 -161q76 -60 165.5 -90.5
t193.5 -30.5q10 0 42 2.5t52 3.5v-28q-11 -1 -28 -2q-41 -2 -56 -2q-120 0 -217 31t-179 96q-83 -65 -126 -143t-43 -160q0 -119 88 -187.5t241 -68.5q277 0 444 207.5t191 584.5zM1913 211l22 -16q-66 -101 -138.5 -155t-139.5 -54q-87 0 -137 89.5t-50 248.5q0 82 16 192
t48 245q-39 -6 -69.5 -14t-55.5 -18q18 -20 27.5 -40t9.5 -40q0 -41 -24.5 -68.5t-61.5 -27.5q-34 0 -54 21t-20 57q0 28 18 54.5t51 48.5q-17 10 -44 18.5t-68 15.5q-41 -395 -226.5 -605t-492.5 -210q-165 0 -262.5 78t-97.5 209q0 86 44.5 168t131.5 153
q-89 88 -130.5 176t-41.5 191q0 242 199 410.5t491 168.5q120 0 275.5 -37.5t183.5 -37.5q34 0 101.5 25.5t90.5 25.5q20 0 32.5 -11.5t12.5 -29.5q0 -31 -80.5 -80.5t-121.5 -101.5q-45 -58 -68.5 -147.5t-38.5 -315.5q42 -6 76.5 -17.5t64.5 -27.5q30 12 67 21.5t89 19.5
q64 265 187.5 440.5t228.5 175.5q46 0 72 -34t26 -95q0 -160 -120.5 -301.5t-315.5 -200.5q-36 -139 -55 -264.5t-19 -228.5q0 -121 38 -188.5t104 -67.5q52 0 111 47.5t114 134.5z" />
    <glyph glyph-name="I" unicode="I" horiz-adv-x="1327" 
d="M513 737q107 -6 207 -36.5t189 -84.5l-12 -24q-87 50 -181.5 78t-174.5 28h-25q12 -105 70.5 -174t150.5 -88l-6 -26q-101 21 -163.5 94.5t-82.5 193.5h-26q-181 0 -314 -107t-133 -251q0 -143 124.5 -236.5t322.5 -93.5q187 0 324 90t206 258q40 99 90 423l23 141
q16 103 33 165.5t41 110.5q34 71 92 112.5t139 55.5q43 7 60.5 17t17.5 26q0 33 -52 52.5t-141 19.5q-126 0 -257.5 -48t-243.5 -135q-135 -104 -208 -236t-73 -271q0 -20 0.5 -31.5t2.5 -22.5zM483 739q0 6 -1 15t-1 12q0 155 64 291t192 254q115 103 255.5 160t283.5 57
q108 0 172.5 -33.5t64.5 -87.5q0 -28 -17.5 -44t-61.5 -24q-73 -14 -103.5 -31.5t-52.5 -50.5q-41 -58 -77.5 -322t-76.5 -421q-61 -247 -234.5 -387.5t-418.5 -140.5q-212 0 -346.5 99.5t-134.5 252.5q0 166 139.5 281.5t353.5 119.5z" />
    <glyph glyph-name="J" unicode="J" horiz-adv-x="1067" 
d="M264 545q98 68 208 111.5t224 58.5l2 -29q-99 -11 -205 -56.5t-212 -123.5q28 -52 68 -93.5t89 -72.5l-18 -21q-49 32 -89.5 75t-72.5 95q-151 -112 -235 -245t-84 -254q0 -108 65 -168t182 -60t240 73.5t205 193.5q49 72 82.5 172t68.5 293q10 51 27 156q42 255 80 382
q44 153 101 225.5t151 100.5q11 3 32 8q70 17 70 45q0 31 -56.5 50.5t-150.5 19.5q-153 0 -304 -59t-273 -167q-122 -107 -186 -231t-64 -250q0 -56 13.5 -113.5t41.5 -115.5zM238 528q-29 68 -43.5 129t-14.5 117q0 113 50 229.5t145 223.5q130 147 292.5 226t333.5 79
q122 0 197.5 -34t75.5 -87q0 -27 -14.5 -43.5t-45.5 -24.5l-28 -6q-146 -34 -189 -153q-28 -80 -67 -315l-11 -63l-2 -14q-81 -497 -188 -686q-92 -164 -244.5 -267t-298.5 -103q-130 0 -203 67t-73 187q0 137 84.5 276.5t243.5 261.5z" />
    <glyph glyph-name="K" unicode="K" horiz-adv-x="1907" 
d="M195 508q96 55 198 82.5t207 27.5q9 0 40 -1.5t50 -2.5v-26q-23 1 -44 1.5t-46 0.5q-105 0 -205.5 -28.5t-191.5 -84.5q27 -73 64.5 -135t84.5 -111l-20 -22q-43 46 -82 109t-74 145q-79 -57 -122.5 -123t-43.5 -129q0 -85 74.5 -136.5t200.5 -51.5q120 0 228.5 43
t203.5 129q154 138 246 379.5t92 512.5q0 208 -69.5 314t-205.5 106q-114 0 -232.5 -75.5t-215.5 -210.5q-83 -115 -126.5 -244.5t-43.5 -257.5q0 -57 8 -109.5t25 -101.5zM170 494q-18 59 -26.5 115t-8.5 112q0 132 44.5 264.5t127.5 249.5q105 145 230.5 223t255.5 78
q164 0 258 -120t94 -331q0 -225 -95.5 -461.5t-252.5 -398.5q-110 -112 -238.5 -171.5t-263.5 -59.5q-146 0 -229.5 58.5t-83.5 158.5q0 74 48.5 147t139.5 136zM1343 641q80 45 139 254l25 88q56 177 137 264.5t189 87.5q58 0 98.5 -30.5t40.5 -71.5q0 -33 -17 -55.5
t-40 -22.5t-35 13.5t-14 41.5q8 -4 14.5 -6t11.5 -2q13 0 22 10.5t9 26.5q0 31 -24 49.5t-66 18.5q-88 0 -143.5 -61t-118.5 -273q-49 -163 -99.5 -246.5t-115.5 -112.5q45 -125 92 -321q57 -242 141 -242q35 0 69.5 27.5t78.5 91.5l24 -16q-50 -83 -106 -125.5t-115 -42.5
q-123 0 -198 458l-25 152q-23 -6 -46 -9t-44 -3q-53 0 -88 24.5t-35 59.5q0 33 25.5 55t64.5 22q44 0 85 -28t64 -76zM1306 625q-16 43 -48 67.5t-72 24.5q-21 0 -37 -14t-16 -31q0 -27 25 -44.5t65 -17.5q19 0 79 14z" />
    <glyph glyph-name="L" unicode="L" horiz-adv-x="1407" 
d="M422 182q-98 47 -180 69.5t-152 22.5q-93 0 -168.5 -43.5t-75.5 -95.5q0 -51 62 -85t160 -34q108 0 201 43.5t153 122.5zM459 252q30 51 43.5 104t13.5 125q0 32 -5 121.5t-5 147.5q0 173 40 308.5t122 239.5q84 109 202 171.5t238 62.5q148 0 240 -87t92 -224
q0 -209 -196 -383t-486 -207l-4 28q280 31 454 189t174 373q0 128 -75.5 204t-200.5 76q-234 0 -374 -189t-140 -511q0 -30 3 -87t3 -85q0 -109 -27 -208.5t-79 -180.5q220 -115 359 -168.5t216 -53.5q58 0 92.5 26.5t34.5 70.5q0 21 -16.5 37.5t-50.5 29.5q-5 2 -17 6
q-86 31 -86 80q0 32 29 53t73 21v-29h-16q-21 0 -39 -14t-18 -31q0 -31 72 -55l34 -12q31 -13 47.5 -35t16.5 -51q0 -63 -54 -98t-151 -35q-88 0 -238 49t-329 137q-74 -86 -172 -133t-201 -47q-118 0 -189 40.5t-71 104.5q0 77 96.5 134t230.5 57q68 0 145 -18t169 -54z
" />
    <glyph glyph-name="M" unicode="M" horiz-adv-x="2142" 
d="M635 39q-8 -17 -22.5 -25t-39.5 -8q-17 0 -25.5 4t-12.5 12q121 482 174 735.5t53 348.5q0 175 -78 278t-207 103q-162 0 -270.5 -154t-108.5 -385q0 -204 95 -369t258 -245l-17 -23q-169 86 -266.5 256.5t-97.5 380.5q0 248 123 416t305 168q151 0 244.5 -117.5
t93.5 -314.5q0 -137 -109 -599q-56 -237 -86 -374l360 883q74 176 139 248.5t146 72.5q60 0 91.5 -47.5t31.5 -138.5q0 -48 -10 -120t-29 -153l-186 -800l358 813q79 178 141.5 244.5t141.5 66.5q58 0 92.5 -44.5t34.5 -123.5q0 -23 -5 -57t-14 -66l-168 -661
q-12 -47 -19 -90.5t-7 -63.5q0 -33 14.5 -52.5t38.5 -19.5q38 0 79.5 47.5t84.5 141.5l24 -14q-52 -111 -102.5 -163.5t-105.5 -52.5q-46 0 -74.5 37t-28.5 97q0 27 10.5 85t28.5 130l141 552q3 11 8 31q27 111 27 148q0 54 -18.5 81t-55.5 27q-61 0 -111.5 -58t-131.5 -243
l-365 -825q-7 -17 -22 -25t-41 -8q-18 0 -26 4t-13 13l174 757q43 195 56 267t13 106q0 67 -20.5 101t-60.5 34q-62 0 -121.5 -81.5t-155.5 -315.5z" />
    <glyph glyph-name="N" unicode="N" horiz-adv-x="1843" 
d="M692 2l129 494q54 204 83.5 359t29.5 232q0 193 -88.5 303.5t-239.5 110.5q-205 0 -356.5 -191t-151.5 -462q0 -209 104.5 -372.5t307.5 -270.5l-14 -27q-209 112 -317.5 281.5t-108.5 386.5q0 285 160 484.5t378 199.5q179 0 290.5 -118t111.5 -310q0 -144 -158 -786
l-41 -169l134 309q388 896 579 896q72 0 117 -49t45 -129q0 -36 -7 -81.5t-20 -93.5l-217 -849q-4 -16 -6 -31.5t-2 -32.5q0 -33 14 -52.5t39 -19.5q34 0 75 44t85 128l24 -14q-54 -107 -102.5 -153t-108.5 -46q-48 0 -76 33.5t-28 91.5q0 20 5 51.5t15 69.5l213 836
q12 47 17.5 82t5.5 63q0 55 -27.5 87t-75.5 32q-164 0 -625 -1077l-102 -238q-10 -10 -21 -14t-28 -4q-20 0 -27.5 3.5t-13.5 12.5z" />
    <glyph glyph-name="O" unicode="O" horiz-adv-x="1579" 
d="M1020 964q-9 -155 -81 -245t-185 -90q-112 0 -186 89t-74 226q0 94 36 187.5t103 171.5q-216 -67 -348.5 -262.5t-132.5 -446.5q0 -250 139.5 -415t351.5 -165q121 0 252 59.5t246 166.5q146 138 223.5 316t77.5 376q0 244 -118 407.5t-288 163.5q-80 0 -161.5 -39.5
t-159.5 -115.5q19 5 40 7.5t44 2.5q18 0 32 -0.5t29 -2.5v-28q-8 0 -24 1t-25 1q-33 0 -65.5 -4t-67.5 -12q-74 -82 -114 -177t-40 -192q0 -125 65.5 -206t164.5 -81q101 0 164.5 82t72.5 225h29zM662 1337q100 100 192.5 147.5t183.5 47.5q207 0 339 -164.5t132 -423.5
q0 -189 -91.5 -384t-248.5 -337q-128 -118 -265.5 -177.5t-278.5 -59.5q-249 0 -402 164t-153 434q0 264 166 476t426 277z" />
    <glyph glyph-name="P" unicode="P" horiz-adv-x="1636" 
d="M394 678q43 7 79.5 10.5t69.5 3.5q89 0 180.5 -22.5t175.5 -65.5l-14 -24q-84 41 -171.5 62.5t-172.5 21.5q-36 0 -71.5 -4t-67.5 -11q47 -93 123.5 -145.5t183.5 -65.5l-1 -28q-106 9 -192 66t-154 163q-156 -38 -249 -127t-93 -199q0 -122 125 -210.5t310 -88.5
q153 0 284.5 65.5t210.5 180.5q89 130 159 485q26 130 42 199q46 198 112 304.5t171 158.5l14 -25q-103 -45 -156.5 -185t-88.5 -493q18 -6 40.5 -10t44.5 -4q145 0 245.5 117t100.5 283q0 190 -120 301.5t-324 111.5q-174 0 -337.5 -56.5t-287.5 -160.5
q-100 -84 -152.5 -191t-52.5 -231q0 -52 8.5 -98t25.5 -88zM344 668q-22 48 -32.5 94.5t-10.5 93.5q0 107 51.5 213t149.5 199q133 125 314 194.5t374 69.5q245 0 392 -118.5t147 -313.5q0 -170 -134.5 -304t-302.5 -134q-23 0 -47.5 3t-48.5 9q-54 -322 -251.5 -505
t-489.5 -183q-198 0 -329.5 95.5t-131.5 231.5q0 118 93 212.5t257 142.5z" />
    <glyph glyph-name="Q" unicode="Q" horiz-adv-x="1579" 
d="M326 -92q-63 26 -107 37.5t-80 11.5q-45 0 -79.5 -22.5t-34.5 -51.5q0 -25 25.5 -43t64.5 -18q42 0 94.5 21.5t116.5 64.5zM662 1337q100 100 192.5 147.5t183.5 47.5q207 0 339 -164.5t132 -423.5q0 -189 -91 -383t-249 -338q-128 -118 -265.5 -177.5t-278.5 -59.5
q-29 0 -72 5t-94 15q-13 -14 -25.5 -29.5t-25.5 -33.5q286 -94 400 -122t181 -28q97 0 163 52t105 161l29 -8q-43 -135 -125.5 -200.5t-208.5 -65.5q-101 0 -241 39t-353 127q-69 -52 -129.5 -77.5t-113.5 -25.5q-56 0 -87.5 23.5t-31.5 64.5q0 44 50.5 77.5t121.5 33.5
q33 0 84.5 -10t120.5 -29l5 6q30 34 48 57q-170 61 -263 208.5t-93 357.5q0 263 166.5 475.5t425.5 277.5zM1020 964q-9 -155 -81 -245t-185 -90q-112 0 -186 89t-74 226q0 94 36 187.5t103 171.5q-216 -67 -348.5 -262.5t-132.5 -446.5q0 -183 79 -326.5t215 -210.5
q82 151 147.5 210t154.5 73l4 -29q-85 -13 -150 -75.5t-125 -190.5q37 -15 76 -23t80 -8q128 0 260 59t246 167q147 138 225 316t78 376q0 243 -118.5 407t-287.5 164q-80 0 -161.5 -39.5t-159.5 -115.5q19 5 40 7.5t44 2.5q18 0 32 -0.5t29 -2.5v-28q-8 0 -24 1t-25 1
q-33 0 -65.5 -4t-67.5 -12q-74 -82 -114 -177t-40 -192q0 -125 65.5 -206t164.5 -81q101 0 164.5 82t72.5 225h29z" />
    <glyph glyph-name="R" unicode="R" horiz-adv-x="1782" 
d="M262 699q-7 28 -10.5 53.5t-3.5 50.5q0 139 68.5 272.5t193.5 237.5q129 108 299 167.5t352 59.5q226 0 361 -100.5t135 -265.5q0 -141 -107.5 -247t-285.5 -139q-34 -6 -82 -13q-72 -11 -72 -27q0 -15 64 -31t96 -58q53 -69 101 -296q29 -138 50 -211q20 -65 38 -88
t44 -23q28 0 54 26t53 78l24 -12q-37 -78 -73 -112.5t-78 -34.5q-109 0 -188 348q-36 163 -62 254q-10 37 -23.5 57t-35.5 33q-12 6 -35 15q-58 22 -58 52q0 40 103 58q52 9 82 16q148 37 228.5 125.5t80.5 214.5q0 154 -116 251t-302 97q-179 0 -343 -56.5t-290 -162.5
q-116 -97 -182 -224t-66 -255q0 -27 3.5 -54t9.5 -50q32 7 65 10.5t68 3.5q69 0 142 -19t147 -57l-13 -22q-65 34 -135.5 51.5t-140.5 17.5q-34 0 -65 -3t-60 -9q35 -121 118 -185.5t205 -66.5v-29q-133 5 -221 73t-131 200q-139 -51 -218 -140.5t-79 -195.5
q0 -138 113 -229t287 -91q127 0 231 53.5t180 159.5q117 160 179 601q10 75 16 114q25 160 100.5 277.5t208.5 201.5l12 -24q-100 -62 -162.5 -170t-80.5 -252q-6 -48 -16 -140q-43 -399 -150 -559q-98 -143 -229 -216.5t-289 -73.5q-186 0 -307 98t-121 250q0 117 84.5 214
t234.5 151z" />
    <glyph glyph-name="S" unicode="S" horiz-adv-x="1337" 
d="M1475 1401q9 -5 13.5 -6.5t8.5 -1.5q12 0 19.5 11t7.5 30q0 28 -35.5 50.5t-87.5 22.5q-113 0 -193 -108.5t-80 -278.5q0 -82 16.5 -232t16.5 -216q0 -292 -196.5 -489t-485.5 -197q-214 0 -355.5 121t-141.5 301q0 189 147 320.5t363 131.5q153 0 250.5 -72.5
t97.5 -187.5q0 -109 -84 -184.5t-211 -75.5q-72 0 -125.5 27t-91.5 82l22 18q36 -50 84 -74t111 -24q113 0 190.5 67t77.5 164q0 98 -84.5 152.5t-239.5 54.5q-208 0 -343.5 -113.5t-135.5 -285.5q0 -167 134 -280.5t335 -113.5q266 0 435 168.5t169 435.5q0 73 -12 220
t-12 221q0 211 98.5 344t243.5 133q76 0 128 -35.5t52 -85.5q0 -30 -19 -52t-44 -22q-21 0 -32 14t-11 40v6z" />
    <glyph glyph-name="T" unicode="T" horiz-adv-x="1413" 
d="M352 639q56 19 115.5 29t124.5 10q89 0 171 -19.5t163 -58.5l-13 -27q-66 33 -135.5 48.5t-150.5 15.5q-55 0 -115.5 -9t-126.5 -28q69 -70 151 -104.5t181 -34.5q20 0 64 3q8 1 12 1v-29h-6q-48 -4 -70 -4q-105 0 -191.5 37t-175.5 119q-152 -54 -230.5 -129t-78.5 -168
q0 -123 116 -201t306 -78q226 0 387 92t225 256q51 129 77 361q8 70 13 104q18 117 42.5 199.5t60.5 146.5q72 133 201.5 219t129.5 95q0 7 -5.5 11.5t-14.5 4.5q-8 0 -120.5 -57.5t-239.5 -57.5q-83 0 -228.5 34t-214.5 34q-212 0 -366 -150.5t-154 -365.5q0 -86 24 -160
t72 -139zM324 631q-49 69 -72 144t-23 163q0 244 181 416t436 172q99 0 238.5 -43t191.5 -43q91 0 186.5 45t114.5 45q25 0 38 -12t13 -35q0 -21 -13 -36.5t-42 -29.5q-80 -39 -133 -92t-88 -127q-66 -138 -103.5 -387t-62.5 -332q-72 -241 -255.5 -367t-463.5 -126
q-204 0 -328.5 83.5t-124.5 217.5q0 105 81.5 195.5t228.5 148.5z" />
    <glyph glyph-name="U" unicode="U" horiz-adv-x="2048" 
d="M1847 211l25 -14q-62 -106 -123 -158.5t-121 -52.5q-56 0 -84 43t-28 127q0 151 45.5 338t134.5 399q74 177 165 325l91 148q0 7 -6 11.5t-15 4.5q-41 0 -138 -129.5t-181 -316.5q-29 -64 -109 -270t-145 -322q-104 -184 -219.5 -274t-247.5 -90q-116 0 -183 65t-67 178
q0 95 112 386l17 44l64 166q116 296 116 391q0 126 -81 209.5t-201 83.5q-114 0 -213 -51t-185 -154q-82 -99 -127 -225t-45 -260q0 -210 107 -361t282 -188l-2 -26q-193 43 -304 199.5t-111 387.5q0 131 46 260.5t130 231.5q89 107 195 161t231 54q157 0 256.5 -101
t99.5 -262q0 -103 -114 -382q-25 -60 -37 -93l-31 -75q-146 -363 -146 -443q0 -77 50.5 -122.5t136.5 -45.5q102 0 195 58t178 176q103 143 225 461l51 128q105 256 219 418t178 162q19 0 33 -13t14 -30q0 -19 -51.5 -101t-87.5 -151q-68 -128 -118 -279.5t-83 -328.5
q-21 -111 -33 -204.5t-12 -145.5q0 -61 18 -90t54 -29q40 0 84 42t96 130z" />
    <glyph glyph-name="V" unicode="V" horiz-adv-x="1640" 
d="M1671 1106l2.5 46.5t1.5 33.5q0 105 -42.5 175.5t-102.5 70.5q-38 0 -63 -31.5t-25 -79.5q0 -76 63.5 -137t165.5 -78zM1700 1106h12q19 0 58 7q4 1 6 1l6 -29q-16 -4 -31.5 -6t-32.5 -2h-20q-29 -217 -129 -407.5t-277 -366.5q-154 -153 -320 -235t-319 -82
q-48 0 -72 12t-24 37q0 27 57 48q35 13 54 23q123 72 209 301t86 508q0 284 -97.5 436t-277.5 152q-191 0 -340.5 -197.5t-149.5 -478.5q0 -218 103.5 -379.5t298.5 -244.5l-13 -25q-204 91 -309.5 256t-105.5 393q0 298 159 502.5t379 204.5q199 0 321 -156t122 -415
q0 -165 -45.5 -335t-128.5 -321q-40 -72 -82.5 -124t-87.5 -85q-35 -24 -79 -38t-44 -25q0 -12 15.5 -17.5t51.5 -5.5q146 0 305.5 80.5t311.5 231.5q176 174 274 360.5t125 396.5q-119 15 -197.5 92.5t-78.5 174.5q0 60 33.5 100.5t82.5 40.5q85 0 140 -80.5t55 -208.5
q0 -16 -3 -65q-1 -19 -1 -29z" />
    <glyph glyph-name="W" unicode="W" horiz-adv-x="2062" 
d="M438 197l-14 -25q-175 102 -263.5 264t-88.5 383q0 306 150 511.5t368 205.5q171 0 280 -151.5t109 -395.5q0 -114 -24.5 -233t-71.5 -234q-48 -117 -106.5 -212.5t-119.5 -155.5q-49 -49 -109.5 -79t-60.5 -40t13.5 -15.5t38.5 -5.5q79 0 167 42.5t179 123.5
q193 175 307.5 437t114.5 532q0 133 -49 241q-8 19 -9 25q0 15 8 23t23 8q95 0 181.5 -161.5t86.5 -385.5q0 -269 -92 -495t-229 -312q-31 -18 -70 -32.5t-39 -22.5q0 -12 13.5 -17.5t44.5 -5.5q104 0 232 67t243 183q172 175 265 402.5t93 470.5q0 34 -1 51t-3 33
q-26 -11 -55 -16t-60 -5q-114 0 -194 60t-80 143q0 60 41 100.5t102 40.5q95 0 164 -73t102 -209l31 22l12 -27l-36 -24q3 -26 4.5 -52t1.5 -51q0 -246 -95.5 -476.5t-271.5 -407.5q-121 -123 -253.5 -191.5t-246.5 -68.5q-37 0 -59 12.5t-22 34.5q0 26 55 50q22 10 32 15
q138 67 212.5 267t74.5 501q0 221 -61 382t-111 161q-2 0 -4 -3.5t-2 -6.5q0 -2 5 -13q44 -107 44 -260q0 -233 -98.5 -475.5t-269.5 -429.5q-101 -111 -212.5 -173t-205.5 -62q-44 0 -66 12t-22 37q0 27 57 56q31 15 49 26q50 29 88 72.5t78 117.5q80 151 121 313t41 326
q0 241 -95.5 393t-242.5 152q-186 0 -322.5 -193.5t-136.5 -478.5q0 -212 85.5 -368t254.5 -254zM2001 1249q-25 118 -89 192.5t-143 74.5q-50 0 -80 -30.5t-30 -82.5q0 -73 67 -123.5t164 -50.5q25 0 52.5 5t58.5 15z" />
    <glyph glyph-name="X" unicode="X" horiz-adv-x="1821" 
d="M150 565q58 29 114 43.5t113 14.5q76 0 152 -22.5t171 -74.5l-12 -24q-69 38 -137.5 57t-138.5 19q-67 0 -127.5 -16t-114.5 -48q46 -87 118 -145t158 -76l-8 -29q-89 20 -163.5 80t-129.5 156q-71 -46 -107 -103t-36 -125q0 -107 89.5 -182.5t223.5 -75.5
q123 0 241.5 61t217.5 175q123 141 190.5 335t67.5 404q0 236 -96 371t-262 135q-107 0 -208 -56.5t-190 -166.5q-81 -103 -124 -223.5t-43 -243.5q0 -67 10 -126t31 -114zM1038 645q-95 -297 -295 -478t-426 -181q-147 0 -246.5 84t-99.5 206q0 84 37.5 152t114.5 123
q-22 58 -32.5 119.5t-10.5 126.5q0 125 37 239.5t110 216.5q98 139 220 210t262 71q198 0 302.5 -143.5t104.5 -415.5q0 -9 -1 -29t-1 -31q81 251 217.5 387t304.5 136q89 0 145 -39t56 -99q0 -31 -18 -51t-45 -20q-22 0 -36 13.5t-14 35.5q0 8 1 12t2 6q3 0 12 -3t12 -3
q16 0 26.5 11.5t10.5 27.5q0 32 -43.5 56t-108.5 24q-104 0 -196 -57t-170 -170q-86 -125 -135.5 -294t-49.5 -339q0 -224 82.5 -364t208.5 -140q75 0 152.5 53.5t148.5 155.5l23 -16q-78 -119 -172.5 -185.5t-181.5 -66.5q-141 0 -227.5 137t-86.5 366q0 33 1.5 72.5
t4.5 83.5z" />
    <glyph glyph-name="Y" unicode="Y" horiz-adv-x="1741" 
d="M690 -66q4 9 5 12.5t1 8.5q0 13 -10 23t-24 10q-17 0 -31.5 -18.5t-14.5 -43.5q0 -65 76 -114.5t187 -49.5q138 0 250.5 89.5t179.5 252.5q40 100 95 348.5t97 383.5q52 167 99 249.5t112 131.5q17 12 48.5 27.5t31.5 27.5q0 10 -8.5 15t-26.5 5q-70 0 -143.5 -85.5
t-155.5 -264.5l-37 -83q-167 -372 -334 -505q-93 -75 -187 -115t-173 -40q-35 0 -54.5 14.5t-19.5 40.5q0 31 51 69q19 14 27 21q129 105 205 284.5t76 379.5q0 211 -119.5 349t-294.5 138q-200 0 -349 -175.5t-149 -420.5q0 -195 114 -330.5t310 -173.5l-6 -28
q-210 44 -328 185t-118 347q0 264 165.5 449.5t395.5 185.5q205 0 331 -145.5t126 -384.5q0 -167 -67 -335.5t-167 -258.5q-48 -43 -115 -95q-59 -47 -59 -61q0 -15 12 -22t39 -7q52 0 128 30t153 81q110 74 193 185.5t184 340.5q107 244 193.5 351.5t172.5 107.5
q29 0 46.5 -12.5t17.5 -32.5q0 -30 -56 -62q-10 -6 -16 -10q-62 -36 -107.5 -109t-70.5 -177q-18 -75 -62 -362.5t-116 -449.5q-80 -174 -217.5 -273t-296.5 -99q-126 0 -211.5 59t-85.5 139q0 44 27.5 75.5t64.5 31.5q32 0 53 -17t21 -42q0 -20 -11.5 -34t-25.5 -14
q-5 0 -10 0.5t-11 1.5z" />
    <glyph glyph-name="Z" unicode="Z" horiz-adv-x="1669" 
d="M715 754h188q137 185 269.5 323.5t254.5 225.5q36 24 89 56q63 37 63 54q0 9 -9 15t-22 6q-9 0 -99 -45.5t-173 -45.5q-107 0 -333 65t-335 65q-186 0 -316 -109.5t-130 -269.5q0 -135 84 -216t225 -81q154 0 245 89.5t91 241.5v15h29v-29q0 -152 -102 -249t-263 -97
q-153 0 -244.5 89t-91.5 237q0 191 151.5 315.5t385.5 124.5q143 0 353.5 -77t274.5 -77q72 0 153.5 41t100.5 41q22 0 37 -12.5t15 -30.5q0 -40 -83 -91q-52 -31 -83 -54q-100 -75 -195.5 -185t-247.5 -335h217v-33h-237q-183 -250 -348 -389t-357 -209q-36 -14 -94 -28
q-78 -20 -78 -48q0 -16 16.5 -26.5t43.5 -10.5q62 0 250.5 72t308.5 72q112 0 308.5 -52.5t287.5 -52.5q89 0 140.5 31.5t51.5 85.5q0 36 -25.5 61t-64.5 25q-18 0 -36 -4.5t-37 -13.5l-9 28q21 10 40.5 14.5t41.5 4.5q53 0 85 -30.5t32 -80.5q0 -78 -76.5 -136.5
t-185.5 -58.5q-71 0 -266 54.5t-326 54.5q-140 0 -309 -51t-207 -51q-42 0 -68 19.5t-26 49.5q0 46 100 71q46 11 70 19q164 56 311.5 188t327.5 392h-164v33z" />
    <glyph glyph-name="bracketleft" unicode="[" horiz-adv-x="696" 
d="M123 -166l299 1698h291l-6 -29h-228l-289 -1640h228l-4 -29h-291z" />
    <glyph glyph-name="backslash" unicode="\" horiz-adv-x="721" 
d="M623 -176l-41 -14l-451 1708l41 14z" />
    <glyph glyph-name="bracketright" unicode="]" horiz-adv-x="696" 
d="M545 1532l-297 -1698h-291l4 29h227l291 1640h-229l6 29h289z" />
    <glyph glyph-name="asciicircum" unicode="^" horiz-adv-x="2048" 
d="M946 1462h152l534 -565h-84l-526 465l-530 -465h-80z" />
    <glyph glyph-name="underscore" unicode="_" 
d="M0 -403h1024v-80h-1024v80z" />
    <glyph glyph-name="grave" unicode="`" 
d="M602 567q0 -4 -3 -6t-9 -2q-48 0 -145 59.5t-97 104.5q0 18 12.5 27.5t36.5 9.5q29 0 51.5 -46.5t30.5 -55.5q31 -36 77 -60.5t46 -30.5z" />
    <glyph glyph-name="a" unicode="a" horiz-adv-x="678" 
d="M326 141l61 226q-26 32 -58.5 49.5t-64.5 17.5q-93 0 -169.5 -84.5t-76.5 -189.5q0 -61 34.5 -100.5t86.5 -39.5q44 0 93.5 32t93.5 89zM319 92q-44 -52 -96 -79t-108 -27q-70 0 -118 51t-48 129q0 115 95.5 207t215.5 92q34 0 68 -15.5t69 -46.5l13 50l69 14l-94 -346
q-5 -19 -7.5 -35t-2.5 -31q0 -12 6.5 -20t15.5 -8q21 0 51.5 28t67.5 82l23 -16q-41 -64 -83.5 -99.5t-76.5 -35.5q-28 0 -45 19t-17 50q0 15 0.5 22.5t1.5 14.5z" />
    <glyph glyph-name="b" unicode="b" horiz-adv-x="563" 
d="M47 287l-35 -148q-2 -8 -3 -16t-1 -25q0 -39 24 -61.5t66 -22.5q93 0 167.5 95t74.5 221q0 47 -24 75.5t-64 28.5q-48 0 -105.5 -40.5t-99.5 -106.5zM-43 172l233 1009q3 11 5 22t2 22q0 7 -3 12.5t-8 5.5q-12 0 -40 -23t-64 -63l-23 19q51 58 89.5 86t68.5 28
q19 0 31 -17t12 -46q0 -5 -1 -14t-3 -21l-195 -838q48 52 101.5 81.5t99.5 29.5q67 0 107.5 -41t40.5 -109q0 -122 -99 -225.5t-219 -103.5q-61 0 -100 41t-39 106q0 8 0.5 15.5t3.5 23.5z" />
    <glyph glyph-name="c" unicode="c" horiz-adv-x="502" 
d="M311 117l21 -23q-50 -53 -108.5 -80.5t-119.5 -27.5q-68 0 -111.5 47.5t-43.5 126.5q0 110 97 207.5t210 97.5q52 0 82.5 -21t30.5 -57q0 -25 -13.5 -42t-31.5 -17q-4 0 -7.5 1t-11.5 5q11 12 17 24t6 23q0 25 -21 40t-57 15q-80 0 -156 -92t-76 -197q0 -56 32 -90
t83 -34q42 0 90.5 25t87.5 69z" />
    <glyph glyph-name="d" unicode="d" horiz-adv-x="678" 
d="M326 141l49 236q-21 26 -50.5 41.5t-60.5 15.5q-93 0 -169.5 -84.5t-76.5 -189.5q0 -61 34.5 -100.5t86.5 -39.5q44 0 93.5 32t93.5 89zM319 92q-44 -52 -96 -79t-108 -27q-70 0 -118 51t-48 129q0 115 95.5 207t215.5 92q34 0 65 -12.5t60 -38.5l164 768q3 15 4.5 26
t1.5 17q0 7 -3 12.5t-7 5.5q-13 0 -42.5 -23.5t-64.5 -62.5l-22 19q51 59 89.5 86.5t69.5 27.5q19 0 31 -17.5t12 -45.5q0 -13 -0.5 -20t-3.5 -16l-229 -1070q-4 -20 -6 -38.5t-2 -29.5t6 -18.5t14 -7.5q21 0 51.5 28t67.5 82l23 -16q-41 -64 -83.5 -99.5t-76.5 -35.5
q-28 0 -45 19t-17 50q0 15 0.5 22.5t1.5 14.5z" />
    <glyph glyph-name="e" unicode="e" horiz-adv-x="530" 
d="M29 211q127 10 200.5 53.5t73.5 106.5q0 27 -18 45t-45 18q-72 0 -131.5 -62t-79.5 -161zM25 182q0 -1 -1 -6.5t-1 -9.5v-16q0 -65 28 -95t88 -30q44 0 87.5 19t92.5 60l21 -20q-53 -47 -111.5 -72.5t-111.5 -25.5q-79 0 -123.5 45t-44.5 125q0 111 94.5 210t210.5 99
q45 0 74.5 -27t29.5 -67q0 -72 -88.5 -122.5t-244.5 -66.5z" />
    <glyph glyph-name="f" unicode="f" horiz-adv-x="371" 
d="M80 426h-154v35h160l74 391q59 320 136.5 473.5t178.5 153.5q35 0 57.5 -19t22.5 -47q0 -19 -12.5 -32t-30.5 -13q-17 0 -26 7.5t-11 22.5q12 7 18.5 14.5t6.5 14.5q0 8 -12 15.5t-25 7.5q-68 0 -121 -132t-113 -454l-75 -403h141v-35h-148l-34 -193
q-50 -265 -114.5 -396.5t-145.5 -131.5q-32 0 -50 16t-18 43q0 14 11 24.5t26 10.5q8 0 14.5 -2t11.5 -6q-5 -9 -7.5 -16t-2.5 -13q0 -12 7 -20t18 -8q48 0 82 76t75 292z" />
    <glyph glyph-name="g" unicode="g" horiz-adv-x="588" 
d="M311 109q-49 -54 -101 -81.5t-106 -27.5q-70 0 -112.5 45.5t-42.5 120.5q0 113 98 206t215 93q32 0 66 -15.5t69 -46.5l13 50l67 12l-117 -410q-57 -197 -120.5 -273.5t-159.5 -76.5q-48 0 -81.5 29.5t-33.5 68.5q0 25 13 41.5t32 16.5q17 0 26 -9.5t9 -27.5
q-17 -5 -26 -15t-9 -24q0 -21 20.5 -36t49.5 -15q71 0 115.5 58.5t97.5 248.5zM385 367q-27 32 -59 49.5t-66 17.5q-87 0 -163.5 -83.5t-76.5 -186.5q0 -58 28.5 -90.5t78.5 -32.5q53 0 102 31t101 98z" />
    <glyph glyph-name="h" unicode="h" horiz-adv-x="649" 
d="M-78 -10l275 1192q3 11 4.5 21.5t1.5 21.5q0 7 -3 12.5t-7 5.5q-13 0 -42.5 -23.5t-64.5 -62.5l-23 19q50 57 90 85.5t70 28.5q19 0 30 -17t11 -46q0 -5 -1 -14t-3 -21l-248 -1086q109 186 186.5 272.5t135.5 86.5q32 0 52 -21t20 -55q-1 -14 -3.5 -33t-7.5 -45l-37 -191
q-1 -7 -4 -21q-6 -30 -6 -46q0 -11 7 -18.5t16 -7.5q20 0 49 27.5t67 82.5l25 -16q-43 -66 -85 -100.5t-79 -34.5q-28 0 -44.5 18.5t-16.5 50.5q0 13 3 34.5t9 51.5l39 197q2 8 3 18t1 29q0 21 -7.5 32t-21.5 11q-43 0 -130.5 -111.5t-202.5 -316.5z" />
    <glyph glyph-name="i" unicode="i" horiz-adv-x="426" 
d="M201 872q0 18 14.5 33t32.5 15q20 0 34.5 -14t14.5 -34q0 -19 -14.5 -33t-34.5 -14q-18 0 -32.5 15t-14.5 32zM125 125q-8 -27 -11 -43.5t-3 -26.5q0 -16 8.5 -23t25.5 -7q18 0 54.5 28.5t72.5 73.5l23 -18q-56 -66 -97 -94.5t-79 -28.5q-33 0 -54.5 21t-21.5 52
q0 14 11 55q6 23 9 37l45 178l5 18q8 34 8 46q0 13 -7 22t-18 9q-20 0 -49 -27.5t-67 -83.5l-23 17q47 71 87 103t81 32q28 0 45.5 -19.5t17.5 -50.5q0 -26 -12 -70q-3 -11 -4 -16z" />
    <glyph glyph-name="j" unicode="j" horiz-adv-x="342" 
d="M80 -94q-19 -82 -65 -131t-103 -49q-39 0 -63.5 16.5t-24.5 42.5q0 16 12 27.5t29 11.5q9 0 16.5 -2.5t11.5 -6.5q-6 -7 -9 -14.5t-3 -15.5q0 -14 9 -23.5t22 -9.5q34 0 55 29.5t39 103.5l102 444q6 26 8.5 40.5t2.5 25.5q0 13 -6 21t-15 8q-20 0 -50.5 -28.5
t-67.5 -82.5l-23 17q47 71 87 103t81 32q28 0 44.5 -19t16.5 -51q0 -13 -3 -31.5t-11 -54.5zM182 872q0 18 14.5 33t32.5 15q20 0 33.5 -14t13.5 -34t-13.5 -33.5t-33.5 -13.5q-18 0 -32.5 15t-14.5 32z" />
    <glyph glyph-name="k" unicode="k" horiz-adv-x="612" 
d="M213 258q-20 -20 -40 -30.5t-40 -10.5q-25 0 -41 14.5t-16 36.5q0 24 19.5 40t49.5 16q17 0 35 -6t37 -17q21 25 52 73q59 91 116 91q26 0 42.5 -15t16.5 -36q0 -20 -10.5 -32.5t-25.5 -12.5q-6 0 -10 0.5t-6 0.5q6 9 8.5 15.5t2.5 13.5q0 14 -8 23.5t-18 9.5
q-32 0 -71.5 -61t-67.5 -90q36 -44 59 -144t68 -100q22 0 41.5 24t29.5 66l29 -4q-13 -63 -51 -100t-86 -37q-46 0 -72.5 34t-26.5 95q0 8 1 31t1 38q0 21 -4.5 39t-13.5 35zM196 280q-11 8 -23.5 11.5t-27.5 3.5q-21 0 -32 -6t-11 -19q1 -10 10.5 -17t22.5 -7q12 0 27 8.5
t34 25.5zM-84 -10l264 1054q28 115 79 180.5t110 65.5q30 0 49.5 -15.5t19.5 -39.5q0 -18 -12 -32.5t-27 -14.5q-4 0 -11 4q-5 3 -7 4q8 8 12 16t4 15q0 14 -10.5 23.5t-28.5 9.5q-31 0 -53.5 -32t-40.5 -100l-282 -1128z" />
    <glyph glyph-name="l" unicode="l" horiz-adv-x="313" 
d="M-47 152l246 1030q4 14 6 25.5t2 17.5q0 7 -3 12.5t-7 5.5q-14 0 -43.5 -23.5t-63.5 -62.5l-22 19q51 57 89 85.5t64 28.5q25 0 38 -16.5t13 -46.5q0 -10 -1 -18.5t-3 -16.5l-258 -1067l-3 -12q-9 -36 -9 -52q0 -18 7.5 -27t21.5 -9q22 0 57.5 27t75.5 75l22 -18
q-54 -65 -96.5 -94t-81.5 -29q-30 0 -47.5 19.5t-17.5 53.5q0 15 3 35.5t11 57.5z" />
    <glyph glyph-name="m" unicode="m" horiz-adv-x="1067" 
d="M16 -14l42 170q51 206 51 227q0 12 -6 19.5t-15 7.5q-16 0 -44 -27t-64 -78l-23 17q55 72 96.5 107.5t71.5 35.5q23 0 34 -15.5t11 -48.5q0 -41 -59 -275l-4 -19q108 185 185.5 271.5t135.5 86.5q33 0 51.5 -20.5t18.5 -57.5q0 -13 -3 -30.5t-10 -39.5l-53 -211
q115 184 197 271.5t141 87.5q33 0 51.5 -20.5t18.5 -57.5q0 -13 -3.5 -31t-11.5 -45l-51 -190q0 -1 -1 -5q-11 -40 -11 -61q0 -11 7.5 -19.5t16.5 -8.5q20 0 49.5 27.5t67.5 82.5l25 -16q-44 -66 -86 -100.5t-78 -34.5q-28 0 -46 19.5t-18 49.5q0 29 13 74l4 12l51 197
q1 4 3 11q7 26 7 42q0 18 -7.5 27.5t-20.5 9.5q-46 0 -134 -107.5t-219 -324.5l-61 -10l88 336q7 25 10.5 44.5t3.5 26.5q0 16 -8 25.5t-20 9.5q-45 0 -132.5 -113t-201.5 -319z" />
    <glyph glyph-name="n" unicode="n" horiz-adv-x="725" 
d="M16 -14l42 170q51 206 51 227q0 12 -6 19.5t-15 7.5q-16 0 -44 -27t-64 -78l-23 17q55 72 96.5 107.5t71.5 35.5q23 0 34 -15.5t11 -48.5q0 -41 -59 -275l-4 -19q108 185 185.5 271.5t135.5 86.5q33 0 51.5 -20.5t18.5 -57.5q0 -16 -3.5 -35.5t-9.5 -40.5l-51 -190
q0 -1 -1 -5q-11 -40 -11 -61q0 -12 6.5 -20t15.5 -8q21 0 51.5 28t67.5 82l23 -16q-44 -66 -86 -100.5t-78 -34.5q-28 0 -46 19.5t-18 49.5q0 29 13 74l4 12l53 197q1 3 3 11q7 26 7 42q0 18 -7.5 27.5t-20.5 9.5q-45 0 -132.5 -113t-201.5 -319z" />
    <glyph glyph-name="o" unicode="o" horiz-adv-x="621" 
d="M399 307q0 58 -33.5 93.5t-86.5 35.5q-98 0 -180.5 -90t-82.5 -196q0 -63 36 -99.5t98 -36.5q91 0 170 93.5t79 199.5zM463 293q0 -118 -95 -212.5t-218 -94.5q-93 0 -147 49.5t-54 134.5q0 117 100.5 206t231.5 89q85 0 133.5 -45.5t48.5 -126.5z" />
    <glyph glyph-name="p" unicode="p" horiz-adv-x="621" 
d="M-92 -256q-12 5 -21 7.5t-16 2.5q-16 0 -28.5 -9t-12.5 -19q0 -9 6 -14t17 -5q16 0 30.5 9.5t24.5 27.5zM74 379q-19 -10 -38 -24t-38 -31l-18 22q23 22 90 63l14 9q33 143 68.5 216.5t87.5 106.5l16 -22q-41 -29 -64.5 -90t-37.5 -186q29 10 58 16t54 6q85 0 141 -53
t56 -133q0 -115 -82 -204t-182 -89q-35 0 -62.5 20.5t-27.5 46.5q0 17 9 27t23 10q6 0 10.5 -2.5t9.5 -10.5q-3 -6 -5 -13t-2 -13q0 -17 14.5 -27t40.5 -10q74 0 129 74t55 182q0 73 -39 119.5t-98 46.5q-23 0 -50.5 -6.5t-55.5 -19.5q-55 -277 -98.5 -421t-94.5 -225
q48 -22 86 -34.5t55 -12.5q12 0 22.5 5.5t20.5 15.5l17 -21q-21 -21 -37.5 -30t-34.5 -9q-39 0 -113 37l-34 17q-24 -27 -45.5 -40.5t-40.5 -13.5q-23 0 -38.5 12t-15.5 29q0 26 25.5 45t60.5 19q12 0 23 -2t20 -6q47 65 107 396q24 132 39 208z" />
    <glyph glyph-name="q" unicode="q" horiz-adv-x="616" 
d="M319 92q-44 -52 -96 -79t-108 -27q-70 0 -118 51t-48 129q0 115 95.5 207t215.5 92q34 0 68.5 -15.5t62.5 -43.5q33 113 68 175.5t82 94.5l16 -23q-54 -37 -88 -188q-5 -24 -8 -36l-135 -588q-1 -5 -4 -16q-9 -41 -9 -54q0 -9 7 -17t16 -8q20 0 50.5 28.5t68.5 82.5
l22 -17q-41 -64 -83.5 -99.5t-76.5 -35.5q-29 0 -45 21.5t-16 60.5q0 13 1.5 26t4.5 27zM332 147l51 222q-22 30 -54 47.5t-65 17.5q-93 0 -169.5 -84.5t-76.5 -189.5q0 -61 34.5 -100.5t86.5 -39.5q44 0 93.5 33t99.5 94z" />
    <glyph glyph-name="r" unicode="r" horiz-adv-x="530" 
d="M16 -14l42 170q51 206 51 227q0 12 -6 19.5t-15 7.5q-16 0 -44 -27t-64 -78l-23 17q55 72 96.5 107.5t71.5 35.5q23 0 34 -15.5t11 -48.5q0 -41 -59 -275l-4 -19q107 201 169.5 279.5t110.5 78.5q33 0 52.5 -16.5t19.5 -42.5q0 -22 -15.5 -39t-33.5 -17q-8 0 -17.5 3
t-17.5 7q16 7 23.5 15.5t7.5 19.5q0 13 -8 21t-21 8q-41 0 -112 -104t-181 -324z" />
    <glyph glyph-name="s" unicode="s" horiz-adv-x="408" 
d="M-6 119q-20 -5 -30.5 -16t-10.5 -27q0 -24 33.5 -43t83.5 -19q49 0 81.5 26.5t32.5 65.5q0 47 -109 120l-11 7q-40 27 -55 50t-15 55q0 49 50.5 88t117.5 39q48 0 82.5 -24t34.5 -56q0 -18 -11.5 -29.5t-27.5 -11.5q-6 0 -13.5 3t-19.5 11q14 7 20 14.5t6 18.5
q0 19 -21 31t-54 12q-48 0 -79.5 -20.5t-31.5 -51.5q0 -34 94.5 -101t94.5 -128q0 -64 -48 -105.5t-122 -41.5q-67 0 -112.5 32t-45.5 76q0 24 11.5 37.5t31.5 13.5q15 0 26.5 -7t16.5 -19z" />
    <glyph glyph-name="t" unicode="t" horiz-adv-x="346" 
d="M182 127l23 -18q-55 -65 -97.5 -94t-80.5 -29q-31 0 -49.5 21t-18.5 56q0 20 14 72q3 11 4 16l78 275h-102v35h113l55 192q6 25 9 39t3 17q0 6 -5 12t-9 6q-17 0 -43.5 -26.5t-50.5 -69.5l-27 14q46 67 80 95t67 28q25 0 37.5 -15.5t12.5 -45.5q0 -10 -2 -22t-5 -24
l-59 -200h104v-35h-112l-88 -301q-8 -26 -11.5 -41t-3.5 -25q0 -16 10 -25t27 -9q18 0 54.5 28.5t72.5 73.5z" />
    <glyph glyph-name="u" unicode="u" horiz-adv-x="729" 
d="M453 455l73 10q-45 -145 -72.5 -260t-27.5 -152q0 -11 6.5 -18.5t16.5 -7.5q20 0 50.5 28t67.5 82l23 -16q-44 -66 -86 -100.5t-80 -34.5q-27 0 -43 19t-16 50q0 28 10 81t43 183q-138 -223 -196 -278t-120 -55q-38 0 -62 24t-24 64q0 24 16 71l7 21l62 183q3 8 5.5 19
t2.5 17q0 11 -6 18t-15 7q-16 0 -43.5 -26.5t-64.5 -78.5l-23 17q58 76 97 109.5t69 33.5q22 0 36.5 -18t14.5 -48q0 -10 -3 -24t-9 -35l-72 -215q-5 -16 -7.5 -29.5t-2.5 -27.5q0 -19 13 -32t32 -13q54 0 134.5 106t193.5 326z" />
    <glyph glyph-name="v" unicode="v" horiz-adv-x="602" 
d="M76 -14q17 97 26 188t9 162q0 44 -9 64t-28 20q-17 0 -46 -26t-57 -68l-22 18q45 64 82 92.5t71 28.5q37 0 55.5 -33.5t18.5 -97.5q0 -61 -27 -273l-1 -13q131 91 207.5 180.5t76.5 148.5q0 21 -13 34t-34 13q-19 0 -44 -16t-50 -46l-21 21q41 44 73.5 63t66.5 19
q28 0 48.5 -24t20.5 -58q0 -71 -110 -188.5t-275 -208.5h-18z" />
    <glyph glyph-name="w" unicode="w" horiz-adv-x="883" 
d="M475 442q-43 -156 -59.5 -233.5t-16.5 -118.5q0 -36 14.5 -55t41.5 -19q31 0 72 30.5t79 82.5q48 66 73.5 125t25.5 102q0 31 -14 48.5t-38 17.5q-13 0 -29.5 -7t-33.5 -20l-12 25q46 28 67.5 36.5t40.5 8.5q27 0 43 -23t16 -63q0 -45 -31 -117.5t-83 -144.5
q-47 -66 -95 -98.5t-96 -32.5q-44 0 -71 33t-27 90q0 24 6.5 62.5t24.5 109.5q-92 -169 -151 -232t-118 -63q-36 0 -56.5 22.5t-20.5 61.5q0 16 3.5 36.5t12.5 53.5l53 188q3 10 4.5 20t1.5 17q0 12 -5 18.5t-15 6.5q-14 0 -41.5 -27t-65.5 -78l-24 17q55 72 96.5 107.5
t71.5 35.5q22 0 35.5 -17t13.5 -47q0 -12 -2.5 -27.5t-7.5 -33.5l-66 -236q0 -1 -1 -5q-7 -27 -7 -38q0 -20 9 -31.5t26 -11.5q54 0 132 110.5t167 313.5h57z" />
    <glyph glyph-name="x" unicode="x" horiz-adv-x="621" 
d="M436 102l19 -22q-47 -46 -88 -70t-74 -24q-38 0 -60 19.5t-28 57.5l-15 109q-81 -109 -130.5 -147.5t-100.5 -38.5q-33 0 -52.5 14.5t-19.5 38.5q0 21 13 35t30 14q3 0 9 -1.5t14 -4.5l-2 -4q-6 -12 -6 -19q0 -17 12 -26.5t33 -9.5q28 0 69 38.5t125 151.5l-20 139
q-6 39 -20.5 58.5t-37.5 19.5q-18 0 -45.5 -15t-66.5 -46l-19 22q47 40 82.5 57t69.5 17q48 0 77.5 -44t35.5 -124q63 90 113.5 129t101.5 39q25 0 40 -13.5t15 -35.5t-14.5 -34.5t-38.5 -12.5h-12q5 9 7.5 16.5t2.5 13.5q0 13 -8 21t-21 8q-29 0 -76.5 -44.5t-103.5 -125.5
l20 -149q7 -45 19 -64.5t32 -19.5t52.5 21t66.5 56z" />
    <glyph glyph-name="y" unicode="y" horiz-adv-x="702" 
d="M-20 305l-23 17q58 76 97 109.5t69 33.5q22 0 36.5 -17.5t14.5 -44.5q0 -8 -3 -24.5t-9 -38.5l-58 -197q-2 -9 -4 -22.5t-2 -24.5q0 -25 14 -40t38 -15q71 0 154 111.5t147 298.5l65 10l-121 -434q51 36 79 60.5t44 45.5l21 -20q-26 -30 -64.5 -61t-91.5 -64
q-54 -152 -125.5 -226.5t-161.5 -74.5q-37 0 -61.5 21t-24.5 54q0 56 72 108.5t242 119.5l63 248q-52 -110 -123 -174t-137 -64q-42 0 -67 26t-25 70q0 11 2 23.5t8 34.5l55 194q1 4 4 13q5 19 5 24q0 11 -6 18t-15 7q-16 0 -43.5 -26.5t-64.5 -78.5zM315 -43
q-156 -66 -216 -108.5t-60 -84.5q0 -22 16.5 -35.5t44.5 -13.5q77 0 133.5 63.5t81.5 178.5z" />
    <glyph glyph-name="z" unicode="z" horiz-adv-x="668" 
d="M365 387q17 -6 31.5 -9t27.5 -3q21 0 33 6.5t12 17.5q0 9 -7.5 14t-21.5 5q-19 0 -38.5 -8t-36.5 -23zM-43 -18l-18 22l36 27q65 94 136.5 172.5t154.5 146.5q-2 1 -5 3q-135 71 -183 71q-23 0 -37 -12.5t-14 -32.5q0 -13 6.5 -22t15.5 -9t15 8t6 21q8 -7 12 -13t4 -12
q0 -20 -11 -32.5t-28 -12.5q-21 0 -37 19t-16 47q0 39 33 65.5t84 26.5q36 0 83.5 -14.5t133.5 -53.5q36 24 64.5 36.5t47.5 12.5q27 0 41.5 -11t14.5 -32q0 -33 -34.5 -55t-86.5 -22q-25 0 -43 3t-33 9q-95 -79 -156.5 -144t-109.5 -134q7 2 22 8q69 28 117 28t111 -31.5
t88 -31.5q27 0 45 16.5t18 40.5q0 21 -15 33t-40 12q-10 0 -20.5 -1.5t-22.5 -4.5l-6 28q16 4 29.5 5.5t19.5 1.5q40 0 62 -20t22 -56q0 -46 -34 -74t-91 -28q-41 0 -118.5 28.5t-117.5 28.5q-20 0 -39 -3.5t-36 -10.5z" />
    <glyph glyph-name="braceleft" unicode="{" 
d="M844 1516v-47q-153 -2 -207.5 -55t-54.5 -210v-147q0 -225 -64.5 -308t-238.5 -114q174 -30 238.5 -112.5t64.5 -309.5v-147q0 -157 54.5 -210t207.5 -55v-45h-10q-213 0 -293 73t-80 273v222q0 154 -59.5 212.5t-225.5 71.5v56q169 15 227 72.5t58 211.5v221
q0 200 80 273.5t293 73.5h10z" />
    <glyph glyph-name="bar" unicode="|" 
d="M467 1565h90v-2048h-90v2048z" />
    <glyph glyph-name="braceright" unicode="}" 
d="M178 1516h10q214 0 294.5 -74t80.5 -273v-221q0 -155 58 -212t227 -72v-56q-166 -13 -225.5 -71.5t-59.5 -212.5v-222q0 -198 -80.5 -272t-294.5 -74h-10v45q154 2 209 55t55 210v147q0 226 64 308t239 114q-174 31 -238.5 114t-64.5 308v147q0 156 -55 209.5t-209 55.5
v47z" />
    <glyph glyph-name="asciitilde" unicode="~" horiz-adv-x="1706" 
d="M1530 739v-92q-106 -74 -202 -110.5t-185 -36.5q-99 0 -266 61q-16 6 -22 8q-12 4 -33 12q-167 60 -257 60q-83 0 -175 -37.5t-212 -122.5v92q105 74 201 110t186 36q100 0 271 -61q12 -5 19 -7l27 -10q168 -61 261 -61q83 0 175 37.5t212 121.5z" />
    <glyph glyph-name="Adieresis" unicode="&#xc4;" horiz-adv-x="1892" 
d="M936 735q64 -1 120.5 -19t106.5 -52q50 34 114.5 50.5t149.5 16.5q54 0 118 -11q5 -1 7 -1q16 61 23.5 119t7.5 110q0 114 -37 205.5t-119 177.5q-171 -103 -292.5 -250t-198.5 -346zM1157 625q-29 -28 -43 -52.5t-14 -48.5q0 -20 10 -31.5t27 -11.5q19 0 35 20t16 48
q0 18 -7.5 36.5t-23.5 39.5zM1714 180l25 -12q-50 -88 -106.5 -137t-104.5 -49q-45 0 -69.5 38.5t-24.5 108.5q0 74 63 343q32 138 49 218q-25 7 -55.5 11t-63.5 4q-81 0 -140 -15.5t-103 -48.5q16 -25 24.5 -48t8.5 -44q0 -44 -23.5 -70t-60.5 -26q-28 0 -46 20.5t-18 52.5
q0 29 16.5 58.5t51.5 62.5q-45 30 -97 45t-108 15h-10q-173 -363 -361.5 -547.5t-388.5 -184.5q-111 0 -186.5 45.5t-75.5 108.5q0 29 18.5 48.5t44.5 19.5q27 0 43.5 -13.5t16.5 -36.5q0 -2 -2 -7.5t-6 -14.5q-6 10 -11.5 13t-17.5 3q-16 0 -25.5 -10t-9.5 -27
q0 -38 62 -69t149 -31q177 0 316 140t341 558q-63 -10 -120.5 -28.5t-110.5 -44.5l-12 26q69 34 133 53t127 25q107 216 244.5 369.5t314.5 255.5q-87 73 -197.5 109t-246.5 36q-170 0 -318 -64t-274 -192q-117 -118 -179.5 -263t-62.5 -298q0 -98 26.5 -192.5t79.5 -188.5
l-24 -16q-63 108 -94 216t-31 218q0 143 51 274t150 240q126 140 304 217.5t374 77.5q141 0 259 -39.5t216 -120.5q45 24 99.5 46t121.5 44l12 -26q-70 -25 -120.5 -46.5t-88.5 -41.5q101 -101 146 -210t45 -253q0 -42 -5 -88t-13 -95q20 -6 43 -16t51 -24l-11 -27
q-25 12 -47 21t-41 15l-55 -231q-70 -289 -70 -338q0 -39 11.5 -56t35.5 -17q32 0 79 42t83 109zM1327 1743q0 25 16 41t42 16q14 0 24 -11t10 -28q0 -26 -14 -42.5t-37 -16.5q-19 0 -30 11t-11 30zM1567 1743q0 25 16 41t41 16q15 0 25 -11t10 -28q0 -26 -15 -42.5
t-38 -16.5q-19 0 -29 10.5t-10 30.5z" />
    <glyph glyph-name="Aring" unicode="&#xc5;" horiz-adv-x="1892" 
d="M1399 1690q0 -34 21 -55t55 -21q32 0 53.5 21.5t21.5 54.5q0 30 -22.5 52.5t-52.5 22.5q-33 0 -54.5 -21.5t-21.5 -53.5zM1364 1690q0 46 32 78t79 32q45 0 77.5 -32.5t32.5 -77.5q0 -46 -32.5 -78.5t-77.5 -32.5q-47 0 -79 32t-32 79zM1714 180l25 -12
q-50 -88 -106.5 -137t-104.5 -49q-45 0 -69.5 38.5t-24.5 108.5q0 74 63 343q32 138 49 218q-25 7 -55.5 11t-63.5 4q-81 0 -140 -15.5t-103 -48.5q16 -25 24.5 -48t8.5 -44q0 -44 -23.5 -70t-60.5 -26q-28 0 -46 20.5t-18 52.5q0 29 16.5 58.5t51.5 62.5q-45 30 -97 45
t-108 15h-10q-173 -363 -361.5 -547.5t-388.5 -184.5q-111 0 -186.5 45.5t-75.5 108.5q0 29 18.5 48.5t44.5 19.5q27 0 43.5 -13.5t16.5 -36.5q0 -2 -2 -7.5t-6 -14.5q-6 10 -11.5 13t-17.5 3q-16 0 -25.5 -10t-9.5 -27q0 -38 62 -69t149 -31q177 0 316 140t341 558
q-63 -10 -120.5 -28.5t-110.5 -44.5l-12 26q69 34 133 53t127 25q107 216 244.5 369.5t314.5 255.5q-87 73 -197.5 109t-246.5 36q-170 0 -318 -64t-274 -192q-117 -118 -179.5 -263t-62.5 -298q0 -98 26.5 -192.5t79.5 -188.5l-24 -16q-63 108 -94 216t-31 218
q0 143 51 274t150 240q126 140 304 217.5t374 77.5q141 0 259 -39.5t216 -120.5q45 24 99.5 46t121.5 44l12 -26q-70 -25 -120.5 -46.5t-88.5 -41.5q101 -101 146 -210t45 -253q0 -42 -5 -88t-13 -95q20 -6 43 -16t51 -24l-11 -27q-25 12 -47 21t-41 15l-55 -231
q-70 -289 -70 -338q0 -39 11.5 -56t37.5 -17q30 0 77 42.5t83 108.5zM936 735q64 -1 120.5 -19t106.5 -52q50 34 114.5 50.5t149.5 16.5q54 0 118 -11q5 -1 7 -1q16 61 23.5 119t7.5 110q0 114 -37 205.5t-119 177.5q-171 -103 -292.5 -250t-198.5 -346zM1157 625
q-29 -28 -43 -52.5t-14 -48.5q0 -20 10 -31.5t27 -11.5q19 0 35 20t16 48q0 18 -7.5 36.5t-23.5 39.5z" />
    <glyph glyph-name="Ccedilla" unicode="&#xc7;" horiz-adv-x="1270" 
d="M1116 332l21 -21q-137 -157 -297 -241t-324 -84q-207 0 -326.5 137.5t-119.5 376.5q0 159 55.5 314t165.5 300q150 200 335.5 314t354.5 114q153 0 243.5 -87.5t90.5 -233.5q0 -143 -69.5 -284t-192.5 -249q-75 -66 -155 -101.5t-153 -35.5q-98 0 -158.5 62.5
t-60.5 164.5q0 143 98 258.5t269 173.5l10 -26q-149 -50 -234 -162t-85 -256q0 -88 46.5 -136t131.5 -48q59 0 131 33.5t137 93.5q105 95 161 225t56 276q0 143 -68 224.5t-188 81.5t-247.5 -58.5t-233.5 -163.5q-165 -160 -257.5 -374t-92.5 -435q0 -233 96 -352t285 -119
q138 0 296.5 86.5t278.5 231.5zM528 0l-45 -92q6 0 16 1q27 3 35 3q51 0 78 -19.5t27 -56.5q0 -41 -41 -67.5t-107 -26.5q-71 0 -132.5 19t-61.5 32q0 5 2.5 7.5t7.5 2.5q9 0 63 -13t97 -13q45 0 74.5 16t29.5 39q0 22 -17 33.5t-49 11.5q-20 0 -30 -1t-19 -3l-28 8l67 119
h33z" />
    <glyph glyph-name="Eacute" unicode="&#xc9;" horiz-adv-x="1366" 
d="M440 354l-26 8q49 186 173 298t277 112q149 0 241.5 -87.5t92.5 -225.5q0 -195 -173 -334t-419 -139q-252 0 -408.5 122.5t-156.5 315.5q0 158 111 283.5t313 195.5q54 19 135 40q77 20 78 36q0 15 -51 25q-25 4 -42 8q-67 15 -108 67t-41 123q0 141 125.5 236.5
t315.5 95.5q121 0 204.5 -57t83.5 -136q0 -33 -15.5 -54t-39.5 -21q-19 0 -31 13.5t-12 35.5q0 7 0.5 11t1.5 7q4 -1 10 -3q13 -5 17 -5q13 0 20.5 9.5t7.5 25.5q0 56 -73 100.5t-181 44.5q-152 0 -255 -94.5t-103 -226.5q0 -62 24.5 -98t76.5 -50q10 -3 29 -7
q63 -14 63 -50t-97 -64q-54 -16 -90 -28q-194 -66 -291.5 -187.5t-97.5 -296.5q0 -181 124.5 -285t342.5 -104q235 0 404 129.5t169 294.5q0 132 -83 211.5t-220 79.5q-155 0 -266 -97.5t-160 -277.5zM842 1624q-5 0 -8.5 2.5t-3.5 7.5q0 6 45.5 30t77.5 61q7 8 31 55t53 47
q24 0 35.5 -9t11.5 -28q0 -46 -96.5 -106t-145.5 -60z" />
    <glyph glyph-name="Ntilde" unicode="&#xd1;" horiz-adv-x="1843" 
d="M692 2l129 494q54 204 83.5 359t29.5 232q0 193 -88.5 303.5t-239.5 110.5q-205 0 -356.5 -191t-151.5 -462q0 -209 104.5 -372.5t307.5 -270.5l-14 -27q-209 112 -317.5 281.5t-108.5 386.5q0 285 160 484.5t378 199.5q179 0 290.5 -118t111.5 -310q0 -144 -158 -786
l-41 -169l134 309q388 896 579 896q72 0 117 -49t45 -129q0 -36 -7 -81.5t-20 -93.5l-217 -849q-4 -16 -6 -31.5t-2 -32.5q0 -33 14 -52.5t39 -19.5q34 0 75 44t85 128l24 -14q-54 -107 -102.5 -153t-108.5 -46q-48 0 -76 33.5t-28 91.5q0 20 5 51.5t15 69.5l213 836
q12 47 17.5 82t5.5 63q0 55 -27.5 87t-75.5 32q-164 0 -625 -1077l-102 -238q-10 -10 -21 -14t-28 -4q-20 0 -27.5 3.5t-13.5 12.5zM1479 1778q37 0 108.5 -19.5t108.5 -19.5t60.5 25.5t29.5 25.5q8 0 11 -1.5t4 -6.5q0 -32 -37.5 -67.5t-89.5 -35.5q-38 0 -110 20.5
t-108 20.5t-59 -25.5t-33 -25.5q-5 0 -8.5 2.5t-3.5 5.5q0 30 38 65.5t89 35.5z" />
    <glyph glyph-name="Odieresis" unicode="&#xd6;" horiz-adv-x="1579" 
d="M1020 964q-9 -155 -81 -245t-185 -90q-112 0 -186 89t-74 226q0 94 36 187.5t103 171.5q-216 -67 -348.5 -262.5t-132.5 -446.5q0 -250 139.5 -415t351.5 -165q121 0 252 59.5t246 166.5q146 138 223.5 316t77.5 376q0 244 -118 407.5t-288 163.5q-80 0 -161.5 -39.5
t-159.5 -115.5q19 5 40 7.5t44 2.5q18 0 32 -0.5t29 -2.5v-28q-8 0 -24 1t-25 1q-33 0 -65.5 -4t-67.5 -12q-74 -82 -114 -177t-40 -192q0 -125 65.5 -206t164.5 -81q101 0 164.5 82t72.5 225h29zM662 1337q100 100 192.5 147.5t183.5 47.5q207 0 339 -164.5t132 -423.5
q0 -189 -91.5 -384t-248.5 -337q-128 -118 -265.5 -177.5t-278.5 -59.5q-249 0 -402 164t-153 434q0 264 166 476t426 277zM913 1743q0 25 16 41t42 16q14 0 24 -11t10 -28q0 -26 -14 -42.5t-37 -16.5q-19 0 -30 11t-11 30zM1153 1743q0 25 16 41t41 16q15 0 25 -11t10 -28
q0 -26 -15 -42.5t-38 -16.5q-19 0 -29 10.5t-10 30.5z" />
    <glyph glyph-name="Udieresis" unicode="&#xdc;" horiz-adv-x="2048" 
d="M1847 211l25 -14q-62 -106 -123 -158.5t-121 -52.5q-56 0 -84 43t-28 127q0 151 45.5 338t134.5 399q74 177 165 325l91 148q0 7 -6 11.5t-15 4.5q-41 0 -138 -129.5t-181 -316.5q-29 -64 -109 -270t-145 -322q-104 -184 -219.5 -274t-247.5 -90q-116 0 -183 65t-67 178
q0 95 112 386l17 44l64 166q116 296 116 391q0 126 -81 209.5t-201 83.5q-114 0 -213 -51t-185 -154q-82 -99 -127 -225t-45 -260q0 -210 107 -361t282 -188l-2 -26q-193 43 -304 199.5t-111 387.5q0 131 46 260.5t130 231.5q89 107 195 161t231 54q157 0 256.5 -101
t99.5 -262q0 -103 -114 -382q-25 -60 -37 -93l-31 -75q-146 -363 -146 -443q0 -77 50.5 -122.5t136.5 -45.5q102 0 195 58t178 176q103 143 225 461l51 128q105 256 219 418t178 162q19 0 33 -13t14 -30q0 -19 -51.5 -101t-87.5 -151q-68 -128 -118 -279.5t-83 -328.5
q-21 -111 -33 -204.5t-12 -145.5q0 -61 18 -90t54 -29q40 0 84 42t96 130zM1272 1743q0 25 16 41t42 16q14 0 24 -11t10 -28q0 -26 -14 -42.5t-37 -16.5q-19 0 -30 11t-11 30zM1512 1743q0 25 16 41t41 16q15 0 25 -11t10 -28q0 -26 -15 -42.5t-38 -16.5q-19 0 -29 10.5
t-10 30.5z" />
    <glyph glyph-name="aacute" unicode="&#xe1;" horiz-adv-x="678" 
d="M326 141l61 226q-26 32 -58.5 49.5t-64.5 17.5q-93 0 -169.5 -84.5t-76.5 -189.5q0 -61 34.5 -100.5t86.5 -39.5q44 0 93.5 32t93.5 89zM319 92q-44 -52 -96 -79t-108 -27q-70 0 -118 51t-48 129q0 115 95.5 207t215.5 92q34 0 68 -15.5t69 -46.5l13 50l69 14l-94 -346
q-5 -19 -7.5 -35t-2.5 -31q0 -12 6.5 -20t15.5 -8q21 0 51.5 28t67.5 82l23 -16q-41 -64 -83.5 -99.5t-76.5 -35.5q-28 0 -45 19t-17 50q0 15 0.5 22.5t1.5 14.5zM272 557q-5 0 -8.5 2.5t-3.5 7.5q0 6 45.5 30t77.5 61q7 8 31 55t53 47q24 0 35.5 -9t11.5 -28
q0 -46 -96.5 -106t-145.5 -60z" />
    <glyph glyph-name="agrave" unicode="&#xe0;" horiz-adv-x="678" 
d="M326 141l61 226q-26 32 -58.5 49.5t-64.5 17.5q-93 0 -169.5 -84.5t-76.5 -189.5q0 -61 34.5 -100.5t86.5 -39.5q44 0 93.5 32t93.5 89zM319 92q-44 -52 -96 -79t-108 -27q-70 0 -118 51t-48 129q0 115 95.5 207t215.5 92q34 0 68 -15.5t69 -46.5l13 50l69 14l-94 -346
q-5 -19 -7.5 -35t-2.5 -31q0 -12 6.5 -20t15.5 -8q21 0 51.5 28t67.5 82l23 -16q-41 -64 -83.5 -99.5t-76.5 -35.5q-28 0 -45 19t-17 50q0 15 0.5 22.5t1.5 14.5zM407 567q0 -4 -3 -6t-9 -2q-48 0 -145 59.5t-97 104.5q0 18 12.5 27.5t36.5 9.5q29 0 51.5 -46.5t30.5 -55.5
q31 -36 77 -60.5t46 -30.5z" />
    <glyph glyph-name="acircumflex" unicode="&#xe2;" horiz-adv-x="678" 
d="M326 141l61 226q-26 32 -58.5 49.5t-64.5 17.5q-93 0 -169.5 -84.5t-76.5 -189.5q0 -61 34.5 -100.5t86.5 -39.5q44 0 93.5 32t93.5 89zM319 92q-44 -52 -96 -79t-108 -27q-70 0 -118 51t-48 129q0 115 95.5 207t215.5 92q34 0 68 -15.5t69 -46.5l13 50l69 14l-94 -346
q-5 -19 -7.5 -35t-2.5 -31q0 -12 6.5 -20t15.5 -8q21 0 51.5 28t67.5 82l23 -16q-41 -64 -83.5 -99.5t-76.5 -35.5q-28 0 -45 19t-17 50q0 15 0.5 22.5t1.5 14.5zM333 676q-64 -51 -127.5 -84t-87.5 -33q-6 0 -11 2.5t-5 5.5q0 6 34 28q37 23 64 42q51 35 97 83t53 48
q10 0 26 -33q13 -26 23 -43q22 -39 51 -78t29 -43q-1 -5 -5 -8.5t-10 -3.5q-12 0 -44 28.5t-87 88.5z" />
    <glyph glyph-name="adieresis" unicode="&#xe4;" horiz-adv-x="678" 
d="M326 141l61 226q-26 32 -58.5 49.5t-64.5 17.5q-93 0 -169.5 -84.5t-76.5 -189.5q0 -61 34.5 -100.5t86.5 -39.5q44 0 93.5 32t93.5 89zM319 92q-44 -52 -96 -79t-108 -27q-70 0 -118 51t-48 129q0 115 95.5 207t215.5 92q34 0 68 -15.5t69 -46.5l13 50l69 14l-94 -346
q-5 -19 -7.5 -35t-2.5 -31q0 -12 6.5 -20t15.5 -8q21 0 51.5 28t67.5 82l23 -16q-41 -64 -83.5 -99.5t-76.5 -35.5q-28 0 -45 19t-17 50q0 15 0.5 22.5t1.5 14.5zM159 676q0 25 16 41t42 16q14 0 24 -11t10 -28q0 -26 -14 -42.5t-37 -16.5q-19 0 -30 11t-11 30zM399 676
q0 25 16 41t41 16q15 0 25 -11t10 -28q0 -26 -15 -42.5t-38 -16.5q-19 0 -29 10.5t-10 30.5z" />
    <glyph glyph-name="atilde" unicode="&#xe3;" horiz-adv-x="678" 
d="M326 141l61 226q-26 32 -58.5 49.5t-64.5 17.5q-93 0 -169.5 -84.5t-76.5 -189.5q0 -61 34.5 -100.5t86.5 -39.5q44 0 93.5 32t93.5 89zM319 92q-44 -52 -96 -79t-108 -27q-70 0 -118 51t-48 129q0 115 95.5 207t215.5 92q34 0 68 -15.5t69 -46.5l13 50l69 14l-94 -346
q-5 -19 -7.5 -35t-2.5 -31q0 -12 6.5 -20t15.5 -8q21 0 51.5 28t67.5 82l23 -16q-41 -64 -83.5 -99.5t-76.5 -35.5q-28 0 -45 19t-17 50q0 15 0.5 22.5t1.5 14.5zM231 711q37 0 108.5 -19.5t108.5 -19.5t60.5 25.5t29.5 25.5q8 0 11 -1.5t4 -6.5q0 -32 -37.5 -67.5
t-89.5 -35.5q-38 0 -110 20.5t-108 20.5t-59 -25.5t-33 -25.5q-5 0 -8.5 2.5t-3.5 5.5q0 30 38 65.5t89 35.5z" />
    <glyph glyph-name="aring" unicode="&#xe5;" horiz-adv-x="678" 
d="M166 625q0 45 32 76.5t78 31.5t78.5 -32t32.5 -76q0 -46 -33 -79.5t-78 -33.5q-46 0 -78 32.5t-32 80.5zM201 625q0 -35 21 -56.5t54 -21.5q32 0 54 22.5t22 55.5q0 30 -22 51.5t-54 21.5t-53.5 -20.5t-21.5 -52.5zM326 141l63 226q-28 32 -60.5 49.5t-64.5 17.5
q-93 0 -169.5 -84.5t-76.5 -189.5q0 -61 34.5 -100.5t86.5 -39.5q44 0 93.5 32t93.5 89zM319 92q-44 -52 -96 -79t-108 -27q-70 0 -118 51t-48 129q0 115 95.5 207t215.5 92q34 0 68 -15.5t69 -46.5l13 50l69 14l-94 -346q-5 -19 -7.5 -35t-2.5 -31q0 -13 7 -24t15 -11
q19 0 48.5 29.5t70.5 87.5l23 -16q-41 -64 -83.5 -99.5t-76.5 -35.5q-28 0 -45 19t-17 50q0 15 0.5 22.5t1.5 14.5z" />
    <glyph glyph-name="ccedilla" unicode="&#xe7;" horiz-adv-x="502" 
d="M311 117l21 -23q-50 -53 -108.5 -80.5t-119.5 -27.5q-68 0 -111.5 47.5t-43.5 126.5q0 110 97 207.5t210 97.5q52 0 82.5 -21t30.5 -57q0 -25 -13.5 -42t-31.5 -17q-4 0 -7.5 1t-11.5 5q11 12 17 24t6 23q0 25 -21 40t-57 15q-80 0 -156 -92t-76 -197q0 -56 32 -90
t83 -34q42 0 90.5 25t87.5 69zM125 0l-45 -92q6 0 16 1q27 3 35 3q51 0 78 -19.5t27 -56.5q0 -41 -41 -67.5t-107 -26.5q-71 0 -132.5 19t-61.5 32q0 5 2.5 7.5t7.5 2.5q9 0 63 -13t97 -13q45 0 74.5 16t29.5 39q0 22 -17 33.5t-49 11.5q-20 0 -30 -1t-19 -3l-28 8l67 119
h33z" />
    <glyph glyph-name="eacute" unicode="&#xe9;" horiz-adv-x="530" 
d="M29 211q127 10 200.5 53.5t73.5 106.5q0 27 -18 45t-45 18q-72 0 -131.5 -62t-79.5 -161zM25 182q0 -1 -1 -6.5t-1 -9.5v-16q0 -65 28 -95t88 -30q44 0 87.5 19t92.5 60l21 -20q-53 -47 -111.5 -72.5t-111.5 -25.5q-79 0 -123.5 45t-44.5 125q0 111 94.5 210t210.5 99
q45 0 74.5 -27t29.5 -67q0 -72 -88.5 -122.5t-244.5 -66.5zM203 557q-5 0 -8.5 2.5t-3.5 7.5q0 6 45.5 30t77.5 61q7 8 31 55t53 47q24 0 35.5 -9t11.5 -28q0 -46 -96.5 -106t-145.5 -60z" />
    <glyph glyph-name="egrave" unicode="&#xe8;" horiz-adv-x="530" 
d="M29 211q127 10 200.5 53.5t73.5 106.5q0 27 -18 45t-45 18q-72 0 -131.5 -62t-79.5 -161zM25 182q0 -1 -1 -6.5t-1 -9.5v-16q0 -65 28 -95t88 -30q44 0 87.5 19t92.5 60l21 -20q-53 -47 -111.5 -72.5t-111.5 -25.5q-79 0 -123.5 45t-44.5 125q0 111 94.5 210t210.5 99
q45 0 74.5 -27t29.5 -67q0 -72 -88.5 -122.5t-244.5 -66.5zM338 567q0 -4 -3 -6t-9 -2q-48 0 -145 59.5t-97 104.5q0 18 12.5 27.5t36.5 9.5q29 0 51.5 -46.5t30.5 -55.5q31 -36 77 -60.5t46 -30.5z" />
    <glyph glyph-name="ecircumflex" unicode="&#xea;" horiz-adv-x="530" 
d="M29 211q127 10 200.5 53.5t73.5 106.5q0 27 -18 45t-45 18q-72 0 -131.5 -62t-79.5 -161zM25 182q0 -1 -1 -6.5t-1 -9.5v-16q0 -65 28 -95t88 -30q44 0 87.5 19t92.5 60l21 -20q-53 -47 -111.5 -72.5t-111.5 -25.5q-79 0 -123.5 45t-44.5 125q0 111 94.5 210t210.5 99
q45 0 74.5 -27t29.5 -67q0 -72 -88.5 -122.5t-244.5 -66.5zM264 676q-64 -51 -127.5 -84t-87.5 -33q-6 0 -11 2.5t-5 5.5q0 6 34 28q37 23 64 42q51 35 97 83t53 48q10 0 26 -33q13 -26 23 -43q22 -39 51 -78t29 -43q-1 -5 -5 -8.5t-10 -3.5q-12 0 -44 28.5t-87 88.5z" />
    <glyph glyph-name="edieresis" unicode="&#xeb;" horiz-adv-x="530" 
d="M29 211q127 10 200.5 53.5t73.5 106.5q0 27 -18 45t-45 18q-72 0 -131.5 -62t-79.5 -161zM25 182q0 -1 -1 -6.5t-1 -9.5v-16q0 -65 28 -95t88 -30q44 0 87.5 19t92.5 60l21 -20q-53 -47 -111.5 -72.5t-111.5 -25.5q-79 0 -123.5 45t-44.5 125q0 111 94.5 210t210.5 99
q45 0 74.5 -27t29.5 -67q0 -72 -88.5 -122.5t-244.5 -66.5zM90 676q0 25 16 41t42 16q14 0 24 -11t10 -28q0 -26 -14 -42.5t-37 -16.5q-19 0 -30 11t-11 30zM330 676q0 25 16 41t41 16q15 0 25 -11t10 -28q0 -26 -15 -42.5t-38 -16.5q-19 0 -29 10.5t-10 30.5z" />
    <glyph glyph-name="iacute" unicode="&#xed;" horiz-adv-x="426" 
d="M125 125q-8 -27 -11 -43.5t-3 -26.5q0 -16 8.5 -23t25.5 -7q18 0 54.5 28.5t72.5 73.5l23 -18q-56 -66 -97 -94.5t-79 -28.5q-33 0 -54.5 21t-21.5 52q0 14 11 55q6 23 9 37l45 178l5 18q8 34 8 46q0 13 -7 22t-18 9q-20 0 -49 -27.5t-67 -83.5l-23 17q47 71 87 103
t81 32q28 0 45.5 -19.5t17.5 -50.5q0 -26 -12 -70q-3 -11 -4 -16zM168 557q-5 0 -8.5 2.5t-3.5 7.5q0 6 45.5 30t77.5 61q7 8 31 55t53 47q24 0 35.5 -9t11.5 -28q0 -46 -96.5 -106t-145.5 -60z" />
    <glyph glyph-name="igrave" unicode="&#xec;" horiz-adv-x="426" 
d="M125 125q-8 -27 -11 -43.5t-3 -26.5q0 -16 8.5 -23t25.5 -7q18 0 54.5 28.5t72.5 73.5l23 -18q-56 -66 -97 -94.5t-79 -28.5q-33 0 -54.5 21t-21.5 52q0 14 11 55q6 23 9 37l45 178l5 18q8 34 8 46q0 13 -7 22t-18 9q-20 0 -49 -27.5t-67 -83.5l-23 17q47 71 87 103
t81 32q28 0 45.5 -19.5t17.5 -50.5q0 -26 -12 -70q-3 -11 -4 -16zM303 567q0 -4 -3 -6t-9 -2q-48 0 -145 59.5t-97 104.5q0 18 12.5 27.5t36.5 9.5q29 0 51.5 -46.5t30.5 -55.5q31 -36 77 -60.5t46 -30.5z" />
    <glyph glyph-name="icircumflex" unicode="&#xee;" horiz-adv-x="426" 
d="M125 125q-8 -27 -11 -43.5t-3 -26.5q0 -16 8.5 -23t25.5 -7q18 0 54.5 28.5t72.5 73.5l23 -18q-56 -66 -97 -94.5t-79 -28.5q-33 0 -54.5 21t-21.5 52q0 14 11 55q6 23 9 37l45 178l5 18q8 34 8 46q0 13 -7 22t-18 9q-20 0 -49 -27.5t-67 -83.5l-23 17q47 71 87 103
t81 32q28 0 45.5 -19.5t17.5 -50.5q0 -26 -12 -70q-3 -11 -4 -16zM229 676q-64 -51 -127.5 -84t-87.5 -33q-6 0 -11 2.5t-5 5.5q0 6 34 28q37 23 64 42q51 35 97 83t53 48q10 0 26 -33q13 -26 23 -43q22 -39 51 -78t29 -43q-1 -5 -5 -8.5t-10 -3.5q-12 0 -44 28.5t-87 88.5z
" />
    <glyph glyph-name="idieresis" unicode="&#xef;" horiz-adv-x="426" 
d="M125 125q-8 -27 -11 -43.5t-3 -26.5q0 -16 8.5 -23t25.5 -7q18 0 54.5 28.5t72.5 73.5l23 -18q-56 -66 -97 -94.5t-79 -28.5q-33 0 -54.5 21t-21.5 52q0 14 11 55q6 23 9 37l45 178l5 18q8 34 8 46q0 13 -7 22t-18 9q-20 0 -49 -27.5t-67 -83.5l-23 17q47 71 87 103
t81 32q28 0 45.5 -19.5t17.5 -50.5q0 -26 -12 -70q-3 -11 -4 -16zM55 676q0 25 16 41t42 16q14 0 24 -11t10 -28q0 -26 -14 -42.5t-37 -16.5q-19 0 -30 11t-11 30zM295 676q0 25 16 41t41 16q15 0 25 -11t10 -28q0 -26 -15 -42.5t-38 -16.5q-19 0 -29 10.5t-10 30.5z" />
    <glyph glyph-name="ntilde" unicode="&#xf1;" horiz-adv-x="725" 
d="M16 -14l42 170q51 206 51 227q0 12 -6 19.5t-15 7.5q-16 0 -44 -27t-64 -78l-23 17q55 72 96.5 107.5t71.5 35.5q23 0 34 -15.5t11 -48.5q0 -41 -59 -275l-4 -19q108 185 185.5 271.5t135.5 86.5q33 0 51.5 -20.5t18.5 -57.5q0 -16 -3.5 -35.5t-9.5 -40.5l-51 -190
q0 -1 -1 -5q-11 -40 -11 -61q0 -12 6.5 -20t15.5 -8q21 0 51.5 28t67.5 82l23 -16q-44 -66 -86 -100.5t-78 -34.5q-28 0 -46 19.5t-18 49.5q0 29 13 74l4 12l53 197q1 3 3 11q7 26 7 42q0 18 -7.5 27.5t-20.5 9.5q-45 0 -132.5 -113t-201.5 -319zM246 711q37 0 108.5 -19.5
t108.5 -19.5t60.5 25.5t29.5 25.5q8 0 11 -1.5t4 -6.5q0 -32 -37.5 -67.5t-89.5 -35.5q-38 0 -110 20.5t-108 20.5t-59 -25.5t-33 -25.5q-5 0 -8.5 2.5t-3.5 5.5q0 30 38 65.5t89 35.5z" />
    <glyph glyph-name="oacute" unicode="&#xf3;" horiz-adv-x="621" 
d="M399 307q0 58 -33.5 93.5t-86.5 35.5q-98 0 -180.5 -90t-82.5 -196q0 -63 36 -99.5t98 -36.5q91 0 170 93.5t79 199.5zM463 293q0 -118 -95 -212.5t-218 -94.5q-93 0 -147 49.5t-54 134.5q0 117 100.5 206t231.5 89q85 0 133.5 -45.5t48.5 -126.5zM266 557q-5 0 -8.5 2.5
t-3.5 7.5q0 6 45.5 30t77.5 61q7 8 31 55t53 47q24 0 35.5 -9t11.5 -28q0 -46 -96.5 -106t-145.5 -60z" />
    <glyph glyph-name="ograve" unicode="&#xf2;" horiz-adv-x="621" 
d="M399 307q0 58 -33.5 93.5t-86.5 35.5q-98 0 -180.5 -90t-82.5 -196q0 -63 36 -99.5t98 -36.5q91 0 170 93.5t79 199.5zM463 293q0 -118 -95 -212.5t-218 -94.5q-93 0 -147 49.5t-54 134.5q0 117 100.5 206t231.5 89q85 0 133.5 -45.5t48.5 -126.5zM401 567q0 -4 -3 -6
t-9 -2q-48 0 -145 59.5t-97 104.5q0 18 12.5 27.5t36.5 9.5q29 0 51.5 -46.5t30.5 -55.5q31 -36 77 -60.5t46 -30.5z" />
    <glyph glyph-name="ocircumflex" unicode="&#xf4;" horiz-adv-x="621" 
d="M399 307q0 58 -33.5 93.5t-86.5 35.5q-98 0 -180.5 -90t-82.5 -196q0 -63 36 -99.5t98 -36.5q91 0 170 93.5t79 199.5zM463 293q0 -118 -95 -212.5t-218 -94.5q-93 0 -147 49.5t-54 134.5q0 117 100.5 206t231.5 89q85 0 133.5 -45.5t48.5 -126.5zM327 676
q-64 -51 -127.5 -84t-87.5 -33q-6 0 -11 2.5t-5 5.5q0 6 34 28q37 23 64 42q51 35 97 83t53 48q10 0 26 -33q13 -26 23 -43q22 -39 51 -78t29 -43q-1 -5 -5 -8.5t-10 -3.5q-12 0 -44 28.5t-87 88.5z" />
    <glyph glyph-name="odieresis" unicode="&#xf6;" horiz-adv-x="621" 
d="M399 307q0 58 -33.5 93.5t-86.5 35.5q-98 0 -180.5 -90t-82.5 -196q0 -63 36 -99.5t98 -36.5q91 0 170 93.5t79 199.5zM463 293q0 -118 -95 -212.5t-218 -94.5q-93 0 -147 49.5t-54 134.5q0 117 100.5 206t231.5 89q85 0 133.5 -45.5t48.5 -126.5zM153 676q0 25 16 41
t42 16q14 0 24 -11t10 -28q0 -26 -14 -42.5t-37 -16.5q-19 0 -30 11t-11 30zM393 676q0 25 16 41t41 16q15 0 25 -11t10 -28q0 -26 -15 -42.5t-38 -16.5q-19 0 -29 10.5t-10 30.5z" />
    <glyph glyph-name="otilde" unicode="&#xf5;" horiz-adv-x="621" 
d="M399 307q0 58 -33.5 93.5t-86.5 35.5q-98 0 -180.5 -90t-82.5 -196q0 -63 36 -99.5t98 -36.5q91 0 170 93.5t79 199.5zM463 293q0 -118 -95 -212.5t-218 -94.5q-93 0 -147 49.5t-54 134.5q0 117 100.5 206t231.5 89q85 0 133.5 -45.5t48.5 -126.5zM225 711
q37 0 108.5 -19.5t108.5 -19.5t60.5 25.5t29.5 25.5q8 0 11 -1.5t4 -6.5q0 -32 -37.5 -67.5t-89.5 -35.5q-38 0 -110 20.5t-108 20.5t-59 -25.5t-33 -25.5q-5 0 -8.5 2.5t-3.5 5.5q0 30 38 65.5t89 35.5z" />
    <glyph glyph-name="uacute" unicode="&#xfa;" horiz-adv-x="729" 
d="M453 455l73 10q-45 -145 -72.5 -260t-27.5 -152q0 -11 6.5 -18.5t16.5 -7.5q20 0 50.5 28t67.5 82l23 -16q-44 -66 -86 -100.5t-80 -34.5q-27 0 -43 19t-16 50q0 28 10 81t43 183q-138 -223 -196 -278t-120 -55q-38 0 -62 24t-24 64q0 24 16 71l7 21l62 183q3 8 5.5 19
t2.5 17q0 11 -6 18t-15 7q-16 0 -43.5 -26.5t-64.5 -78.5l-23 17q58 76 97 109.5t69 33.5q22 0 36.5 -18t14.5 -48q0 -10 -3 -24t-9 -35l-72 -215q-5 -16 -7.5 -29.5t-2.5 -27.5q0 -19 13 -32t32 -13q54 0 134.5 106t193.5 326zM293 557q-5 0 -8.5 2.5t-3.5 7.5q0 6 45.5 30
t77.5 61q7 8 31 55t53 47q24 0 35.5 -9t11.5 -28q0 -46 -96.5 -106t-145.5 -60z" />
    <glyph glyph-name="ugrave" unicode="&#xf9;" horiz-adv-x="729" 
d="M453 455l73 10q-45 -145 -72.5 -260t-27.5 -152q0 -11 6.5 -18.5t16.5 -7.5q20 0 50.5 28t67.5 82l23 -16q-44 -66 -86 -100.5t-80 -34.5q-27 0 -43 19t-16 50q0 28 10 81t43 183q-138 -223 -196 -278t-120 -55q-38 0 -62 24t-24 64q0 24 16 71l7 21l62 183q3 8 5.5 19
t2.5 17q0 11 -6 18t-15 7q-16 0 -43.5 -26.5t-64.5 -78.5l-23 17q58 76 97 109.5t69 33.5q22 0 36.5 -18t14.5 -48q0 -10 -3 -24t-9 -35l-72 -215q-5 -16 -7.5 -29.5t-2.5 -27.5q0 -19 13 -32t32 -13q54 0 134.5 106t193.5 326zM428 567q0 -4 -3 -6t-9 -2q-48 0 -145 59.5
t-97 104.5q0 18 12.5 27.5t36.5 9.5q29 0 51.5 -46.5t30.5 -55.5q31 -36 77 -60.5t46 -30.5z" />
    <glyph glyph-name="ucircumflex" unicode="&#xfb;" horiz-adv-x="729" 
d="M453 455l73 10q-45 -145 -72.5 -260t-27.5 -152q0 -11 6.5 -18.5t16.5 -7.5q20 0 50.5 28t67.5 82l23 -16q-44 -66 -86 -100.5t-80 -34.5q-27 0 -43 19t-16 50q0 28 10 81t43 183q-138 -223 -196 -278t-120 -55q-38 0 -62 24t-24 64q0 24 16 71l7 21l62 183q3 8 5.5 19
t2.5 17q0 11 -6 18t-15 7q-16 0 -43.5 -26.5t-64.5 -78.5l-23 17q58 76 97 109.5t69 33.5q22 0 36.5 -18t14.5 -48q0 -10 -3 -24t-9 -35l-72 -215q-5 -16 -7.5 -29.5t-2.5 -27.5q0 -19 13 -32t32 -13q54 0 134.5 106t193.5 326zM354 676q-64 -51 -127.5 -84t-87.5 -33
q-6 0 -11 2.5t-5 5.5q0 6 34 28q37 23 64 42q51 35 97 83t53 48q10 0 26 -33q13 -26 23 -43q22 -39 51 -78t29 -43q-1 -5 -5 -8.5t-10 -3.5q-12 0 -44 28.5t-87 88.5z" />
    <glyph glyph-name="udieresis" unicode="&#xfc;" horiz-adv-x="729" 
d="M453 455l73 10q-45 -145 -72.5 -260t-27.5 -152q0 -11 6.5 -18.5t16.5 -7.5q20 0 50.5 28t67.5 82l23 -16q-44 -66 -86 -100.5t-80 -34.5q-27 0 -43 19t-16 50q0 28 10 81t43 183q-138 -223 -196 -278t-120 -55q-38 0 -62 24t-24 64q0 24 16 71l7 21l62 183q3 8 5.5 19
t2.5 17q0 11 -6 18t-15 7q-16 0 -43.5 -26.5t-64.5 -78.5l-23 17q58 76 97 109.5t69 33.5q22 0 36.5 -18t14.5 -48q0 -10 -3 -24t-9 -35l-72 -215q-5 -16 -7.5 -29.5t-2.5 -27.5q0 -19 13 -32t32 -13q54 0 134.5 106t193.5 326zM180 676q0 25 16 41t42 16q14 0 24 -11
t10 -28q0 -26 -14 -42.5t-37 -16.5q-19 0 -30 11t-11 30zM420 676q0 25 16 41t41 16q15 0 25 -11t10 -28q0 -26 -15 -42.5t-38 -16.5q-19 0 -29 10.5t-10 30.5z" />
    <glyph glyph-name="dagger" unicode="&#x2020;" 
d="M322 -180h-29l11 52q166 798 179 1029l70 160q-72 0 -177.5 -12.5t-139.5 -12.5q-29 0 -46.5 10.5t-17.5 26.5q0 14 22.5 24.5t55.5 10.5q6 0 107.5 -8.5t199.5 -11.5q22 110 42 268q21 176 63 176q12 0 22 -13t10 -30q0 -26 -42 -158.5t-66 -243.5h16q77 0 174 11.5
t119 11.5q34 0 52 -9.5t18 -27.5q0 -14 -22 -25.5t-54 -11.5q-6 0 -108 9t-201 14l8 -158q-80 -207 -249 -1001z" />
    <glyph glyph-name="degree" unicode="&#xb0;" horiz-adv-x="674" 
d="M338 1389q-89 0 -151 -62t-62 -151t62.5 -151t150.5 -62t150.5 62t62.5 151q0 88 -62.5 150.5t-150.5 62.5zM338 1450q112 0 192 -80.5t80 -193.5q0 -114 -80 -193.5t-194 -79.5q-115 0 -194 79t-79 194q0 114 80.5 194t194.5 80z" />
    <glyph glyph-name="cent" unicode="&#xa2;" horiz-adv-x="729" 
d="M211 45l121 397q-81 -22 -140 -106t-59 -174q0 -47 20 -77t58 -40zM428 131l18 -22q-46 -52 -100.5 -79t-115.5 -30l-54 -180h-35l56 182q-65 15 -99.5 58t-34.5 108q0 105 80 195.5t199 113.5l53 176h35l-53 -173q50 -4 78 -24.5t28 -54.5q0 -25 -12.5 -42t-30.5 -17
q-4 0 -9 1.5t-11 4.5q11 13 16.5 25t5.5 22q0 26 -19 40t-54 16l-127 -414h18q35 0 82.5 26t85.5 68z" />
    <glyph glyph-name="sterling" unicode="&#xa3;" horiz-adv-x="729" 
d="M125 109q-44 23 -76 33t-63 10q-47 0 -82 -23t-35 -51q0 -27 27.5 -45.5t70.5 -18.5q49 0 88.5 24t69.5 71zM147 164q17 39 24 72.5t7 68.5q0 26 -3 79q-1 8 -1 11h-190l2 33h184v41q0 236 91.5 372t248.5 136q73 0 119.5 -46.5t46.5 -119.5q0 -40 -21.5 -75t-58.5 -56
l-14 25q30 15 47.5 44t17.5 62q0 61 -38.5 99t-98.5 38q-122 0 -191 -104t-69 -291q0 -10 2 -52t2 -73h211l-2 -33h-207q-3 -66 -20 -126.5t-50 -121.5q143 -70 231 -101.5t142 -31.5q38 0 60 16.5t24 44.5l29 1q-6 -47 -36.5 -68.5t-90.5 -21.5q-71 0 -162.5 25t-226.5 83
q-44 -54 -89.5 -81t-93.5 -27q-59 0 -96 26t-37 66q0 48 49 83.5t117 35.5q27 0 61.5 -8t79.5 -25z" />
    <glyph glyph-name="section" unicode="&#xa7;" 
d="M549 256q77 10 118.5 57.5t41.5 126.5q0 86 -60 251q-11 29 -16 44l-137 383q-82 -17 -121 -64t-39 -128q0 -46 13 -102.5t46 -145.5zM559 229q10 -32 15.5 -62.5t5.5 -60.5q0 -126 -72 -207t-184 -81q-103 0 -173.5 57.5t-70.5 134.5q0 34 17 57t40 23q24 0 35.5 -13
t11.5 -40v-6q-6 3 -12 4.5t-10 1.5q-16 0 -22.5 -12t-6.5 -45q0 -52 56 -93t135 -41q85 0 137.5 50.5t52.5 134.5q0 45 -15.5 105.5t-54.5 160.5l-88 227q-39 102 -61.5 198.5t-22.5 160.5q0 106 53.5 170t163.5 92q-13 44 -18.5 74.5t-5.5 56.5q0 114 70 185t182 71
q77 0 128.5 -35t51.5 -86q0 -30 -19 -52t-44 -22q-21 0 -32 14t-11 40v5q5 -2 11 -3.5t11 -1.5q13 0 20 9.5t7 26.5q0 31 -35.5 53.5t-87.5 22.5q-90 0 -142.5 -46t-52.5 -124q0 -32 12.5 -78.5t45.5 -130.5l104 -270q41 -107 64.5 -208t23.5 -161q0 -106 -55 -172.5
t-158 -83.5z" />
    <glyph glyph-name="bullet" unicode="&#x2022;" horiz-adv-x="1208" 
d="M307 762q0 123 87 209t210 86q122 0 208.5 -86.5t86.5 -208.5t-87.5 -209.5t-209.5 -87.5q-123 0 -209 87t-86 210z" />
    <glyph glyph-name="paragraph" unicode="&#xb6;" 
d="M932 1479v-64h-129v-1415h-70v1415h-192v-1415h-70v782q-175 8 -278 102.5t-103 245.5q0 157 108.5 253t286.5 96h447z" />
    <glyph glyph-name="germandbls" unicode="&#xdf;" horiz-adv-x="612" 
d="M111 852q59 324 136.5 475.5t182.5 151.5q59 0 92 -49.5t33 -137.5q0 -220 -82.5 -434.5t-208.5 -327.5q91 -27 138 -88t47 -153q0 -116 -76.5 -209.5t-167.5 -93.5q-47 0 -81 30t-34 72q0 23 16.5 40t38.5 17q14 0 24.5 -7t14.5 -19q-18 -3 -30.5 -17.5t-12.5 -33.5
q0 -22 19.5 -38t44.5 -16q64 0 117 84t53 195q0 88 -38.5 141t-119.5 76v29q32 8 59.5 36.5t59.5 90.5q35 66 63.5 144t53.5 173q25 97 39 179t14 130q0 80 -20.5 119t-61.5 39q-75 0 -128.5 -125t-115.5 -461l-117 -631q-49 -265 -113.5 -396.5t-146.5 -131.5
q-32 0 -49.5 16t-17.5 43q0 14 11 24.5t26 10.5q8 0 14.5 -2t11.5 -6q-5 -9 -7.5 -16t-2.5 -13q0 -12 7 -20t18 -8q49 0 84 79.5t73 288.5z" />
    <glyph glyph-name="registered" unicode="&#xae;" horiz-adv-x="1683" 
d="M717 717q12 -1 26.5 -1.5t40.5 -0.5q128 0 195.5 45t67.5 131q0 76 -58.5 121t-159.5 45q-54 0 -83 -20t-29 -56v-264zM469 1087h391q147 0 231.5 -52.5t84.5 -143.5q0 -75 -70 -122.5t-221 -76.5q92 -30 139.5 -78.5t71.5 -136.5q5 -20 12 -59q15 -88 55 -88
q41 0 60 30.5t20 97.5l37 1v-8q0 -88 -37.5 -132.5t-112.5 -44.5q-46 0 -79 18.5t-45 51.5q-16 39 -17.5 113.5t-9.5 99.5q-23 66 -76 96.5t-147 30.5q-6 0 -19 -1t-20 -1v-248q0 -56 29 -78t108 -25v-38h-385v38q79 3 108 25t29 78v512q0 57 -30 80t-107 25v36zM844 1298
q-123 0 -235.5 -47t-198.5 -135q-88 -89 -134.5 -201.5t-46.5 -236.5q0 -126 46.5 -238.5t134.5 -199.5q88 -89 198 -135t234 -46q126 0 236.5 46.5t195.5 134.5q88 91 135 203.5t47 234.5q0 123 -48 240.5t-132 201.5q-85 85 -198 131.5t-234 46.5zM844 1370
q134 0 261 -52.5t224 -148.5q96 -95 149.5 -225t53.5 -266q0 -135 -53 -261t-152 -227q-97 -98 -221.5 -150t-263.5 -52q-138 0 -262.5 51.5t-225.5 150.5q-99 100 -150.5 224t-51.5 264q0 138 51 263t149 224q97 98 225 151.5t267 53.5z" />
    <glyph glyph-name="copyright" unicode="&#xa9;" horiz-adv-x="1683" 
d="M1118 1093l31 1v-308h-37q-32 136 -104 205.5t-181 69.5q-127 0 -192.5 -95.5t-65.5 -281.5q0 -190 70 -286.5t207 -96.5q90 0 161 42.5t126 129.5l30 -20q-55 -102 -140.5 -154.5t-195.5 -52.5q-164 0 -279.5 122t-115.5 296q0 184 113.5 310t277.5 126q71 0 145 -34
t85 -34q28 0 44.5 16t20.5 45zM844 1298q-123 0 -235.5 -47t-198.5 -135q-88 -89 -134.5 -201.5t-46.5 -236.5q0 -126 46.5 -238.5t134.5 -199.5q88 -89 198 -135t234 -46q126 0 236.5 46.5t195.5 134.5q88 91 135 203.5t47 234.5q0 123 -48 240.5t-132 201.5
q-85 85 -198 131.5t-234 46.5zM844 1370q134 0 261 -52.5t224 -148.5q96 -95 149.5 -225t53.5 -266q0 -135 -53 -261t-152 -227q-97 -98 -221.5 -150t-263.5 -52q-138 0 -262.5 51.5t-225.5 150.5q-99 100 -150.5 224t-51.5 264q0 138 51 263t149 224q97 98 225 151.5
t267 53.5z" />
    <glyph glyph-name="trademark" unicode="&#x2122;" horiz-adv-x="1683" 
d="M801 1432h170l145 -414l158 414h162v-25h-31q-22 0 -35.5 -15t-13.5 -40v-369q0 -24 13.5 -39.5t35.5 -15.5h31v-25h-228v25h31q22 0 35.5 15.5t13.5 39.5v406l-186 -490h-8l-174 487v-403q0 -24 13.5 -39.5t35.5 -15.5h30v-25h-198v23h30q22 0 36 15.5t14 41.5v367
q0 24 -14 40.5t-36 16.5h-30v25zM264 1432h436l11 -175h-23q-8 81 -41.5 116.5t-101.5 35.5h-23v-426q0 -24 14 -39.5t35 -15.5h31v-25h-242v25h33q22 0 35.5 15.5t13.5 39.5v426h-22q-69 0 -102.5 -35.5t-41.5 -116.5h-22z" />
    <glyph glyph-name="acute" unicode="&#xb4;" 
d="M467 557q-5 0 -8.5 2.5t-3.5 7.5q0 6 45.5 30t77.5 61q7 8 31 55t53 47q24 0 35.5 -9t11.5 -28q0 -46 -96.5 -106t-145.5 -60z" />
    <glyph glyph-name="dieresis" unicode="&#xa8;" 
d="M354 676q0 25 16 41t42 16q14 0 24 -11t10 -28q0 -26 -14 -42.5t-37 -16.5q-19 0 -30 11t-11 30zM594 676q0 25 16 41t41 16q15 0 25 -11t10 -28q0 -26 -15 -42.5t-38 -16.5q-19 0 -29 10.5t-10 30.5z" />
    <glyph glyph-name="notequal" unicode="&#x2260;" horiz-adv-x="1706" 
d="M1217 1157l63 -49l-217 -277h389v-79h-440l-219 -283h659v-82h-711l-254 -324l-61 48l215 276h-387v82h436l221 283h-657v79h709z" />
    <glyph glyph-name="AE" unicode="&#xc6;" horiz-adv-x="2806" 
d="M936 735q64 -1 120.5 -19t106.5 -52q50 34 114.5 50.5t149.5 16.5q54 0 118 -11q5 -1 7 -1q16 61 23.5 119t7.5 110q0 114 -37 205.5t-119 177.5q-171 -103 -292.5 -250t-198.5 -346zM1157 625q-29 -28 -43 -52.5t-14 -48.5q0 -20 10 -31.5t27 -11.5q19 0 35 20t16 48
q0 18 -7.5 36.5t-23.5 39.5zM2509 1333q4 -1 11 -4q12 -4 15 -4q14 0 22.5 9.5t8.5 25.5q0 56 -73 100.5t-181 44.5q-153 0 -256.5 -94.5t-103.5 -226.5q0 -61 25.5 -97.5t77.5 -50.5q10 -3 28 -7q63 -14 63 -50t-96 -64q-56 -16 -92 -28q-194 -66 -290.5 -187t-96.5 -297
q0 -181 123.5 -285t341.5 -104q235 0 405 129.5t170 294.5q0 132 -83.5 211.5t-221.5 79.5q-155 0 -265 -97.5t-159 -277.5l-27 8q49 186 173.5 298t277.5 112q149 0 241.5 -87.5t92.5 -225.5q0 -195 -173 -334t-419 -139q-257 0 -408 121.5t-151 326.5q0 57 14 120t43 136
q-25 7 -55.5 11t-63.5 4q-81 0 -140 -15.5t-103 -48.5q16 -25 24.5 -48t8.5 -44q0 -44 -23.5 -70t-60.5 -26q-28 0 -46 20.5t-18 52.5q0 29 16.5 58.5t51.5 62.5q-45 30 -97 45t-108 15h-10q-173 -363 -361.5 -547.5t-388.5 -184.5q-111 0 -186.5 45.5t-75.5 108.5
q0 29 18.5 48.5t44.5 19.5q27 0 43.5 -13.5t16.5 -36.5q0 -2 -2 -7.5t-6 -14.5q-6 10 -11.5 13t-17.5 3q-16 0 -25.5 -10t-9.5 -27q0 -38 62 -69t149 -31q177 0 316 140t341 558q-63 -10 -120.5 -28.5t-110.5 -44.5l-12 26q69 34 133 53t127 25q107 216 244.5 369.5
t314.5 255.5q-87 73 -197.5 109t-246.5 36q-170 0 -318 -64t-274 -192q-117 -118 -179.5 -263t-62.5 -298q0 -98 26.5 -192.5t79.5 -188.5l-24 -16q-63 108 -94 216t-31 218q0 143 51 274t150 240q126 140 304 217.5t374 77.5q141 0 259 -39.5t216 -120.5q45 24 99.5 46
t121.5 44l12 -26q-70 -25 -120.5 -46.5t-88.5 -41.5q98 -100 144.5 -207.5t46.5 -235.5q0 -27 -3 -64t-10 -83q140 108 309 161t169 60q-1 16 -51 25l-40 8q-68 15 -108.5 67t-40.5 123q0 141 125.5 236.5t314.5 95.5q122 0 205.5 -57t83.5 -136q0 -33 -15.5 -54t-39.5 -21
q-19 0 -32 14.5t-13 36.5q0 6 0.5 10t1.5 6z" />
    <glyph glyph-name="Oslash" unicode="&#xd8;" horiz-adv-x="1579" 
d="M502 37q39 -11 75 -17t66 -6q140 0 290 78t269 213q119 136 179.5 294t60.5 333q0 176 -64 313.5t-182 214.5l-387 -794q49 9 89 50.5t69 114.5l26 -14q-32 -82 -82 -128.5t-118 -57.5zM465 47l282 581q-112 6 -182.5 94t-70.5 222q0 94 36 187.5t103 171.5
q-215 -67 -348 -262t-133 -441q0 -192 84 -340t229 -213zM762 659l399 816q-36 14 -69 21t-60 7q-76 0 -158 -40t-159 -115q19 5 40 7.5t44 2.5q18 0 32 -0.5t29 -2.5v-28q-8 0 -24 1t-25 1q-33 0 -65.5 -4t-67.5 -12q-74 -82 -114 -177t-40 -192q0 -124 65 -204.5
t163 -80.5h10zM662 1337q102 103 195 149t196 46q34 0 65.5 -5t59.5 -16l127 263h43l-134 -277q140 -70 217.5 -215t77.5 -338q0 -189 -91 -383t-249 -338q-128 -118 -265.5 -177.5t-278.5 -59.5q-33 0 -69 3.5t-73 10.5l-143 -295h-43l149 305q-184 65 -280 211t-96 363
q0 263 166.5 475.5t425.5 277.5z" />
    <glyph glyph-name="infinity" unicode="&#x221e;" horiz-adv-x="1706" 
d="M889 557q54 -103 125 -154t162 -51q107 0 176 78t69 199q0 119 -63.5 196.5t-159.5 77.5q-87 0 -157.5 -77.5t-151.5 -268.5zM819 670q-52 102 -123.5 153t-163.5 51q-108 0 -176.5 -77.5t-68.5 -198.5q0 -118 63.5 -195t159.5 -77q88 0 158 76t151 268zM870 510
q-70 -138 -147.5 -202t-173.5 -64q-130 0 -220.5 106t-90.5 262q0 166 80 267.5t210 101.5q98 0 172.5 -64.5t135.5 -203.5q66 139 146 206.5t177 67.5q130 0 219.5 -106t89.5 -265q0 -166 -80.5 -269t-209.5 -103q-93 0 -164.5 61t-143.5 205z" />
    <glyph glyph-name="plusminus" unicode="&#xb1;" horiz-adv-x="1706" 
d="M254 141h1198v-82h-1198v82zM813 1161h80v-354h559v-80h-559v-352h-80v352h-559v80h559v354z" />
    <glyph glyph-name="lessequal" unicode="&#x2264;" horiz-adv-x="1706" 
d="M264 129h1178v-80h-1178v80zM1442 1171v-88l-1043 -350l1043 -352v-88l-1178 405v70z" />
    <glyph glyph-name="greaterequal" unicode="&#x2265;" horiz-adv-x="1706" 
d="M264 129h1178v-80h-1178v80zM264 1171l1178 -403v-70l-1178 -405v88l1043 352l-1043 350v88z" />
    <glyph glyph-name="yen" unicode="&#xa5;" horiz-adv-x="729" 
d="M164 0l86 346h-273l9 33h254l-50 147h-163l6 35h147l-127 402h82l180 -582l381 582h52l-271 -402h162l-6 -35h-180l-101 -147h236l-6 -33h-254l-86 -346h-78z" />
    <glyph glyph-name="mu" unicode="&#xb5;" horiz-adv-x="1051" 
d="M162 190q-21 -131 -41 -330q-28 -276 -101 -276q-29 0 -49 18t-20 44q0 39 59.5 287t98.5 432l108 520h119l-111 -518q-4 -20 -6 -41.5t-2 -46.5q0 -95 46.5 -153t121.5 -58q99 0 170 85t109 250l110 482h119l-117 -527q-13 -59 -19.5 -104.5t-6.5 -73.5q0 -44 20 -69
t55 -25q43 0 77.5 27t53.5 75q13 30 30 79q25 71 44 71q12 0 19.5 -8.5t7.5 -22.5q0 -30 -15.5 -82.5t-37.5 -93.5q-40 -72 -93.5 -108.5t-117.5 -36.5q-70 0 -107 45t-37 129q0 5 1 16t1 17q-43 -108 -110 -160.5t-160 -52.5t-149 53.5t-70 156.5z" />
    <glyph glyph-name="partialdiff" unicode="&#x2202;" 
d="M750 578q11 69 16.5 144.5t5.5 160.5q0 179 -38 266.5t-116 87.5q-45 0 -99.5 -73.5t-108.5 -73.5q-29 0 -48.5 18.5t-19.5 46.5q0 59 61 102t148 43q160 0 254 -147t94 -401q0 -335 -131.5 -557t-323.5 -222q-139 0 -224 105t-85 280q0 173 107 296.5t258 123.5
q97 0 158.5 -49t91.5 -151zM713 459q0 125 -47 190.5t-138 65.5q-117 0 -190.5 -125t-73.5 -330q0 -117 47.5 -179.5t137.5 -62.5q114 0 189 125.5t75 315.5z" />
    <glyph glyph-name="summation" unicode="&#x2211;" horiz-adv-x="1384" 
d="M8 1473h1090l80 -304h-68l-55 209q-5 16 -16.5 23.5t-32.5 7.5h-824l951 -879v-36l-914 -789h895q67 0 84.5 13t30.5 53l71 229h68l-119 -393h-1237v10l1018 872l-1022 941v43z" />
    <glyph glyph-name="product" unicode="&#x220f;" horiz-adv-x="1538" 
d="M61 1473h1416v-64h-187v-1739h187v-63h-494v63h207v1739h-842v-1739h207v-63h-494v63h187v1739h-187v64z" />
    <glyph glyph-name="pi" unicode="&#x3c0;" horiz-adv-x="1298" 
d="M1268 885l-25 -109h-311q-45 -219 -78 -520q-34 -299 -113 -299q-34 0 -54.5 22t-20.5 58q0 29 77.5 273.5t133.5 465.5h-361q-44 -219 -78 -520q-33 -299 -112 -299q-35 0 -55.5 22t-20.5 58q0 29 77.5 273.5t133.5 465.5h-189q-72 0 -111 -50.5t-71 -197.5h-65
q32 191 108.5 274t218.5 83h916z" />
    <glyph glyph-name="integral" unicode="&#x222b;" horiz-adv-x="948" 
d="M401 578q0 498 86.5 733t268.5 235q65 0 106 -35t41 -90q0 -45 -27.5 -71.5t-74.5 -26.5q-77 0 -101.5 64.5t-33.5 64.5q-67 0 -93 -159t-26 -687q0 -509 -85.5 -743t-268.5 -234q-64 0 -106 34.5t-42 84.5q0 48 28.5 77.5t76.5 29.5q33 0 56 -13.5t40 -42.5
q8 -14 12.5 -44.5t24.5 -30.5q66 0 92 165t26 689z" />
    <glyph glyph-name="ordfeminine" unicode="&#xaa;" horiz-adv-x="508" 
d="M244 1282l47 158q-20 23 -44 35t-48 12q-70 0 -127.5 -59t-57.5 -132q0 -43 25.5 -70.5t64.5 -27.5q33 0 70.5 22.5t69.5 61.5zM239 1249q-34 -38 -72.5 -56.5t-80.5 -18.5q-52 0 -88.5 36t-36.5 90q0 81 71.5 145t162.5 64q25 0 50 -10t54 -33l8 35l53 10l-71 -243
q-5 -16 -6.5 -26t-1.5 -19q0 -10 5.5 -15.5t12.5 -5.5q14 0 36.5 20t51.5 58l16 -12q-29 -44 -61 -69t-57 -25q-21 0 -34 13.5t-13 35.5q0 10 0.5 15.5t0.5 10.5z" />
    <glyph glyph-name="ordmasculine" unicode="&#xba;" horiz-adv-x="465" 
d="M299 1399q0 41 -24.5 65.5t-65.5 24.5q-73 0 -135 -63t-62 -138q0 -44 27 -69t74 -25q68 0 127 65t59 140zM348 1389q0 -83 -71.5 -149t-163.5 -66q-70 0 -111 34.5t-41 94.5q0 81 76 143.5t174 62.5q64 0 100.5 -32t36.5 -88z" />
    <glyph glyph-name="Omega" unicode="&#x3a9;" horiz-adv-x="1565" 
d="M1079 123v-23h318l78 232h59l-98 -332h-492q160 266 236.5 477.5t76.5 386.5q0 264 -125.5 416t-345.5 152q-219 0 -346 -152.5t-127 -415.5q0 -177 76.5 -388.5t237.5 -475.5h-492l-98 332h59l78 -232h318v23q-152 202 -224.5 388t-72.5 372q0 277 163.5 445.5
t427.5 168.5q265 0 428.5 -168.5t163.5 -445.5q0 -184 -73 -370t-226 -390z" />
    <glyph glyph-name="ae" unicode="&#xe6;" horiz-adv-x="915" 
d="M414 211q127 10 200.5 53.5t73.5 106.5q0 27 -18 45t-45 18q-72 0 -131.5 -62t-79.5 -161zM461 399q39 32 85 49t93 17q45 0 73.5 -26.5t28.5 -67.5q0 -72 -88.5 -122.5t-244.5 -66.5v-16v-16q0 -67 28 -98.5t86 -31.5q42 0 84.5 20t95.5 64l21 -20q-53 -47 -111.5 -72.5
t-111.5 -25.5q-68 0 -110.5 32t-53.5 91q-53 -63 -107.5 -93t-113.5 -30q-70 0 -118 51t-48 129q0 115 95.5 207t215.5 92q34 0 68 -15.5t69 -46.5l13 50l69 14zM326 141l61 226q-26 32 -58.5 49.5t-64.5 17.5q-93 0 -169.5 -84.5t-76.5 -189.5q0 -61 34.5 -100.5
t86.5 -39.5q44 0 93.5 32t93.5 89z" />
    <glyph glyph-name="oslash" unicode="&#xf8;" horiz-adv-x="621" 
d="M115 17q6 -2 13.5 -2.5t18.5 -0.5q94 0 173 93t79 200q0 40 -16.5 70.5t-48.5 48.5zM20 -162h-36l84 160q-61 25 -90 67t-29 105q0 118 100 206.5t232 88.5q1 0 12 -1.5t20 -2.5l78 145h37l-80 -151q58 -19 86.5 -59.5t28.5 -102.5q0 -118 -95 -212.5t-218 -94.5
q-4 0 -21 1.5l-29 2.5zM84 27l215 407q-4 1 -10 1.5t-19 0.5q-89 0 -171.5 -90.5t-82.5 -195.5q0 -43 17.5 -74.5t50.5 -48.5z" />
    <glyph glyph-name="questiondown" unicode="&#xbf;" horiz-adv-x="924" 
d="M688 1229q0 -20 -14 -34.5t-33 -14.5t-33 14.5t-14 34.5q0 18 14.5 32.5t32.5 14.5t32.5 -14.5t14.5 -32.5zM608 1032q-32 -82 -82.5 -154t-128.5 -147l-13 -13q-249 -241 -249 -423q0 -115 62.5 -182.5t167.5 -67.5q129 0 218 101.5t89 250.5q0 43 -10 89.5t-31 101.5
l26 14q24 -61 34.5 -114t10.5 -103q0 -165 -107.5 -282t-256.5 -117q-123 0 -204 86.5t-81 218.5q0 166 240 385l82 76q76 73 126 143.5t77 142.5z" />
    <glyph glyph-name="exclamdown" unicode="&#xa1;" horiz-adv-x="588" 
d="M379 1024l-186 -1010l-91 -28l-20 14l268 1024h29zM453 1221q0 -19 -14 -33t-33 -14q-20 0 -34 14t-14 33q0 18 14.5 32.5t33.5 14.5q18 0 32.5 -14.5t14.5 -32.5z" />
    <glyph glyph-name="logicalnot" unicode="&#xac;" horiz-adv-x="1706" 
d="M254 856h1198v-502h-78v420h-1120v82z" />
    <glyph glyph-name="radical" unicode="&#x221a;" horiz-adv-x="1264" 
d="M1092 1626h172v-61h-129l-596 -1606h-31l-330 907l-110 -39l-15 50l230 79l278 -759z" />
    <glyph glyph-name="florin" unicode="&#x192;" horiz-adv-x="729" 
d="M256 426h-154v35h160q52 264 122 390t165 126q34 0 57 -20t23 -48q0 -18 -11.5 -30.5t-29.5 -12.5q-17 0 -26 7.5t-11 23.5q12 6 17 12.5t5 14.5t-10.5 16t-21.5 8q-65 0 -118 -126.5t-87 -360.5h147v-35h-153l-37 -193q-49 -263 -121 -395.5t-166 -132.5q-33 0 -55.5 20
t-22.5 48q0 18 11.5 30.5t29.5 12.5q17 0 25.5 -7t11.5 -22q-11 -6 -16.5 -13t-5.5 -16t11 -16.5t23 -7.5q53 0 99.5 95.5t79.5 272.5z" />
    <glyph glyph-name="approxequal" unicode="&#x2248;" horiz-adv-x="1706" 
d="M1530 578v-93q-106 -74 -202 -110.5t-185 -36.5q-106 0 -295.5 70.5t-282.5 70.5q-83 0 -171 -35.5t-216 -124.5v93q105 73 201 109t186 36q106 0 295.5 -69.5t282.5 -69.5q83 0 171 35.5t216 124.5zM1530 903v-94q-105 -73 -200.5 -109t-186.5 -36q-106 0 -295.5 69.5
t-282.5 69.5q-83 0 -171 -35.5t-216 -124.5v92q106 75 202 111.5t185 36.5q106 0 295.5 -71t282.5 -71q81 0 168.5 36t218.5 126z" />
    <glyph glyph-name="Delta" unicode="&#x2206;" horiz-adv-x="995" 
d="M485 1272l-391 -1172h768zM492 1497h26l486 -1497h-1010z" />
    <glyph glyph-name="guillemotleft" unicode="&#xab;" horiz-adv-x="479" 
d="M334 401l16 -22l-139 -146l63 -147l-20 -18l-127 161zM154 401l16 -22l-139 -146l63 -147l-20 -18l-125 161z" />
    <glyph glyph-name="guillemotright" unicode="&#xbb;" horiz-adv-x="479" 
d="M117 66l-17 24l140 146l-64 145l21 20l125 -163zM-63 66l-17 24l139 146l-63 145l20 20l125 -163z" />
    <glyph glyph-name="ellipsis" unicode="&#x2026;" horiz-adv-x="2048" 
d="M154 33q0 19 14 33t33 14t33 -14t14 -33t-14.5 -33t-32.5 -14t-32.5 14t-14.5 33zM836 33q0 19 14 33t33 14t33 -14t14 -33t-14.5 -33t-32.5 -14t-32.5 14t-14.5 33zM1520 33q0 19 14 33t33 14t33 -14t14 -33t-14.5 -33t-32.5 -14t-32.5 14t-14.5 33z" />
    <glyph glyph-name="nonbreakingspace" unicode="&#xa0;" horiz-adv-x="729" 
 />
    <glyph glyph-name="Agrave" unicode="&#xc0;" horiz-adv-x="1892" 
d="M936 735q64 -1 120.5 -19t106.5 -52q50 34 114.5 50.5t149.5 16.5q54 0 118 -11q5 -1 7 -1q16 61 23.5 119t7.5 110q0 114 -37 205.5t-119 177.5q-171 -103 -292.5 -250t-198.5 -346zM1157 625q-29 -28 -43 -52.5t-14 -48.5q0 -20 10 -31.5t27 -11.5q19 0 35 20t16 48
q0 18 -7.5 36.5t-23.5 39.5zM1714 180l25 -12q-50 -88 -106.5 -137t-104.5 -49q-45 0 -69.5 38.5t-24.5 108.5q0 74 63 343q32 138 49 218q-25 7 -55.5 11t-63.5 4q-81 0 -140 -15.5t-103 -48.5q16 -25 24.5 -48t8.5 -44q0 -44 -23.5 -70t-60.5 -26q-28 0 -46 20.5t-18 52.5
q0 29 16.5 58.5t51.5 62.5q-45 30 -97 45t-108 15h-10q-173 -363 -361.5 -547.5t-388.5 -184.5q-111 0 -186.5 45.5t-75.5 108.5q0 29 18.5 48.5t44.5 19.5q27 0 43.5 -13.5t16.5 -36.5q0 -2 -2 -7.5t-6 -14.5q-6 10 -11.5 13t-17.5 3q-16 0 -25.5 -10t-9.5 -27
q0 -38 62 -69t149 -31q177 0 316 140t341 558q-63 -10 -120.5 -28.5t-110.5 -44.5l-12 26q69 34 133 53t127 25q107 216 244.5 369.5t314.5 255.5q-87 73 -197.5 109t-246.5 36q-170 0 -318 -64t-274 -192q-117 -118 -179.5 -263t-62.5 -298q0 -98 26.5 -192.5t79.5 -188.5
l-24 -16q-63 108 -94 216t-31 218q0 143 51 274t150 240q126 140 304 217.5t374 77.5q141 0 259 -39.5t216 -120.5q45 24 99.5 46t121.5 44l12 -26q-70 -25 -120.5 -46.5t-88.5 -41.5q101 -101 146 -210t45 -253q0 -42 -5 -88t-13 -95q20 -6 43 -16t51 -24l-11 -27
q-25 12 -47 21t-41 15l-55 -231q-70 -289 -70 -338q0 -39 11.5 -56t35.5 -17q32 0 79 42t83 109zM1575 1634q0 -4 -3 -6t-9 -2q-48 0 -145 59.5t-97 104.5q0 18 12.5 27.5t36.5 9.5q29 0 51.5 -46.5t30.5 -55.5q31 -36 77 -60.5t46 -30.5z" />
    <glyph glyph-name="Atilde" unicode="&#xc3;" horiz-adv-x="1892" 
d="M936 735q64 -1 120.5 -19t106.5 -52q50 34 114.5 50.5t149.5 16.5q54 0 118 -11q5 -1 7 -1q16 61 23.5 119t7.5 110q0 114 -37 205.5t-119 177.5q-171 -103 -292.5 -250t-198.5 -346zM1157 625q-29 -28 -43 -52.5t-14 -48.5q0 -20 10 -31.5t27 -11.5q19 0 35 20t16 48
q0 18 -7.5 36.5t-23.5 39.5zM1714 180l25 -12q-50 -88 -106.5 -137t-104.5 -49q-45 0 -69.5 38.5t-24.5 108.5q0 74 63 343q32 138 49 218q-25 7 -55.5 11t-63.5 4q-81 0 -140 -15.5t-103 -48.5q16 -25 24.5 -48t8.5 -44q0 -44 -23.5 -70t-60.5 -26q-28 0 -46 20.5t-18 52.5
q0 29 16.5 58.5t51.5 62.5q-45 30 -97 45t-108 15h-10q-173 -363 -361.5 -547.5t-388.5 -184.5q-111 0 -186.5 45.5t-75.5 108.5q0 29 18.5 48.5t44.5 19.5q27 0 43.5 -13.5t16.5 -36.5q0 -2 -2 -7.5t-6 -14.5q-6 10 -11.5 13t-17.5 3q-16 0 -25.5 -10t-9.5 -27
q0 -38 62 -69t149 -31q177 0 316 140t341 558q-63 -10 -120.5 -28.5t-110.5 -44.5l-12 26q69 34 133 53t127 25q107 216 244.5 369.5t314.5 255.5q-87 73 -197.5 109t-246.5 36q-170 0 -318 -64t-274 -192q-117 -118 -179.5 -263t-62.5 -298q0 -98 26.5 -192.5t79.5 -188.5
l-24 -16q-63 108 -94 216t-31 218q0 143 51 274t150 240q126 140 304 217.5t374 77.5q141 0 259 -39.5t216 -120.5q45 24 99.5 46t121.5 44l12 -26q-70 -25 -120.5 -46.5t-88.5 -41.5q101 -101 146 -210t45 -253q0 -42 -5 -88t-13 -95q20 -6 43 -16t51 -24l-11 -27
q-25 12 -47 21t-41 15l-55 -231q-70 -289 -70 -338q0 -39 11.5 -56t35.5 -17q32 0 79 42t83 109zM1399 1778q37 0 108.5 -19.5t108.5 -19.5t60.5 25.5t29.5 25.5q8 0 11 -1.5t4 -6.5q0 -32 -37.5 -67.5t-89.5 -35.5q-38 0 -110 20.5t-108 20.5t-59 -25.5t-33 -25.5
q-5 0 -8.5 2.5t-3.5 5.5q0 30 38 65.5t89 35.5z" />
    <glyph glyph-name="Otilde" unicode="&#xd5;" horiz-adv-x="1579" 
d="M1020 964q-9 -155 -81 -245t-185 -90q-112 0 -186 89t-74 226q0 94 36 187.5t103 171.5q-216 -67 -348.5 -262.5t-132.5 -446.5q0 -250 139.5 -415t351.5 -165q121 0 252 59.5t246 166.5q146 138 223.5 316t77.5 376q0 244 -118 407.5t-288 163.5q-80 0 -161.5 -39.5
t-159.5 -115.5q19 5 40 7.5t44 2.5q18 0 32 -0.5t29 -2.5v-28q-8 0 -24 1t-25 1q-33 0 -65.5 -4t-67.5 -12q-74 -82 -114 -177t-40 -192q0 -125 65.5 -206t164.5 -81q101 0 164.5 82t72.5 225h29zM662 1337q100 100 192.5 147.5t183.5 47.5q207 0 339 -164.5t132 -423.5
q0 -189 -91.5 -384t-248.5 -337q-128 -118 -265.5 -177.5t-278.5 -59.5q-249 0 -402 164t-153 434q0 264 166 476t426 277zM985 1778q37 0 108.5 -19.5t108.5 -19.5t60.5 25.5t29.5 25.5q8 0 11 -1.5t4 -6.5q0 -32 -37.5 -67.5t-89.5 -35.5q-38 0 -110 20.5t-108 20.5
t-59 -25.5t-33 -25.5q-5 0 -8.5 2.5t-3.5 5.5q0 30 38 65.5t89 35.5z" />
    <glyph glyph-name="OE" unicode="&#x152;" horiz-adv-x="2669" 
d="M1020 964q-9 -155 -81 -245t-185 -90q-112 0 -186 89t-74 226q0 94 36 187.5t103 171.5q-216 -67 -348.5 -262.5t-132.5 -446.5q0 -250 139.5 -415t351.5 -165q121 0 252 59.5t246 166.5q146 138 223.5 316t77.5 376q0 244 -118 407.5t-288 163.5q-80 0 -161.5 -39.5
t-159.5 -115.5q19 5 40 7.5t44 2.5q18 0 32 -0.5t29 -2.5v-28q-8 0 -24 1t-25 1q-33 0 -65.5 -4t-67.5 -12q-74 -82 -114 -177t-40 -192q0 -125 65.5 -206t164.5 -81q101 0 164.5 82t72.5 225h29zM662 1337q98 99 191 147t185 48q207 0 339 -164.5t132 -423.5
q0 -34 -7 -86.5t-21 -122.5q137 120 318 179t181 65q0 16 -50 25l-40 8q-68 15 -108.5 67t-40.5 123q0 141 125.5 236.5t314.5 95.5q122 0 205.5 -57t83.5 -136q0 -33 -16.5 -54t-40.5 -21q-20 0 -31.5 13.5t-11.5 35.5q0 7 0.5 11.5t1.5 6.5q4 -1 11 -4q11 -4 15 -4
q13 0 21 9.5t8 25.5q0 57 -72.5 101t-179.5 44q-153 0 -256.5 -94.5t-103.5 -226.5q0 -61 25 -97.5t77 -50.5q11 -3 29 -7q63 -14 63 -50t-97 -64q-55 -16 -91 -28q-194 -66 -290.5 -187t-96.5 -297q0 -181 123.5 -285t340.5 -104q235 0 404.5 129.5t169.5 294.5
q0 132 -83 211.5t-220 79.5q-155 0 -265 -97.5t-159 -277.5l-29 8q49 186 174 298t279 112q148 0 241 -87.5t93 -225.5q0 -194 -174.5 -333.5t-419.5 -139.5q-246 0 -404.5 119.5t-158.5 295.5q0 1 1 11t1 18q-151 -214 -338.5 -329t-384.5 -115q-249 0 -402 164t-153 434
q0 264 166 476t426 277z" />
    <glyph glyph-name="oe" unicode="&#x153;" horiz-adv-x="948" 
d="M446 211q127 10 201 53.5t74 106.5q0 28 -18 46.5t-46 18.5q-71 0 -130.5 -63t-80.5 -162zM440 182q-2 -10 -3 -18.5t-1 -16.5q0 -60 31 -91t92 -31q41 0 84.5 19.5t91.5 59.5l21 -20q-53 -47 -111 -72.5t-110 -25.5q-60 0 -102 29t-54 79q-54 -55 -110.5 -81.5
t-121.5 -26.5q-93 0 -145.5 49t-52.5 135q0 118 99 206.5t228 88.5q66 0 113 -31t62 -84q48 56 104.5 85.5t116.5 29.5q45 0 74.5 -27t29.5 -67q0 -72 -89 -122.5t-247 -66.5zM399 307q0 58 -33.5 93.5t-86.5 35.5q-98 0 -180.5 -90t-82.5 -196q0 -63 36 -99.5t98 -36.5
q91 0 170 93.5t79 199.5z" />
    <glyph glyph-name="endash" unicode="&#x2013;" 
d="M-104 213v43h1024v-43h-1024z" />
    <glyph glyph-name="emdash" unicode="&#x2014;" horiz-adv-x="2048" 
d="M-104 213v43h2048v-43h-2048z" />
    <glyph glyph-name="quotedblleft" unicode="&#x201c;" horiz-adv-x="573" 
d="M508 1233l-27 -12l-110 311l104 -45zM299 1233l-25 -12l-112 311l104 -45z" />
    <glyph glyph-name="quotedblright" unicode="&#x201d;" horiz-adv-x="573" 
d="M436 1247l60 250l108 35l-143 -299zM227 1247l60 250l108 35l-143 -299z" />
    <glyph glyph-name="quoteleft" unicode="&#x2018;" horiz-adv-x="365" 
d="M299 1233l-25 -12l-112 311l104 -45z" />
    <glyph glyph-name="quoteright" unicode="&#x2019;" horiz-adv-x="365" 
d="M227 1247l60 250l108 35l-143 -299z" />
    <glyph glyph-name="divide" unicode="&#xf7;" horiz-adv-x="1706" 
d="M854 365q41 0 69.5 -29.5t28.5 -71.5q0 -40 -28.5 -69t-69.5 -29t-69.5 28.5t-28.5 69.5t29 71t69 30zM254 651h1198v-82h-1198v82zM854 1055q41 0 69.5 -28.5t28.5 -70.5q0 -40 -28.5 -70t-69.5 -30t-69.5 29.5t-28.5 70.5t28.5 70t69.5 29z" />
    <glyph glyph-name="lozenge" unicode="&#x25ca;" horiz-adv-x="1012" 
d="M506 1409l-385 -817l385 -825l385 825zM506 1653l500 -1061l-500 -1069l-500 1069z" />
    <glyph glyph-name="ydieresis" unicode="&#xff;" horiz-adv-x="702" 
d="M-20 305l-23 17q58 76 97 109.5t69 33.5q22 0 36.5 -17.5t14.5 -44.5q0 -8 -3 -24.5t-9 -38.5l-58 -197q-2 -9 -4 -22.5t-2 -24.5q0 -25 14 -40t38 -15q71 0 154 111.5t147 298.5l65 10l-121 -434q51 36 79 60.5t44 45.5l21 -20q-26 -30 -64.5 -61t-91.5 -64
q-54 -152 -125.5 -226.5t-161.5 -74.5q-37 0 -61.5 21t-24.5 54q0 56 72 108.5t242 119.5l63 248q-52 -110 -123 -174t-137 -64q-42 0 -67 26t-25 70q0 11 2 23.5t8 34.5l55 194q1 4 4 13q5 19 5 24q0 11 -6 18t-15 7q-16 0 -43.5 -26.5t-64.5 -78.5zM315 -43
q-156 -66 -216 -108.5t-60 -84.5q0 -22 16.5 -35.5t44.5 -13.5q77 0 133.5 63.5t81.5 178.5zM194 676q0 25 16 41t42 16q14 0 24 -11t10 -28q0 -26 -14 -42.5t-37 -16.5q-19 0 -30 11t-11 30zM434 676q0 25 16 41t41 16q15 0 25 -11t10 -28q0 -26 -15 -42.5t-38 -16.5
q-19 0 -29 10.5t-10 30.5z" />
    <glyph glyph-name="Ydieresis" unicode="&#x178;" horiz-adv-x="1741" 
d="M690 -66q4 9 5 12.5t1 8.5q0 13 -10 23t-24 10q-17 0 -31.5 -18.5t-14.5 -43.5q0 -65 76 -114.5t187 -49.5q138 0 250.5 89.5t179.5 252.5q40 100 95 348.5t97 383.5q52 167 99 249.5t112 131.5q17 12 48.5 27.5t31.5 27.5q0 10 -8.5 15t-26.5 5q-70 0 -143.5 -85.5
t-155.5 -264.5l-37 -83q-167 -372 -334 -505q-93 -75 -187 -115t-173 -40q-35 0 -54.5 14.5t-19.5 40.5q0 31 51 69q19 14 27 21q129 105 205 284.5t76 379.5q0 211 -119.5 349t-294.5 138q-200 0 -349 -175.5t-149 -420.5q0 -195 114 -330.5t310 -173.5l-6 -28
q-210 44 -328 185t-118 347q0 264 165.5 449.5t395.5 185.5q205 0 331 -145.5t126 -384.5q0 -167 -67 -335.5t-167 -258.5q-48 -43 -115 -95q-59 -47 -59 -61q0 -15 12 -22t39 -7q52 0 128 30t153 81q110 74 193 185.5t184 340.5q107 244 193.5 351.5t172.5 107.5
q29 0 46.5 -12.5t17.5 -32.5q0 -30 -56 -62q-10 -6 -16 -10q-62 -36 -107.5 -109t-70.5 -177q-18 -75 -62 -362.5t-116 -449.5q-80 -174 -217.5 -273t-296.5 -99q-126 0 -211.5 59t-85.5 139q0 44 27.5 75.5t64.5 31.5q32 0 53 -17t21 -42q0 -20 -11.5 -34t-25.5 -14
q-5 0 -10 0.5t-11 1.5zM1298 1743q0 25 16 41t42 16q14 0 24 -11t10 -28q0 -26 -14 -42.5t-37 -16.5q-19 0 -30 11t-11 30zM1538 1743q0 25 16 41t41 16q15 0 25 -11t10 -28q0 -26 -15 -42.5t-38 -16.5q-19 0 -29 10.5t-10 30.5z" />
    <glyph glyph-name="fraction" unicode="&#x2215;" horiz-adv-x="242" 
d="M-242 -14l672 682h53l-671 -682h-54z" />
    <glyph glyph-name="currency" unicode="&#xa4;" horiz-adv-x="1241" 
d="M623 1217q-138 0 -235 -97t-97 -233q0 -138 97 -235t235 -97q137 0 234 97t97 235q0 137 -96.5 233.5t-234.5 96.5zM152 1411l206 -207q60 48 125 71t138 23q72 0 138 -23.5t126 -70.5l205 207l59 -59l-207 -205q45 -58 68.5 -124.5t23.5 -137.5q0 -73 -23 -138.5
t-69 -123.5l207 -205l-59 -60l-205 207q-58 -45 -125 -68.5t-139 -23.5q-74 0 -139 23t-124 69l-206 -207l-58 60l207 205q-45 57 -68.5 123.5t-23.5 138.5q0 71 23.5 137.5t68.5 124.5l-207 205z" />
    <glyph glyph-name="guilsinglleft" unicode="&#x2039;" horiz-adv-x="299" 
d="M154 403l16 -22l-139 -148l63 -145l-20 -20l-125 163z" />
    <glyph glyph-name="guilsinglright" unicode="&#x203a;" horiz-adv-x="299" 
d="M-63 68l-17 22l139 146l-63 147l20 20l125 -163z" />
    <glyph glyph-name="fi" unicode="&#xf001;" horiz-adv-x="682" 
d="M-74 426v35h160l74 391q59 320 136.5 473.5t178.5 153.5q35 0 57.5 -19t22.5 -47q0 -19 -12.5 -32t-30.5 -13q-17 0 -26 7.5t-11 22.5q12 7 18.5 14.5t6.5 14.5q0 8 -12 15.5t-25 7.5q-68 0 -121 -132t-113 -454l-75 -403h141q56 0 95 1t79 3l-88 -340l-9.5 -36l-4.5 -17
q0 -31 8 -39t26 -8t54.5 28.5t72.5 73.5l23 -18q-56 -66 -97 -94.5t-79 -28.5q-33 0 -54.5 21t-21.5 52q0 14 11 55q6 23 9 37l46 179q0 3 2 10q10 38 10 57q0 14 -14 21.5t-39 7.5h-29h-148l-34 -193q-50 -265 -114.5 -396.5t-145.5 -131.5q-32 0 -50 16t-18 43
q0 14 11 24.5t26 10.5q8 0 14.5 -2t11.5 -6q-5 -9 -7.5 -16t-2.5 -13q0 -12 7 -20t18 -8q48 0 82 76t75 292l60 324h-154zM457 872q0 18 14.5 33t32.5 15q20 0 34.5 -14t14.5 -34q0 -19 -14.5 -33t-34.5 -14q-18 0 -32.5 15t-14.5 32z" />
    <glyph glyph-name="fl" unicode="&#xf002;" horiz-adv-x="682" 
d="M80 426h-154v35h160l74 391q59 320 136.5 473.5t178.5 153.5q35 0 57.5 -19t22.5 -47q0 -19 -12.5 -32t-30.5 -13q-17 0 -26 7.5t-11 22.5q12 7 18.5 14.5t6.5 14.5q0 8 -12 15.5t-25 7.5q-68 0 -121 -132t-113 -454l-75 -403h141v-35h-148l-34 -193
q-50 -265 -114.5 -396.5t-145.5 -131.5q-32 0 -50 16t-18 43q0 14 11 24.5t26 10.5q8 0 14.5 -2t11.5 -6q-5 -9 -7.5 -16t-2.5 -13q0 -12 7 -20t18 -8q48 0 82 76t75 292zM324 152l245 1029q3 11 4.5 21.5t1.5 22.5q0 8 -3 13t-7 5q-12 0 -40 -23t-64 -63l-23 19
q52 57 90 85.5t64 28.5q25 0 38 -16.5t13 -46.5q0 -5 -1.5 -14t-4.5 -21l-256 -1067l-5 -22q-7 -31 -7 -42q0 -18 7 -27t21 -9q23 0 58.5 27.5t72.5 74.5l23 -18q-56 -66 -97 -94.5t-79 -28.5q-30 0 -49 18.5t-19 48.5q0 19 3.5 41t13.5 58z" />
    <glyph glyph-name="daggerdbl" unicode="&#x2021;" 
d="M422 291q72 0 178 11t139 11q29 0 45.5 -9t16.5 -25q0 -15 -21.5 -26t-54.5 -11q-4 0 -107 9.5t-202 12.5q-22 -110 -42 -269q-21 -175 -63 -175q-13 0 -22.5 12.5t-9.5 30.5q0 24 42.5 157t67.5 244h-16q-75 0 -174.5 -12t-124.5 -12q-29 0 -47.5 10.5t-18.5 25.5
q0 16 22 26.5t56 10.5q5 0 106 -9t201 -13l49 385l111 385q-72 0 -177.5 -12.5t-139.5 -12.5q-29 0 -46.5 10.5t-17.5 26.5q0 14 22.5 24.5t55.5 10.5q6 0 107.5 -8.5t199.5 -11.5q22 110 42 268q21 176 63 176q12 0 22 -13t10 -30q0 -26 -42 -158.5t-66 -243.5h16
q77 0 174 11.5t119 11.5q34 0 52 -9.5t18 -27.5q0 -14 -22 -25.5t-54 -11.5q-6 0 -108 9t-201 14l-52 -383z" />
    <glyph glyph-name="periodcentered" unicode="&#xb7;" horiz-adv-x="365" 
d="M59 328q0 19 14 33t33 14q20 0 34 -14t14 -33t-14.5 -33t-33.5 -14q-18 0 -32.5 14t-14.5 33z" />
    <glyph glyph-name="quotesinglbase" unicode="&#x201a;" horiz-adv-x="365" 
d="M-2 -203l59 250l109 33l-143 -299z" />
    <glyph glyph-name="quotedblbase" unicode="&#x201e;" horiz-adv-x="573" 
d="M207 -203l59 250l109 33l-144 -299zM-2 -203l59 250l109 33l-143 -299z" />
    <glyph glyph-name="perthousand" unicode="&#x2030;" horiz-adv-x="1550" 
d="M1112 -246q100 0 184 98t84 218q0 82 -38.5 132t-100.5 50q-87 0 -164.5 -110.5t-77.5 -237.5q0 -68 32 -109t81 -41zM1112 -274q-75 0 -123.5 58t-48.5 150q0 136 93 241.5t208 105.5q74 0 120 -58.5t46 -152.5q0 -134 -91.5 -239t-203.5 -105zM545 -246q100 0 184 98
t84 218q0 82 -39 132t-100 50q-87 0 -163.5 -110.5t-76.5 -237.5q0 -68 31 -109t80 -41zM545 -274q-76 0 -124 58t-48 150q0 136 92.5 241.5t208.5 105.5q74 0 121 -58.5t47 -152.5q0 -133 -92.5 -238.5t-204.5 -105.5zM168 391q95 0 178.5 98t83.5 218q0 82 -38 132t-99 50
q-87 0 -164.5 -111.5t-77.5 -238.5q0 -69 31.5 -108.5t85.5 -39.5zM-31 -270l776 1106q-40 -27 -81 -39.5t-86 -12.5q-40 0 -75.5 10t-68.5 29q12 -26 18.5 -55t6.5 -61q0 -133 -92.5 -239t-204.5 -106q-76 0 -123 57t-47 150q0 136 92.5 242.5t208.5 106.5
q40 0 124.5 -52.5t166.5 -52.5q64 0 130.5 32.5t104.5 84.5h33l-832 -1200h-51z" />
    <glyph glyph-name="Acircumflex" unicode="&#xc2;" horiz-adv-x="1892" 
d="M936 735q64 -1 120.5 -19t106.5 -52q50 34 114.5 50.5t149.5 16.5q54 0 118 -11q5 -1 7 -1q16 61 23.5 119t7.5 110q0 114 -37 205.5t-119 177.5q-171 -103 -292.5 -250t-198.5 -346zM1157 625q-29 -28 -43 -52.5t-14 -48.5q0 -20 10 -31.5t27 -11.5q19 0 35 20t16 48
q0 18 -7.5 36.5t-23.5 39.5zM1714 180l25 -12q-50 -88 -106.5 -137t-104.5 -49q-45 0 -69.5 38.5t-24.5 108.5q0 74 63 343q32 138 49 218q-25 7 -55.5 11t-63.5 4q-81 0 -140 -15.5t-103 -48.5q16 -25 24.5 -48t8.5 -44q0 -44 -23.5 -70t-60.5 -26q-28 0 -46 20.5t-18 52.5
q0 29 16.5 58.5t51.5 62.5q-45 30 -97 45t-108 15h-10q-173 -363 -361.5 -547.5t-388.5 -184.5q-111 0 -186.5 45.5t-75.5 108.5q0 29 18.5 48.5t44.5 19.5q27 0 43.5 -13.5t16.5 -36.5q0 -2 -2 -7.5t-6 -14.5q-6 10 -11.5 13t-17.5 3q-16 0 -25.5 -10t-9.5 -27
q0 -38 62 -69t149 -31q177 0 316 140t341 558q-63 -10 -120.5 -28.5t-110.5 -44.5l-12 26q69 34 133 53t127 25q107 216 244.5 369.5t314.5 255.5q-87 73 -197.5 109t-246.5 36q-170 0 -318 -64t-274 -192q-117 -118 -179.5 -263t-62.5 -298q0 -98 26.5 -192.5t79.5 -188.5
l-24 -16q-63 108 -94 216t-31 218q0 143 51 274t150 240q126 140 304 217.5t374 77.5q141 0 259 -39.5t216 -120.5q45 24 99.5 46t121.5 44l12 -26q-70 -25 -120.5 -46.5t-88.5 -41.5q101 -101 146 -210t45 -253q0 -42 -5 -88t-13 -95q20 -6 43 -16t51 -24l-11 -27
q-25 12 -47 21t-41 15l-55 -231q-70 -289 -70 -338q0 -39 11.5 -56t35.5 -17q32 0 79 42t83 109zM1501 1743q-64 -51 -127.5 -84t-87.5 -33q-6 0 -11 2.5t-5 5.5q0 6 34 28q37 23 64 42q51 35 97 83t53 48q10 0 26 -33q13 -26 23 -43q22 -39 51 -78t29 -43q-1 -5 -5 -8.5
t-10 -3.5q-12 0 -44 28.5t-87 88.5z" />
    <glyph glyph-name="Ecircumflex" unicode="&#xca;" horiz-adv-x="1366" 
d="M440 354l-26 8q49 186 173 298t277 112q149 0 241.5 -87.5t92.5 -225.5q0 -195 -173 -334t-419 -139q-252 0 -408.5 122.5t-156.5 315.5q0 158 111 283.5t313 195.5q54 19 135 40q77 20 78 36q0 15 -51 25q-25 4 -42 8q-67 15 -108 67t-41 123q0 141 125.5 236.5
t315.5 95.5q121 0 204.5 -57t83.5 -136q0 -33 -15.5 -54t-39.5 -21q-19 0 -31 13.5t-12 35.5q0 7 0.5 11t1.5 7q4 -1 10 -3q13 -5 17 -5q13 0 20.5 9.5t7.5 25.5q0 56 -73 100.5t-181 44.5q-152 0 -255 -94.5t-103 -226.5q0 -62 24.5 -98t76.5 -50q10 -3 29 -7
q63 -14 63 -50t-97 -64q-54 -16 -90 -28q-194 -66 -291.5 -187.5t-97.5 -296.5q0 -181 124.5 -285t342.5 -104q235 0 404 129.5t169 294.5q0 132 -83 211.5t-220 79.5q-155 0 -266 -97.5t-160 -277.5zM903 1743q-64 -51 -127.5 -84t-87.5 -33q-6 0 -11 2.5t-5 5.5q0 6 34 28
q37 23 64 42q51 35 97 83t53 48q10 0 26 -33q13 -26 23 -43q22 -39 51 -78t29 -43q-1 -5 -5 -8.5t-10 -3.5q-12 0 -44 28.5t-87 88.5z" />
    <glyph glyph-name="Aacute" unicode="&#xc1;" horiz-adv-x="1892" 
d="M936 735q64 -1 120.5 -19t106.5 -52q50 34 114.5 50.5t149.5 16.5q54 0 118 -11q5 -1 7 -1q16 61 23.5 119t7.5 110q0 114 -37 205.5t-119 177.5q-171 -103 -292.5 -250t-198.5 -346zM1157 625q-29 -28 -43 -52.5t-14 -48.5q0 -20 10 -31.5t27 -11.5q19 0 35 20t16 48
q0 18 -7.5 36.5t-23.5 39.5zM1714 180l25 -12q-50 -88 -106.5 -137t-104.5 -49q-45 0 -69.5 38.5t-24.5 108.5q0 74 63 343q32 138 49 218q-25 7 -55.5 11t-63.5 4q-81 0 -140 -15.5t-103 -48.5q16 -25 24.5 -48t8.5 -44q0 -44 -23.5 -70t-60.5 -26q-28 0 -46 20.5t-18 52.5
q0 29 16.5 58.5t51.5 62.5q-45 30 -97 45t-108 15h-10q-173 -363 -361.5 -547.5t-388.5 -184.5q-111 0 -186.5 45.5t-75.5 108.5q0 29 18.5 48.5t44.5 19.5q27 0 43.5 -13.5t16.5 -36.5q0 -2 -2 -7.5t-6 -14.5q-6 10 -11.5 13t-17.5 3q-16 0 -25.5 -10t-9.5 -27
q0 -38 62 -69t149 -31q177 0 316 140t341 558q-63 -10 -120.5 -28.5t-110.5 -44.5l-12 26q69 34 133 53t127 25q107 216 244.5 369.5t314.5 255.5q-87 73 -197.5 109t-246.5 36q-170 0 -318 -64t-274 -192q-117 -118 -179.5 -263t-62.5 -298q0 -98 26.5 -192.5t79.5 -188.5
l-24 -16q-63 108 -94 216t-31 218q0 143 51 274t150 240q126 140 304 217.5t374 77.5q141 0 259 -39.5t216 -120.5q45 24 99.5 46t121.5 44l12 -26q-70 -25 -120.5 -46.5t-88.5 -41.5q101 -101 146 -210t45 -253q0 -42 -5 -88t-13 -95q20 -6 43 -16t51 -24l-11 -27
q-25 12 -47 21t-41 15l-55 -231q-70 -289 -70 -338q0 -39 11.5 -56t35.5 -17q32 0 79 42t83 109zM1440 1624q-5 0 -8.5 2.5t-3.5 7.5q0 6 45.5 30t77.5 61q7 8 31 55t53 47q24 0 35.5 -9t11.5 -28q0 -46 -96.5 -106t-145.5 -60z" />
    <glyph glyph-name="Edieresis" unicode="&#xcb;" horiz-adv-x="1366" 
d="M440 354l-26 8q49 186 173 298t277 112q149 0 241.5 -87.5t92.5 -225.5q0 -195 -173 -334t-419 -139q-252 0 -408.5 122.5t-156.5 315.5q0 158 111 283.5t313 195.5q54 19 135 40q77 20 78 36q0 15 -51 25q-25 4 -42 8q-67 15 -108 67t-41 123q0 141 125.5 236.5
t315.5 95.5q121 0 204.5 -57t83.5 -136q0 -33 -15.5 -54t-39.5 -21q-19 0 -31 13.5t-12 35.5q0 7 0.5 11t1.5 7q4 -1 10 -3q13 -5 17 -5q13 0 20.5 9.5t7.5 25.5q0 56 -73 100.5t-181 44.5q-152 0 -255 -94.5t-103 -226.5q0 -62 24.5 -98t76.5 -50q10 -3 29 -7
q63 -14 63 -50t-97 -64q-54 -16 -90 -28q-194 -66 -291.5 -187.5t-97.5 -296.5q0 -181 124.5 -285t342.5 -104q235 0 404 129.5t169 294.5q0 132 -83 211.5t-220 79.5q-155 0 -266 -97.5t-160 -277.5zM729 1743q0 25 16 41t42 16q14 0 24 -11t10 -28q0 -26 -14 -42.5
t-37 -16.5q-19 0 -30 11t-11 30zM969 1743q0 25 16 41t41 16q15 0 25 -11t10 -28q0 -26 -15 -42.5t-38 -16.5q-19 0 -29 10.5t-10 30.5z" />
    <glyph glyph-name="Egrave" unicode="&#xc8;" horiz-adv-x="1366" 
d="M440 354l-26 8q49 186 173 298t277 112q149 0 241.5 -87.5t92.5 -225.5q0 -195 -173 -334t-419 -139q-252 0 -408.5 122.5t-156.5 315.5q0 158 111 283.5t313 195.5q54 19 135 40q77 20 78 36q0 15 -51 25q-25 4 -42 8q-67 15 -108 67t-41 123q0 141 125.5 236.5
t315.5 95.5q121 0 204.5 -57t83.5 -136q0 -33 -15.5 -54t-39.5 -21q-19 0 -31 13.5t-12 35.5q0 7 0.5 11t1.5 7q4 -1 10 -3q13 -5 17 -5q13 0 20.5 9.5t7.5 25.5q0 56 -73 100.5t-181 44.5q-152 0 -255 -94.5t-103 -226.5q0 -62 24.5 -98t76.5 -50q10 -3 29 -7
q63 -14 63 -50t-97 -64q-54 -16 -90 -28q-194 -66 -291.5 -187.5t-97.5 -296.5q0 -181 124.5 -285t342.5 -104q235 0 404 129.5t169 294.5q0 132 -83 211.5t-220 79.5q-155 0 -266 -97.5t-160 -277.5zM977 1634q0 -4 -3 -6t-9 -2q-48 0 -145 59.5t-97 104.5q0 18 12.5 27.5
t36.5 9.5q29 0 51.5 -46.5t30.5 -55.5q31 -36 77 -60.5t46 -30.5z" />
    <glyph glyph-name="Iacute" unicode="&#xcd;" horiz-adv-x="1327" 
d="M513 737q107 -6 207 -36.5t189 -84.5l-12 -24q-87 50 -181.5 78t-174.5 28h-25q12 -105 70.5 -174t150.5 -88l-6 -26q-101 21 -163.5 94.5t-82.5 193.5h-26q-181 0 -314 -107t-133 -251q0 -143 124.5 -236.5t322.5 -93.5q187 0 324 90t206 258q40 99 90 423l23 141
q16 103 33 165.5t41 110.5q34 71 92 112.5t139 55.5q43 7 60.5 17t17.5 26q0 33 -52 52.5t-141 19.5q-126 0 -257.5 -48t-243.5 -135q-135 -104 -208 -236t-73 -271q0 -20 0.5 -31.5t2.5 -22.5zM483 739q0 6 -1 15t-1 12q0 155 64 291t192 254q115 103 255.5 160t283.5 57
q108 0 172.5 -33.5t64.5 -87.5q0 -28 -17.5 -44t-61.5 -24q-73 -14 -103.5 -31.5t-52.5 -50.5q-41 -58 -77.5 -322t-76.5 -421q-61 -247 -234.5 -387.5t-418.5 -140.5q-212 0 -346.5 99.5t-134.5 252.5q0 166 139.5 281.5t353.5 119.5zM1204 1624q-5 0 -8.5 2.5t-3.5 7.5
q0 6 45.5 30t77.5 61q7 8 31 55t53 47q24 0 35.5 -9t11.5 -28q0 -46 -96.5 -106t-145.5 -60z" />
    <glyph glyph-name="Icircumflex" unicode="&#xce;" horiz-adv-x="1327" 
d="M513 737q107 -6 207 -36.5t189 -84.5l-12 -24q-87 50 -181.5 78t-174.5 28h-25q12 -105 70.5 -174t150.5 -88l-6 -26q-101 21 -163.5 94.5t-82.5 193.5h-26q-181 0 -314 -107t-133 -251q0 -143 124.5 -236.5t322.5 -93.5q187 0 324 90t206 258q40 99 90 423l23 141
q16 103 33 165.5t41 110.5q34 71 92 112.5t139 55.5q43 7 60.5 17t17.5 26q0 33 -52 52.5t-141 19.5q-126 0 -257.5 -48t-243.5 -135q-135 -104 -208 -236t-73 -271q0 -20 0.5 -31.5t2.5 -22.5zM483 739q0 6 -1 15t-1 12q0 155 64 291t192 254q115 103 255.5 160t283.5 57
q108 0 172.5 -33.5t64.5 -87.5q0 -28 -17.5 -44t-61.5 -24q-73 -14 -103.5 -31.5t-52.5 -50.5q-41 -58 -77.5 -322t-76.5 -421q-61 -247 -234.5 -387.5t-418.5 -140.5q-212 0 -346.5 99.5t-134.5 252.5q0 166 139.5 281.5t353.5 119.5zM1265 1743q-64 -51 -127.5 -84
t-87.5 -33q-6 0 -11 2.5t-5 5.5q0 6 34 28q37 23 64 42q51 35 97 83t53 48q10 0 26 -33q13 -26 23 -43q22 -39 51 -78t29 -43q-1 -5 -5 -8.5t-10 -3.5q-12 0 -44 28.5t-87 88.5z" />
    <glyph glyph-name="Idieresis" unicode="&#xcf;" horiz-adv-x="1327" 
d="M513 737q107 -6 207 -36.5t189 -84.5l-12 -24q-87 50 -181.5 78t-174.5 28h-25q12 -105 70.5 -174t150.5 -88l-6 -26q-101 21 -163.5 94.5t-82.5 193.5h-26q-181 0 -314 -107t-133 -251q0 -143 124.5 -236.5t322.5 -93.5q187 0 324 90t206 258q40 99 90 423l23 141
q16 103 33 165.5t41 110.5q34 71 92 112.5t139 55.5q43 7 60.5 17t17.5 26q0 33 -52 52.5t-141 19.5q-126 0 -257.5 -48t-243.5 -135q-135 -104 -208 -236t-73 -271q0 -20 0.5 -31.5t2.5 -22.5zM483 739q0 6 -1 15t-1 12q0 155 64 291t192 254q115 103 255.5 160t283.5 57
q108 0 172.5 -33.5t64.5 -87.5q0 -28 -17.5 -44t-61.5 -24q-73 -14 -103.5 -31.5t-52.5 -50.5q-41 -58 -77.5 -322t-76.5 -421q-61 -247 -234.5 -387.5t-418.5 -140.5q-212 0 -346.5 99.5t-134.5 252.5q0 166 139.5 281.5t353.5 119.5zM1091 1743q0 25 16 41t42 16
q14 0 24 -11t10 -28q0 -26 -14 -42.5t-37 -16.5q-19 0 -30 11t-11 30zM1331 1743q0 25 16 41t41 16q15 0 25 -11t10 -28q0 -26 -15 -42.5t-38 -16.5q-19 0 -29 10.5t-10 30.5z" />
    <glyph glyph-name="Igrave" unicode="&#xcc;" horiz-adv-x="1327" 
d="M513 737q107 -6 207 -36.5t189 -84.5l-12 -24q-87 50 -181.5 78t-174.5 28h-25q12 -105 70.5 -174t150.5 -88l-6 -26q-101 21 -163.5 94.5t-82.5 193.5h-26q-181 0 -314 -107t-133 -251q0 -143 124.5 -236.5t322.5 -93.5q187 0 324 90t206 258q40 99 90 423l23 141
q16 103 33 165.5t41 110.5q34 71 92 112.5t139 55.5q43 7 60.5 17t17.5 26q0 33 -52 52.5t-141 19.5q-126 0 -257.5 -48t-243.5 -135q-135 -104 -208 -236t-73 -271q0 -20 0.5 -31.5t2.5 -22.5zM483 739q0 6 -1 15t-1 12q0 155 64 291t192 254q115 103 255.5 160t283.5 57
q108 0 172.5 -33.5t64.5 -87.5q0 -28 -17.5 -44t-61.5 -24q-73 -14 -103.5 -31.5t-52.5 -50.5q-41 -58 -77.5 -322t-76.5 -421q-61 -247 -234.5 -387.5t-418.5 -140.5q-212 0 -346.5 99.5t-134.5 252.5q0 166 139.5 281.5t353.5 119.5zM1339 1634q0 -4 -3 -6t-9 -2
q-48 0 -145 59.5t-97 104.5q0 18 12.5 27.5t36.5 9.5q29 0 51.5 -46.5t30.5 -55.5q31 -36 77 -60.5t46 -30.5z" />
    <glyph glyph-name="Oacute" unicode="&#xd3;" horiz-adv-x="1579" 
d="M1020 964q-9 -155 -81 -245t-185 -90q-112 0 -186 89t-74 226q0 94 36 187.5t103 171.5q-216 -67 -348.5 -262.5t-132.5 -446.5q0 -250 139.5 -415t351.5 -165q121 0 252 59.5t246 166.5q146 138 223.5 316t77.5 376q0 244 -118 407.5t-288 163.5q-80 0 -161.5 -39.5
t-159.5 -115.5q19 5 40 7.5t44 2.5q18 0 32 -0.5t29 -2.5v-28q-8 0 -24 1t-25 1q-33 0 -65.5 -4t-67.5 -12q-74 -82 -114 -177t-40 -192q0 -125 65.5 -206t164.5 -81q101 0 164.5 82t72.5 225h29zM662 1337q100 100 192.5 147.5t183.5 47.5q207 0 339 -164.5t132 -423.5
q0 -189 -91.5 -384t-248.5 -337q-128 -118 -265.5 -177.5t-278.5 -59.5q-249 0 -402 164t-153 434q0 264 166 476t426 277zM1026 1624q-5 0 -8.5 2.5t-3.5 7.5q0 6 45.5 30t77.5 61q7 8 31 55t53 47q24 0 35.5 -9t11.5 -28q0 -46 -96.5 -106t-145.5 -60z" />
    <glyph glyph-name="Ocircumflex" unicode="&#xd4;" horiz-adv-x="1579" 
d="M1020 964q-9 -155 -81 -245t-185 -90q-112 0 -186 89t-74 226q0 94 36 187.5t103 171.5q-216 -67 -348.5 -262.5t-132.5 -446.5q0 -250 139.5 -415t351.5 -165q121 0 252 59.5t246 166.5q146 138 223.5 316t77.5 376q0 244 -118 407.5t-288 163.5q-80 0 -161.5 -39.5
t-159.5 -115.5q19 5 40 7.5t44 2.5q18 0 32 -0.5t29 -2.5v-28q-8 0 -24 1t-25 1q-33 0 -65.5 -4t-67.5 -12q-74 -82 -114 -177t-40 -192q0 -125 65.5 -206t164.5 -81q101 0 164.5 82t72.5 225h29zM662 1337q100 100 192.5 147.5t183.5 47.5q207 0 339 -164.5t132 -423.5
q0 -189 -91.5 -384t-248.5 -337q-128 -118 -265.5 -177.5t-278.5 -59.5q-249 0 -402 164t-153 434q0 264 166 476t426 277zM1087 1743q-64 -51 -127.5 -84t-87.5 -33q-6 0 -11 2.5t-5 5.5q0 6 34 28q37 23 64 42q51 35 97 83t53 48q10 0 26 -33q13 -26 23 -43q22 -39 51 -78
t29 -43q-1 -5 -5 -8.5t-10 -3.5q-12 0 -44 28.5t-87 88.5z" />
    <glyph glyph-name="apple" unicode="&#xf000;" horiz-adv-x="1618" 
d="M836 1216q-1 6 -1.5 14t-0.5 23q0 124 95 229.5t236 131.5q1 -10 1.5 -23t0.5 -39q0 -131 -103.5 -234.5t-203.5 -103.5h-8q-3 0 -7.5 1t-8.5 1zM1505 403q-114 -247 -205 -342.5t-204 -95.5q-50 0 -131.5 33t-122.5 33q-45 0 -131 -33t-127 -33q-64 0 -128.5 44
t-129.5 132q-102 140 -157.5 295.5t-55.5 300.5q0 219 125 356.5t323 137.5q68 0 155 -34t124 -34q34 0 121.5 35t152.5 35q110 0 198 -40t161 -124q-102 -65 -151.5 -145.5t-49.5 -182.5q0 -113 60 -200t173 -138z" />
    <glyph glyph-name="Ograve" unicode="&#xd2;" horiz-adv-x="1579" 
d="M1020 964q-9 -155 -81 -245t-185 -90q-112 0 -186 89t-74 226q0 94 36 187.5t103 171.5q-216 -67 -348.5 -262.5t-132.5 -446.5q0 -250 139.5 -415t351.5 -165q121 0 252 59.5t246 166.5q146 138 223.5 316t77.5 376q0 244 -118 407.5t-288 163.5q-80 0 -161.5 -39.5
t-159.5 -115.5q19 5 40 7.5t44 2.5q18 0 32 -0.5t29 -2.5v-28q-8 0 -24 1t-25 1q-33 0 -65.5 -4t-67.5 -12q-74 -82 -114 -177t-40 -192q0 -125 65.5 -206t164.5 -81q101 0 164.5 82t72.5 225h29zM662 1337q100 100 192.5 147.5t183.5 47.5q207 0 339 -164.5t132 -423.5
q0 -189 -91.5 -384t-248.5 -337q-128 -118 -265.5 -177.5t-278.5 -59.5q-249 0 -402 164t-153 434q0 264 166 476t426 277zM1161 1634q0 -4 -3 -6t-9 -2q-48 0 -145 59.5t-97 104.5q0 18 12.5 27.5t36.5 9.5q29 0 51.5 -46.5t30.5 -55.5q31 -36 77 -60.5t46 -30.5z" />
    <glyph glyph-name="Uacute" unicode="&#xda;" horiz-adv-x="2048" 
d="M1847 211l25 -14q-62 -106 -123 -158.5t-121 -52.5q-56 0 -84 43t-28 127q0 151 45.5 338t134.5 399q74 177 165 325l91 148q0 7 -6 11.5t-15 4.5q-41 0 -138 -129.5t-181 -316.5q-29 -64 -109 -270t-145 -322q-104 -184 -219.5 -274t-247.5 -90q-116 0 -183 65t-67 178
q0 95 112 386l17 44l64 166q116 296 116 391q0 126 -81 209.5t-201 83.5q-114 0 -213 -51t-185 -154q-82 -99 -127 -225t-45 -260q0 -210 107 -361t282 -188l-2 -26q-193 43 -304 199.5t-111 387.5q0 131 46 260.5t130 231.5q89 107 195 161t231 54q157 0 256.5 -101
t99.5 -262q0 -103 -114 -382q-25 -60 -37 -93l-31 -75q-146 -363 -146 -443q0 -77 50.5 -122.5t136.5 -45.5q102 0 195 58t178 176q103 143 225 461l51 128q105 256 219 418t178 162q19 0 33 -13t14 -30q0 -19 -51.5 -101t-87.5 -151q-68 -128 -118 -279.5t-83 -328.5
q-21 -111 -33 -204.5t-12 -145.5q0 -61 18 -90t54 -29q40 0 84 42t96 130zM1385 1624q-5 0 -8.5 2.5t-3.5 7.5q0 6 45.5 30t77.5 61q7 8 31 55t53 47q24 0 35.5 -9t11.5 -28q0 -46 -96.5 -106t-145.5 -60z" />
    <glyph glyph-name="Ucircumflex" unicode="&#xdb;" horiz-adv-x="2048" 
d="M1847 211l25 -14q-62 -106 -123 -158.5t-121 -52.5q-56 0 -84 43t-28 127q0 151 45.5 338t134.5 399q74 177 165 325l91 148q0 7 -6 11.5t-15 4.5q-41 0 -138 -129.5t-181 -316.5q-29 -64 -109 -270t-145 -322q-104 -184 -219.5 -274t-247.5 -90q-116 0 -183 65t-67 178
q0 95 112 386l17 44l64 166q116 296 116 391q0 126 -81 209.5t-201 83.5q-114 0 -213 -51t-185 -154q-82 -99 -127 -225t-45 -260q0 -210 107 -361t282 -188l-2 -26q-193 43 -304 199.5t-111 387.5q0 131 46 260.5t130 231.5q89 107 195 161t231 54q157 0 256.5 -101
t99.5 -262q0 -103 -114 -382q-25 -60 -37 -93l-31 -75q-146 -363 -146 -443q0 -77 50.5 -122.5t136.5 -45.5q102 0 195 58t178 176q103 143 225 461l51 128q105 256 219 418t178 162q19 0 33 -13t14 -30q0 -19 -51.5 -101t-87.5 -151q-68 -128 -118 -279.5t-83 -328.5
q-21 -111 -33 -204.5t-12 -145.5q0 -61 18 -90t54 -29q40 0 84 42t96 130zM1446 1743q-64 -51 -127.5 -84t-87.5 -33q-6 0 -11 2.5t-5 5.5q0 6 34 28q37 23 64 42q51 35 97 83t53 48q10 0 26 -33q13 -26 23 -43q22 -39 51 -78t29 -43q-1 -5 -5 -8.5t-10 -3.5q-12 0 -44 28.5
t-87 88.5z" />
    <glyph glyph-name="Ugrave" unicode="&#xd9;" horiz-adv-x="2048" 
d="M1847 211l25 -14q-62 -106 -123 -158.5t-121 -52.5q-56 0 -84 43t-28 127q0 151 45.5 338t134.5 399q74 177 165 325l91 148q0 7 -6 11.5t-15 4.5q-41 0 -138 -129.5t-181 -316.5q-29 -64 -109 -270t-145 -322q-104 -184 -219.5 -274t-247.5 -90q-116 0 -183 65t-67 178
q0 95 112 386l17 44l64 166q116 296 116 391q0 126 -81 209.5t-201 83.5q-114 0 -213 -51t-185 -154q-82 -99 -127 -225t-45 -260q0 -210 107 -361t282 -188l-2 -26q-193 43 -304 199.5t-111 387.5q0 131 46 260.5t130 231.5q89 107 195 161t231 54q157 0 256.5 -101
t99.5 -262q0 -103 -114 -382q-25 -60 -37 -93l-31 -75q-146 -363 -146 -443q0 -77 50.5 -122.5t136.5 -45.5q102 0 195 58t178 176q103 143 225 461l51 128q105 256 219 418t178 162q19 0 33 -13t14 -30q0 -19 -51.5 -101t-87.5 -151q-68 -128 -118 -279.5t-83 -328.5
q-21 -111 -33 -204.5t-12 -145.5q0 -61 18 -90t54 -29q40 0 84 42t96 130zM1520 1634q0 -4 -3 -6t-9 -2q-48 0 -145 59.5t-97 104.5q0 18 12.5 27.5t36.5 9.5q29 0 51.5 -46.5t30.5 -55.5q31 -36 77 -60.5t46 -30.5z" />
    <glyph glyph-name="dotlessi" unicode="&#x131;" horiz-adv-x="426" 
d="M125 125q-8 -27 -11 -43.5t-3 -26.5q0 -16 8.5 -23t25.5 -7q18 0 54.5 28.5t72.5 73.5l23 -18q-56 -66 -97 -94.5t-79 -28.5q-33 0 -54.5 21t-21.5 52q0 14 11 55q6 23 9 37l45 178l5 18q8 34 8 46q0 13 -7 22t-18 9q-20 0 -49 -27.5t-67 -83.5l-23 17q47 71 87 103
t81 32q28 0 45.5 -19.5t17.5 -50.5q0 -26 -12 -70q-3 -11 -4 -16z" />
    <glyph glyph-name="circumflex" unicode="&#x2c6;" 
d="M528 676q-64 -51 -127.5 -84t-87.5 -33q-6 0 -11 2.5t-5 5.5q0 6 34 28q37 23 64 42q51 35 97 83t53 48q10 0 26 -33q13 -26 23 -43q22 -39 51 -78t29 -43q-1 -5 -5 -8.5t-10 -3.5q-12 0 -44 28.5t-87 88.5z" />
    <glyph glyph-name="tilde" unicode="&#x2dc;" 
d="M426 711q37 0 108.5 -19.5t108.5 -19.5t60.5 25.5t29.5 25.5q8 0 11 -1.5t4 -6.5q0 -32 -37.5 -67.5t-89.5 -35.5q-38 0 -110 20.5t-108 20.5t-59 -25.5t-33 -25.5q-5 0 -8.5 2.5t-3.5 5.5q0 30 38 65.5t89 35.5z" />
    <glyph glyph-name="macron" unicode="&#xaf;" 
d="M338 618q-10 1 -15.5 5t-5.5 10v2l9 27q3 7 8.5 10.5t15.5 3.5h357q8 0 14 -4.5t6 -9.5v-3l-8 -26q-3 -8 -7.5 -11t-15.5 -4h-358z" />
    <glyph glyph-name="breve" unicode="&#x2d8;" 
d="M373 762l38 -46t103 -46q72 0 152.5 45t81.5 45q4 0 7 -4t3 -11q0 -25 -88.5 -82t-159.5 -57q-64 0 -109 43.5t-45 91.5q0 10 4.5 15.5t12.5 5.5z" />
    <glyph glyph-name="dotaccent" unicode="&#x2d9;" 
d="M481 662q0 25 16 43t40 18q19 0 31 -11t12 -30q0 -28 -15.5 -46t-40.5 -18q-20 0 -31.5 12t-11.5 32z" />
    <glyph glyph-name="ring" unicode="&#x2da;" 
d="M426 664q0 45 32 76.5t79 31.5q45 0 77.5 -32t32.5 -76q0 -46 -33 -79.5t-77 -33.5q-47 0 -79 32.5t-32 80.5zM461 664q0 -35 21 -56.5t55 -21.5q32 0 53.5 22.5t21.5 55.5q0 30 -22 51.5t-53 21.5q-33 0 -54.5 -21t-21.5 -52z" />
    <glyph glyph-name="cedilla" unicode="&#xb8;" 
d="M385 0l-45 -92q6 0 16 1q27 3 35 3q51 0 78 -19.5t27 -56.5q0 -41 -41 -67.5t-107 -26.5q-71 0 -132.5 19t-61.5 32q0 5 2.5 7.5t7.5 2.5q9 0 63 -13t97 -13q45 0 74.5 16t29.5 39q0 22 -17 33.5t-49 11.5q-20 0 -30 -1t-19 -3l-28 8l67 119h33z" />
    <glyph glyph-name="hungarumlaut" unicode="&#x2dd;" 
d="M455 559q-5 0 -7.5 1.5t-3.5 4.5q0 7 40.5 34t66.5 67q11 16 24 47q19 47 46 47q14 0 23 -10.5t9 -26.5q0 -45 -78.5 -104.5t-119.5 -59.5zM618 559q-4 0 -6.5 1.5t-3.5 4.5q0 7 40.5 34t66.5 67q11 16 23 46q20 48 46 48q15 0 24 -10.5t9 -26.5q0 -45 -78.5 -104.5
t-120.5 -59.5z" />
    <glyph glyph-name="ogonek" unicode="&#x2db;" 
d="M426 0q-58 -32 -88.5 -68t-30.5 -73q0 -27 20 -43.5t52 -16.5q27 0 50.5 18.5t25.5 18.5q4 0 7 -2t3 -4q0 -17 -39.5 -43.5t-79.5 -26.5q-46 0 -71 20.5t-25 57.5q0 43 40 87.5t107 74.5h29z" />
    <glyph glyph-name="caron" unicode="&#x2c7;" 
d="M528 653q64 51 127.5 83t89.5 32q7 0 11 -1.5t4 -4.5q0 -7 -40 -33q-34 -22 -58 -39q-51 -35 -97 -83t-53 -48q-11 0 -28 35l-21 41q-21 38 -50.5 78t-29.5 45q0 4 4 7t10 3q13 0 46 -29t85 -86z" />
    <glyph glyph-name="Lslash" unicode="&#x141;" horiz-adv-x="1407" 
d="M422 182q-98 47 -180 69.5t-152 22.5q-93 0 -168.5 -43.5t-75.5 -95.5q0 -51 62 -85t160 -34q108 0 201 43.5t153 122.5zM459 252q30 51 43.5 104t13.5 125q0 30 -4 89v5l-299 -118l4 43l295 116q-3 26 -4.5 54.5t-1.5 60.5q0 161 30 287t93 225q84 134 213 211.5
t266 77.5q146 0 239 -84t93 -215q0 -129 -86 -225t-221 -117l-3 29q113 14 184.5 103.5t71.5 211.5q0 115 -79.5 190.5t-200.5 75.5q-233 0 -372.5 -187.5t-139.5 -508.5q0 -44 1 -79t3 -73l281 113l-2 -43l-279 -113q-5 -112 -31 -203t-75 -167q220 -115 359 -168.5
t216 -53.5q58 0 92.5 26.5t34.5 70.5q0 21 -16.5 37.5t-50.5 29.5q-5 2 -17 6q-86 31 -86 80q0 32 29 53t73 21v-29h-16q-21 0 -39 -14t-18 -31q0 -31 72 -55l34 -12q31 -13 47.5 -35t16.5 -51q0 -63 -54 -98t-151 -35q-88 0 -238 49t-329 137q-74 -86 -172 -133t-201 -47
q-118 0 -189 40.5t-71 104.5q0 77 96.5 134t230.5 57q68 0 145 -18t169 -54z" />
    <glyph glyph-name="lslash" unicode="&#x142;" horiz-adv-x="313" 
d="M-47 152l106 446l-141 -92l10 47l144 94l127 535q4 14 6 25.5t2 17.5q0 7 -3 12.5t-7 5.5q-14 0 -43.5 -23.5t-63.5 -62.5l-22 19q51 57 89 85.5t64 28.5q25 0 38 -16.5t13 -46.5q0 -10 -1 -18.5t-3 -16.5l-123 -504l144 92l-13 -47l-143 -92l-123 -517q-1 -5 -4 -16
q-8 -34 -8 -47q0 -18 7.5 -27t21.5 -9q22 0 57.5 27t75.5 75l22 -18q-54 -65 -96.5 -94t-81.5 -29q-30 0 -47.5 19.5t-17.5 53.5q0 16 2.5 34t11.5 59z" />
    <glyph glyph-name="Scaron" unicode="&#x160;" horiz-adv-x="1337" 
d="M1475 1401q9 -5 13.5 -6.5t8.5 -1.5q12 0 19.5 11t7.5 30q0 28 -35.5 50.5t-87.5 22.5q-113 0 -193 -108.5t-80 -278.5q0 -82 16.5 -232t16.5 -216q0 -292 -196.5 -489t-485.5 -197q-214 0 -355.5 121t-141.5 301q0 189 147 320.5t363 131.5q153 0 250.5 -72.5
t97.5 -187.5q0 -109 -84 -184.5t-211 -75.5q-72 0 -125.5 27t-91.5 82l22 18q36 -50 84 -74t111 -24q113 0 190.5 67t77.5 164q0 98 -84.5 152.5t-239.5 54.5q-208 0 -343.5 -113.5t-135.5 -285.5q0 -167 134 -280.5t335 -113.5q266 0 435 168.5t169 435.5q0 73 -12 220
t-12 221q0 211 98.5 344t243.5 133q76 0 128 -35.5t52 -85.5q0 -30 -19 -52t-44 -22q-21 0 -32 14t-11 40v6zM1427 1720q64 51 127.5 83t89.5 32q7 0 11 -1.5t4 -4.5q0 -7 -40 -33q-34 -22 -58 -39q-51 -35 -97 -83t-53 -48q-11 0 -28 35l-21 41q-21 38 -50.5 78t-29.5 45
q0 4 4 7t10 3q13 0 46 -29t85 -86z" />
    <glyph glyph-name="scaron" unicode="&#x161;" horiz-adv-x="408" 
d="M-6 119q-20 -5 -30.5 -16t-10.5 -27q0 -24 33.5 -43t83.5 -19q49 0 81.5 26.5t32.5 65.5q0 47 -109 120l-11 7q-40 27 -55 50t-15 55q0 49 50.5 88t117.5 39q48 0 82.5 -24t34.5 -56q0 -18 -11.5 -29.5t-27.5 -11.5q-6 0 -13.5 3t-19.5 11q14 7 20 14.5t6 18.5
q0 19 -21 31t-54 12q-48 0 -79.5 -20.5t-31.5 -51.5q0 -34 94.5 -101t94.5 -128q0 -64 -48 -105.5t-122 -41.5q-67 0 -112.5 32t-45.5 76q0 24 11.5 37.5t31.5 13.5q15 0 26.5 -7t16.5 -19zM221 653q64 51 127.5 83t89.5 32q7 0 11 -1.5t4 -4.5q0 -7 -40 -33
q-34 -22 -58 -39q-51 -35 -97 -83t-53 -48q-11 0 -28 35l-21 41q-21 38 -50.5 78t-29.5 45q0 4 4 7t10 3q13 0 46 -29t85 -86z" />
    <glyph glyph-name="Zcaron" unicode="&#x17d;" horiz-adv-x="1669" 
d="M715 754h188q137 185 269.5 323.5t254.5 225.5q36 24 89 56q63 37 63 54q0 9 -9 15t-22 6q-9 0 -99 -45.5t-173 -45.5q-107 0 -333 65t-335 65q-186 0 -316 -109.5t-130 -269.5q0 -135 84 -216t225 -81q154 0 245 89.5t91 241.5v15h29v-29q0 -152 -102 -249t-263 -97
q-153 0 -244.5 89t-91.5 237q0 191 151.5 315.5t385.5 124.5q143 0 353.5 -77t274.5 -77q72 0 153.5 41t100.5 41q22 0 37 -12.5t15 -30.5q0 -40 -83 -91q-52 -31 -83 -54q-100 -75 -195.5 -185t-247.5 -335h217v-33h-237q-183 -250 -348 -389t-357 -209q-36 -14 -94 -28
q-78 -20 -78 -48q0 -16 16.5 -26.5t43.5 -10.5q62 0 250.5 72t308.5 72q112 0 308.5 -52.5t287.5 -52.5q89 0 140.5 31.5t51.5 85.5q0 36 -25.5 61t-64.5 25q-18 0 -36 -4.5t-37 -13.5l-9 28q21 10 40.5 14.5t41.5 4.5q53 0 85 -30.5t32 -80.5q0 -78 -76.5 -136.5
t-185.5 -58.5q-71 0 -266 54.5t-326 54.5q-140 0 -309 -51t-207 -51q-42 0 -68 19.5t-26 49.5q0 46 100 71q46 11 70 19q164 56 311.5 188t327.5 392h-164v33zM1099 1720q64 51 127.5 83t89.5 32q7 0 11 -1.5t4 -4.5q0 -7 -40 -33q-34 -22 -58 -39q-51 -35 -97 -83t-53 -48
q-11 0 -28 35l-21 41q-21 38 -50.5 78t-29.5 45q0 4 4 7t10 3q13 0 46 -29t85 -86z" />
    <glyph glyph-name="zcaron" unicode="&#x17e;" horiz-adv-x="668" 
d="M365 387q17 -6 31.5 -9t27.5 -3q21 0 33 6.5t12 17.5q0 9 -7.5 14t-21.5 5q-19 0 -38.5 -8t-36.5 -23zM-43 -18l-18 22l36 27q65 94 136.5 172.5t154.5 146.5q-2 1 -5 3q-135 71 -183 71q-23 0 -37 -12.5t-14 -32.5q0 -13 6.5 -22t15.5 -9t15 8t6 21q8 -7 12 -13t4 -12
q0 -20 -11 -32.5t-28 -12.5q-21 0 -37 19t-16 47q0 39 33 65.5t84 26.5q36 0 83.5 -14.5t133.5 -53.5q36 24 64.5 36.5t47.5 12.5q27 0 41.5 -11t14.5 -32q0 -33 -34.5 -55t-86.5 -22q-25 0 -43 3t-33 9q-95 -79 -156.5 -144t-109.5 -134q7 2 22 8q69 28 117 28t111 -31.5
t88 -31.5q27 0 45 16.5t18 40.5q0 21 -15 33t-40 12q-10 0 -20.5 -1.5t-22.5 -4.5l-6 28q16 4 29.5 5.5t19.5 1.5q40 0 62 -20t22 -56q0 -46 -34 -74t-91 -28q-41 0 -118.5 28.5t-117.5 28.5q-20 0 -39 -3.5t-36 -10.5zM350 653q64 51 127.5 83t89.5 32q7 0 11 -1.5t4 -4.5
q0 -7 -40 -33q-34 -22 -58 -39q-51 -35 -97 -83t-53 -48q-11 0 -28 35l-21 41q-21 38 -50.5 78t-29.5 45q0 4 4 7t10 3q13 0 46 -29t85 -86z" />
    <glyph glyph-name="brokenbar" unicode="&#xa6;" 
d="M467 408h90v-758h-90v758zM467 1432h90v-758h-90v758z" />
    <glyph glyph-name="Eth" unicode="&#xd0;" horiz-adv-x="1663" 
d="M721 100q69 -42 127 -62t115 -20q81 0 172 40.5t161 107.5q127 122 200 306.5t73 383.5q0 162 -53 293t-156 223q-100 -71 -160.5 -214t-116.5 -480h267l-7 -39h-268q-34 -183 -122.5 -318t-231.5 -221zM651 59q-85 -36 -164 -54.5t-145 -18.5q-101 0 -166 35.5t-65 89.5
q0 52 60 86t155 34q72 0 159 -26t207 -84q120 62 189.5 185.5t101.5 332.5h-283l7 39h284q52 324 126 473t212 244q-74 54 -168.5 82t-202.5 28q-194 0 -356.5 -71t-284.5 -209q-94 -107 -144 -235.5t-50 -264.5q0 -174 79 -276t222 -113v-29q-169 19 -261.5 130.5
t-92.5 297.5q0 136 50.5 261t149.5 235q136 149 310.5 226t377.5 77q115 0 214 -30t186 -91q18 14 52 32.5t81 41.5l14 -25q-37 -18 -66.5 -35t-54.5 -36q103 -92 157 -228.5t54 -304.5q0 -237 -92 -443t-248 -319q-74 -55 -159.5 -82.5t-180.5 -27.5q-66 0 -130 17.5
t-134 55.5zM621 78q-112 63 -188.5 90t-139.5 27q-65 0 -106.5 -24t-41.5 -60q0 -41 57 -69t144 -28q64 0 134.5 16.5t140.5 47.5z" />
    <glyph glyph-name="eth" unicode="&#xf0;" horiz-adv-x="621" 
d="M391 426q-8 67 -28 140.5t-54 162.5l-235 -123l-19 29l240 127q-37 81 -73.5 146t-63.5 100l20 20q51 -70 144 -234q5 -9 7 -13l201 106l15 -29l-201 -108q62 -121 92.5 -223t30.5 -187q0 -154 -91.5 -254t-225.5 -100q-93 0 -147 49.5t-54 134.5q0 117 100.5 206
t231.5 89q32 0 59 -9.5t51 -29.5zM399 307q0 58 -33.5 93.5t-86.5 35.5q-98 0 -180.5 -90t-82.5 -196q0 -63 36 -99.5t98 -36.5q91 0 170 93.5t79 199.5z" />
    <glyph glyph-name="Yacute" unicode="&#xdd;" horiz-adv-x="1741" 
d="M690 -66q4 9 5 12.5t1 8.5q0 13 -10 23t-24 10q-17 0 -31.5 -18.5t-14.5 -43.5q0 -65 76 -114.5t187 -49.5q138 0 250.5 89.5t179.5 252.5q40 100 95 348.5t97 383.5q52 167 99 249.5t112 131.5q17 12 48.5 27.5t31.5 27.5q0 10 -8.5 15t-26.5 5q-70 0 -143.5 -85.5
t-155.5 -264.5l-37 -83q-167 -372 -334 -505q-93 -75 -187 -115t-173 -40q-35 0 -54.5 14.5t-19.5 40.5q0 31 51 69q19 14 27 21q129 105 205 284.5t76 379.5q0 211 -119.5 349t-294.5 138q-200 0 -349 -175.5t-149 -420.5q0 -195 114 -330.5t310 -173.5l-6 -28
q-210 44 -328 185t-118 347q0 264 165.5 449.5t395.5 185.5q205 0 331 -145.5t126 -384.5q0 -167 -67 -335.5t-167 -258.5q-48 -43 -115 -95q-59 -47 -59 -61q0 -15 12 -22t39 -7q52 0 128 30t153 81q110 74 193 185.5t184 340.5q107 244 193.5 351.5t172.5 107.5
q29 0 46.5 -12.5t17.5 -32.5q0 -30 -56 -62q-10 -6 -16 -10q-62 -36 -107.5 -109t-70.5 -177q-18 -75 -62 -362.5t-116 -449.5q-80 -174 -217.5 -273t-296.5 -99q-126 0 -211.5 59t-85.5 139q0 44 27.5 75.5t64.5 31.5q32 0 53 -17t21 -42q0 -20 -11.5 -34t-25.5 -14
q-5 0 -10 0.5t-11 1.5zM1411 1624q-5 0 -8.5 2.5t-3.5 7.5q0 6 45.5 30t77.5 61q7 8 31 55t53 47q24 0 35.5 -9t11.5 -28q0 -46 -96.5 -106t-145.5 -60z" />
    <glyph glyph-name="yacute" unicode="&#xfd;" horiz-adv-x="702" 
d="M-20 305l-23 17q58 76 97 109.5t69 33.5q22 0 36.5 -17.5t14.5 -44.5q0 -8 -3 -24.5t-9 -38.5l-58 -197q-2 -9 -4 -22.5t-2 -24.5q0 -25 14 -40t38 -15q71 0 154 111.5t147 298.5l65 10l-121 -434q51 36 79 60.5t44 45.5l21 -20q-26 -30 -64.5 -61t-91.5 -64
q-54 -152 -125.5 -226.5t-161.5 -74.5q-37 0 -61.5 21t-24.5 54q0 56 72 108.5t242 119.5l63 248q-52 -110 -123 -174t-137 -64q-42 0 -67 26t-25 70q0 11 2 23.5t8 34.5l55 194q1 4 4 13q5 19 5 24q0 11 -6 18t-15 7q-16 0 -43.5 -26.5t-64.5 -78.5zM315 -43
q-156 -66 -216 -108.5t-60 -84.5q0 -22 16.5 -35.5t44.5 -13.5q77 0 133.5 63.5t81.5 178.5zM307 557q-5 0 -8.5 2.5t-3.5 7.5q0 6 45.5 30t77.5 61q7 8 31 55t53 47q24 0 35.5 -9t11.5 -28q0 -46 -96.5 -106t-145.5 -60z" />
    <glyph glyph-name="Thorn" unicode="&#xde;" horiz-adv-x="1636" 
d="M649 311q-159 12 -258 91.5t-117 207.5q-116 -43 -185 -123t-69 -170q0 -125 124.5 -214t310.5 -89q171 0 312.5 79t213.5 214q70 132 138 490q28 151 46 233h-18q-346 0 -572 -102.5t-258 -268.5q57 17 112 25t114 8q88 0 180 -22.5t176 -65.5l-14 -24q-85 41 -172 62.5
t-172 21.5q-62 0 -122 -10t-110 -27q13 -124 101 -198.5t239 -88.5v-29zM279 645q19 177 260 297.5t591 120.5h6q20 -2 38 -2q32 182 102 297.5t182 173.5l15 -25q-92 -41 -143.5 -149.5t-72.5 -304.5q197 -26 303.5 -115.5t106.5 -226.5q0 -143 -134.5 -250t-328.5 -107
q-30 0 -55 3.5t-49 11.5q-99 -183 -267.5 -283t-377.5 -100q-198 0 -329.5 95.5t-131.5 231.5q0 105 74.5 192.5t210.5 139.5zM1112 399q16 -8 38.5 -12t63.5 -4q159 0 260 90t101 227q0 131 -83 214.5t-239 109.5l-4 -28q-57 -409 -137 -597z" />
    <glyph glyph-name="thorn" unicode="&#xfe;" horiz-adv-x="621" 
d="M-92 -256q-12 5 -21 7.5t-16 2.5q-16 0 -28.5 -9t-12.5 -19q0 -9 6 -14t17 -5q16 0 30.5 9.5t24.5 27.5zM74 379q-19 -10 -38 -24t-38 -31l-18 22q23 22 90 63l14 9l147 764l3 12q6 23 6 31q0 7 -3 12.5t-8 5.5q-12 0 -41.5 -23.5t-64.5 -62.5l-23 19q52 57 90 85.5
t64 28.5q25 0 38 -16.5t13 -46.5q0 -9 -1 -17.5t-3 -17.5l-147 -749q29 10 58 16t54 6q85 0 141 -53t56 -133q0 -115 -82 -204t-182 -89q-35 0 -62.5 20.5t-27.5 46.5q0 17 9 27t23 10q6 0 10.5 -2.5t9.5 -10.5q-3 -6 -5 -13t-2 -13q0 -17 14.5 -27t40.5 -10q74 0 129 74
t55 182q0 73 -39 119.5t-98 46.5q-23 0 -50.5 -6.5t-55.5 -19.5q-55 -277 -98.5 -421t-94.5 -225q48 -22 86 -34.5t55 -12.5q12 0 22.5 5.5t20.5 15.5l17 -21q-21 -21 -37.5 -30t-34.5 -9q-39 0 -113 37l-34 17q-24 -27 -45.5 -40.5t-40.5 -13.5q-23 0 -38.5 12t-15.5 29
q0 26 25.5 45t60.5 19q12 0 23 -2t20 -6q47 65 107 396q24 132 39 208z" />
    <glyph glyph-name="minus" unicode="&#x2212;" horiz-adv-x="1706" 
d="M254 651h1198v-82h-1198v82z" />
    <glyph glyph-name="multiply" unicode="&#xd7;" horiz-adv-x="1706" 
d="M367 1155l487 -487l487 487l58 -57l-488 -488l488 -487l-58 -57l-487 487l-487 -487l-58 57l488 487l-488 488z" />
    <glyph glyph-name="onesuperior" unicode="&#xb9;" horiz-adv-x="289" 
d="M33 262l96 342q-18 -19 -43.5 -37.5t-58.5 -36.5l-9 17q38 19 70 43t62 57l36 6l-112 -391h-41z" />
    <glyph glyph-name="twosuperior" unicode="&#xb2;" horiz-adv-x="481" 
d="M102 303h95q111 0 145 37q10 10 16 10q5 0 6.5 -1t2.5 -5q0 -3 -4.5 -10l-12.5 -19l-45 -53h-280q0 2 -2 4q0 15 58 45q20 11 32 17q99 51 145.5 100t46.5 100q0 43 -34 75t-81 32q-62 0 -104.5 -47.5t-42.5 -118.5q0 -13 2 -24.5t6 -20.5l-16 -8q-6 14 -8 27t-2 32
q0 76 53 129t127 53q69 0 112 -34t43 -88q0 -52 -53 -101.5t-205 -130.5z" />
    <glyph glyph-name="threesuperior" unicode="&#xb3;" horiz-adv-x="481" 
d="M254 352q-41 -20 -71.5 -28.5t-61.5 -8.5q-37 0 -57.5 13t-20.5 37t23 39.5t61 15.5q34 0 71.5 -8.5t71.5 -24.5q29 25 43.5 55.5t14.5 65.5q0 56 -35.5 90.5t-91.5 34.5q-49 0 -88.5 -27.5t-63.5 -77.5l-14 7q22 60 72.5 94.5t115.5 34.5q66 0 111 -39.5t45 -96.5
q0 -46 -22.5 -83.5t-69.5 -69.5q36 -26 54.5 -59.5t18.5 -73.5q0 -88 -74.5 -150.5t-183.5 -62.5q-86 0 -140 35.5t-54 87.5q0 22 15 36.5t36 14.5q17 0 30 -10.5t13 -24.5q0 -5 -1.5 -10.5t-5.5 -11.5l-2 1q-22 13 -30 13q-12 0 -19 -7t-7 -18q0 -34 42 -59t103 -25
q94 0 152.5 54t58.5 141q0 33 -10 60t-29 46zM237 367q-30 17 -55.5 24.5t-52.5 7.5q-30 0 -49 -10t-19 -27q0 -13 16 -21.5t42 -8.5q31 0 64 9.5t54 25.5z" />
    <glyph glyph-name="onequarter" unicode="&#xbc;" horiz-adv-x="877" 
d="M512 -152l34 138q-36 5 -103 32t-99 27q-14 0 -25.5 -2.5t-27.5 -9.5l-15 16q155 185 279.5 305.5t155.5 120.5q4 0 11 -2.5t17 -8.5l-114 -427q4 -1 10 -2q12 -2 16 -2q18 0 34 5.5t32 16.5l16 -24q-24 -20 -54.5 -32t-70.5 -17l-33 -134h-63zM565 55l92 344
q-110 -93 -192.5 -176t-124.5 -143q18 5 35.5 7.5t34.5 2.5q23 0 57 -7.5t98 -27.5zM-90 -14l672 682h53l-672 -682h-53zM215 788l-154 -561h-63l133 480q-22 -20 -49 -38.5t-74 -43.5l-10 26q46 24 86 55.5t74 71.5z" />
    <glyph glyph-name="onehalf" unicode="&#xbd;" horiz-adv-x="879" 
d="M739 -152h-385q0 3 -1 5.5t-1 3.5q0 20 69 56q27 14 43 23q128 70 192.5 143.5t64.5 149.5q0 64 -41 106t-102 42q-82 0 -138.5 -66t-56.5 -161q0 -12 2.5 -27t7.5 -36l-24 -15q-7 17 -10 35t-3 38q0 117 70 194t174 77q84 0 142.5 -52t58.5 -126q0 -71 -67 -141
t-249 -181h99q153 0 203 53q12 13 22 13q4 0 7 -3.5t3 -7.5t-15 -25q-6 -9 -9 -13zM-90 -14l672 682h53l-672 -682h-53zM215 788l-154 -561h-63l133 480q-22 -20 -49 -38.5t-74 -43.5l-10 26q46 24 86 55.5t74 71.5z" />
    <glyph glyph-name="threequarters" unicode="&#xbe;" horiz-adv-x="1190" 
d="M221 -14l672 682h53l-672 -682h-53zM229 537h15q56 0 87 31t31 87q0 53 -25.5 83t-70.5 30q-40 0 -76 -28.5t-55 -75.5l-24 14q18 56 67 91.5t109 35.5q63 0 106 -38.5t43 -94.5q0 -52 -24 -89t-74 -63q39 -17 59.5 -50t20.5 -79q0 -88 -71.5 -149.5t-178.5 -61.5
q-77 0 -126.5 35.5t-49.5 85.5q0 22 16 37.5t39 15.5q19 0 32 -13.5t13 -33.5q0 -2 -1 -6t-1 -6q-10 6 -16.5 8t-14.5 2t-13 -6t-5 -16q0 -30 32.5 -52t80.5 -22q76 0 126 53.5t50 136.5q0 52 -25.5 80.5t-71.5 28.5h-4v29zM877 55l92 344q-111 -93 -193.5 -176t-123.5 -143
q17 5 34.5 7.5t34.5 2.5q24 0 58 -7.5t98 -27.5zM823 -152l35 137q-35 5 -102.5 32.5t-100.5 27.5q-13 0 -25 -2.5t-28 -9.5l-14 16q155 186 278 306t154 120q4 0 11 -2.5t17 -8.5l-112 -427l12.5 -2.5t12.5 -1.5q18 0 34.5 5.5t32.5 16.5l16 -24q-24 -20 -54.5 -32
t-69.5 -17l-33 -134h-64z" />
    <glyph glyph-name="franc" unicode="&#x20a3;" horiz-adv-x="1952" 
d="M895 844h285q30 197 97.5 318.5t184.5 195.5q41 25 101.5 49.5t60.5 38.5q0 6 -6.5 10t-15.5 4q-7 0 -141.5 -42t-237.5 -42q-76 0 -239 46t-239 46q-183 0 -335 -160.5t-152 -375.5q0 -84 20.5 -151.5t63.5 -127.5q59 16 113.5 24.5t101.5 8.5q107 0 200 -25t169 -73
l-15 -25q-65 41 -142 60.5t-169 19.5q-55 0 -112 -7.5t-117 -23.5q53 -67 142.5 -106t191.5 -39q16 0 34.5 1.5t40.5 4.5l4 -29q-7 0 -22 -2q-36 -4 -57 -4q-111 0 -206 43t-163 123q-136 -48 -214.5 -134.5t-78.5 -184.5q0 -120 118 -195.5t308 -75.5q334 0 505.5 193.5
t199.5 603.5h-279v33zM1264 811q-29 -396 -234.5 -610.5t-552.5 -214.5q-211 0 -337 81.5t-126 217.5q0 110 78.5 205t216.5 151q-42 73 -61 142.5t-19 148.5q0 242 177.5 421t416.5 179q101 0 264.5 -53.5t227.5 -53.5q70 0 170.5 30t116.5 30q24 0 36.5 -10.5t12.5 -30.5
q0 -26 -80.5 -62.5t-132.5 -85.5q-74 -69 -114 -173.5t-56 -278.5h180v-33h-184zM1437 -14l42 170q51 206 51 227q0 12 -6 19.5t-15 7.5q-16 0 -44 -27t-64 -78l-23 17q55 72 96.5 107.5t71.5 35.5q23 0 34 -15.5t11 -48.5q0 -41 -59 -275l-4 -19q107 201 169.5 279.5
t110.5 78.5q33 0 52.5 -16.5t19.5 -42.5q0 -22 -15.5 -39t-33.5 -17q-8 0 -17.5 3t-17.5 7q16 7 23.5 15.5t7.5 19.5q0 13 -8 21t-21 8q-41 0 -112 -104t-181 -324z" />
    <glyph glyph-name="Gbreve" unicode="&#x11e;" horiz-adv-x="1417" 
d="M1208 733l54 6l6 -12l-17 -49q-75 -436 -314.5 -685t-582.5 -249q-178 0 -296.5 75t-118.5 179q0 119 120 205t293 86q112 0 213 -38.5t199 -117.5l-16 -22q-90 72 -187.5 107.5t-206.5 35.5q-159 0 -273 -74.5t-114 -173.5q0 -98 108 -166.5t271 -68.5q311 0 502 197.5
t303 635.5q-98 -118 -230 -181t-282 -63q-214 0 -345.5 119t-131.5 312q0 131 71 266.5t199 247.5q126 109 274 168t298 59q167 0 265.5 -62t98.5 -165q0 -73 -57.5 -121t-169.5 -70l-4 29q80 16 126 58.5t46 101.5q0 95 -80.5 147.5t-227.5 52.5q-132 0 -272 -60.5
t-256 -168.5q-110 -103 -169.5 -230.5t-59.5 -259.5q0 -175 115.5 -284t299.5 -109q163 0 304 88t245 254zM885 1829l38 -46t103 -46q72 0 152.5 45t81.5 45q4 0 7 -4t3 -11q0 -25 -88.5 -82t-159.5 -57q-64 0 -109 43.5t-45 91.5q0 10 4.5 15.5t12.5 5.5z" />
    <glyph glyph-name="gbreve" unicode="&#x11f;" horiz-adv-x="588" 
d="M311 109q-49 -54 -101 -81.5t-106 -27.5q-70 0 -112.5 45.5t-42.5 120.5q0 113 98 206t215 93q32 0 66 -15.5t69 -46.5l13 50l67 12l-117 -410q-57 -197 -120.5 -273.5t-159.5 -76.5q-48 0 -81.5 29.5t-33.5 68.5q0 25 13 41.5t32 16.5q17 0 26 -9.5t9 -27.5
q-17 -5 -26 -15t-9 -24q0 -21 20.5 -36t49.5 -15q71 0 115.5 58.5t97.5 248.5zM385 367q-27 32 -59 49.5t-66 17.5q-87 0 -163.5 -83.5t-76.5 -186.5q0 -58 28.5 -90.5t78.5 -32.5q53 0 102 31t101 98zM156 762l38 -46t103 -46q72 0 152.5 45t81.5 45q4 0 7 -4t3 -11
q0 -25 -88.5 -82t-159.5 -57q-64 0 -109 43.5t-45 91.5q0 10 4.5 15.5t12.5 5.5z" />
    <glyph glyph-name="Idotaccent" unicode="&#x130;" horiz-adv-x="1327" 
d="M513 737q107 -6 207 -36.5t189 -84.5l-12 -24q-87 50 -181.5 78t-174.5 28h-25q12 -105 70.5 -174t150.5 -88l-6 -26q-101 21 -163.5 94.5t-82.5 193.5h-26q-181 0 -314 -107t-133 -251q0 -143 124.5 -236.5t322.5 -93.5q187 0 324 90t206 258q40 99 90 423l23 141
q16 103 33 165.5t41 110.5q34 71 92 112.5t139 55.5q43 7 60.5 17t17.5 26q0 33 -52 52.5t-141 19.5q-126 0 -257.5 -48t-243.5 -135q-135 -104 -208 -236t-73 -271q0 -20 0.5 -31.5t2.5 -22.5zM483 739q0 6 -1 15t-1 12q0 155 64 291t192 254q115 103 255.5 160t283.5 57
q108 0 172.5 -33.5t64.5 -87.5q0 -28 -17.5 -44t-61.5 -24q-73 -14 -103.5 -31.5t-52.5 -50.5q-41 -58 -77.5 -322t-76.5 -421q-61 -247 -234.5 -387.5t-418.5 -140.5q-212 0 -346.5 99.5t-134.5 252.5q0 166 139.5 281.5t353.5 119.5zM1218 1729q0 25 16 43t40 18
q19 0 31 -11t12 -30q0 -28 -15.5 -46t-40.5 -18q-20 0 -31.5 12t-11.5 32z" />
    <glyph glyph-name="Scedilla" unicode="&#x15e;" horiz-adv-x="1337" 
d="M1475 1401q9 -5 13.5 -6.5t8.5 -1.5q12 0 19.5 11t7.5 30q0 28 -35.5 50.5t-87.5 22.5q-113 0 -193 -108.5t-80 -278.5q0 -82 16.5 -232t16.5 -216q0 -292 -196.5 -489t-485.5 -197q-214 0 -355.5 121t-141.5 301q0 189 147 320.5t363 131.5q153 0 250.5 -72.5
t97.5 -187.5q0 -109 -84 -184.5t-211 -75.5q-72 0 -125.5 27t-91.5 82l22 18q36 -50 84 -74t111 -24q113 0 190.5 67t77.5 164q0 98 -84.5 152.5t-239.5 54.5q-208 0 -343.5 -113.5t-135.5 -285.5q0 -167 134 -280.5t335 -113.5q266 0 435 168.5t169 435.5q0 73 -12 220
t-12 221q0 211 98.5 344t243.5 133q76 0 128 -35.5t52 -85.5q0 -30 -19 -52t-44 -22q-21 0 -32 14t-11 40v6zM520 0l-45 -92q6 0 16 1q27 3 35 3q51 0 78 -19.5t27 -56.5q0 -41 -41 -67.5t-107 -26.5q-71 0 -132.5 19t-61.5 32q0 5 2.5 7.5t7.5 2.5q9 0 63 -13t97 -13
q45 0 74.5 16t29.5 39q0 22 -17 33.5t-49 11.5q-20 0 -30 -1t-19 -3l-28 8l67 119h33z" />
    <glyph glyph-name="scedilla" unicode="&#x15f;" horiz-adv-x="408" 
d="M-6 119q-20 -5 -30.5 -16t-10.5 -27q0 -24 33.5 -43t83.5 -19q49 0 81.5 26.5t32.5 65.5q0 47 -109 120l-11 7q-40 27 -55 50t-15 55q0 49 50.5 88t117.5 39q48 0 82.5 -24t34.5 -56q0 -18 -11.5 -29.5t-27.5 -11.5q-6 0 -13.5 3t-19.5 11q14 7 20 14.5t6 18.5
q0 19 -21 31t-54 12q-48 0 -79.5 -20.5t-31.5 -51.5q0 -34 94.5 -101t94.5 -128q0 -64 -48 -105.5t-122 -41.5q-67 0 -112.5 32t-45.5 76q0 24 11.5 37.5t31.5 13.5q15 0 26.5 -7t16.5 -19zM78 0l-45 -92q6 0 16 1q27 3 35 3q51 0 78 -19.5t27 -56.5q0 -41 -41 -67.5
t-107 -26.5q-71 0 -132.5 19t-61.5 32q0 5 2.5 7.5t7.5 2.5q9 0 63 -13t97 -13q45 0 74.5 16t29.5 39q0 22 -17 33.5t-49 11.5q-20 0 -30 -1t-19 -3l-28 8l67 119h33z" />
    <glyph glyph-name="Cacute" unicode="&#x106;" horiz-adv-x="1270" 
d="M1116 332l21 -21q-137 -157 -297 -241t-324 -84q-207 0 -326.5 137.5t-119.5 376.5q0 159 55.5 314t165.5 300q150 200 335.5 314t354.5 114q153 0 243.5 -87.5t90.5 -233.5q0 -143 -69.5 -284t-192.5 -249q-75 -66 -155 -101.5t-153 -35.5q-98 0 -158.5 62.5
t-60.5 164.5q0 143 98 258.5t269 173.5l10 -26q-149 -50 -234 -162t-85 -256q0 -88 46.5 -136t131.5 -48q59 0 131 33.5t137 93.5q105 95 161 225t56 276q0 143 -68 224.5t-188 81.5t-247.5 -58.5t-233.5 -163.5q-165 -160 -257.5 -374t-92.5 -435q0 -233 96 -352t285 -119
q138 0 296.5 86.5t278.5 231.5zM965 1624q-5 0 -8.5 2.5t-3.5 7.5q0 6 45.5 30t77.5 61q7 8 31 55t53 47q24 0 35.5 -9t11.5 -28q0 -46 -96.5 -106t-145.5 -60z" />
    <glyph glyph-name="cacute" unicode="&#x107;" horiz-adv-x="502" 
d="M311 117l21 -23q-50 -53 -108.5 -80.5t-119.5 -27.5q-68 0 -111.5 47.5t-43.5 126.5q0 110 97 207.5t210 97.5q52 0 82.5 -21t30.5 -57q0 -25 -13.5 -42t-31.5 -17q-4 0 -7.5 1t-11.5 5q11 12 17 24t6 23q0 25 -21 40t-57 15q-80 0 -156 -92t-76 -197q0 -56 32 -90
t83 -34q42 0 90.5 25t87.5 69zM207 557q-5 0 -8.5 2.5t-3.5 7.5q0 6 45.5 30t77.5 61q7 8 31 55t53 47q24 0 35.5 -9t11.5 -28q0 -46 -96.5 -106t-145.5 -60z" />
    <glyph glyph-name="Ccaron" unicode="&#x10c;" horiz-adv-x="1270" 
d="M1116 332l21 -21q-137 -157 -297 -241t-324 -84q-207 0 -326.5 137.5t-119.5 376.5q0 159 55.5 314t165.5 300q150 200 335.5 314t354.5 114q153 0 243.5 -87.5t90.5 -233.5q0 -143 -69.5 -284t-192.5 -249q-75 -66 -155 -101.5t-153 -35.5q-98 0 -158.5 62.5
t-60.5 164.5q0 143 98 258.5t269 173.5l10 -26q-149 -50 -234 -162t-85 -256q0 -88 46.5 -136t131.5 -48q59 0 131 33.5t137 93.5q105 95 161 225t56 276q0 143 -68 224.5t-188 81.5t-247.5 -58.5t-233.5 -163.5q-165 -160 -257.5 -374t-92.5 -435q0 -233 96 -352t285 -119
q138 0 296.5 86.5t278.5 231.5zM1026 1720q64 51 127.5 83t89.5 32q7 0 11 -1.5t4 -4.5q0 -7 -40 -33q-34 -22 -58 -39q-51 -35 -97 -83t-53 -48q-11 0 -28 35l-21 41q-21 38 -50.5 78t-29.5 45q0 4 4 7t10 3q13 0 46 -29t85 -86z" />
    <glyph glyph-name="ccaron" unicode="&#x10d;" horiz-adv-x="502" 
d="M311 117l21 -23q-50 -53 -108.5 -80.5t-119.5 -27.5q-68 0 -111.5 47.5t-43.5 126.5q0 110 97 207.5t210 97.5q52 0 82.5 -21t30.5 -57q0 -25 -13.5 -42t-31.5 -17q-4 0 -7.5 1t-11.5 5q11 12 17 24t6 23q0 25 -21 40t-57 15q-80 0 -156 -92t-76 -197q0 -56 32 -90
t83 -34q42 0 90.5 25t87.5 69zM268 653q64 51 127.5 83t89.5 32q7 0 11 -1.5t4 -4.5q0 -7 -40 -33q-34 -22 -58 -39q-51 -35 -97 -83t-53 -48q-11 0 -28 35l-21 41q-21 38 -50.5 78t-29.5 45q0 4 4 7t10 3q13 0 46 -29t85 -86z" />
    <glyph glyph-name="dcroat" unicode="&#x111;" horiz-adv-x="678" 
d="M326 141l53 236q-24 27 -54.5 42t-60.5 15q-93 0 -169.5 -84.5t-76.5 -189.5q0 -61 34.5 -100.5t86.5 -39.5q44 0 93.5 32t93.5 89zM319 92q-44 -52 -96 -79t-108 -27q-70 0 -118 51t-48 129q0 115 95.5 207t215.5 92q34 0 65 -12.5t60 -38.5l82 383h-184l6 32h184
l76 353q3 15 4.5 26t1.5 17q0 7 -3 12.5t-7 5.5q-13 0 -42.5 -23.5t-64.5 -62.5l-22 19q51 59 89.5 86.5t69.5 27.5q19 0 31 -17.5t12 -45.5q0 -13 -0.5 -20t-3.5 -16l-77 -362h137l-6 -32h-138l-145 -676q-4 -20 -6 -38.5t-2 -29.5t6 -18.5t14 -7.5q21 0 51.5 28t67.5 82
l23 -16q-41 -64 -83.5 -99.5t-76.5 -35.5q-28 0 -45 19t-17 50q0 15 0.5 22.5t1.5 14.5z" />
    <glyph glyph-name="sfthyphen" unicode="&#xad;" horiz-adv-x="469" 
d="M-51 209v47h358v-47h-358z" />
    <glyph glyph-name="periodcentered" unicode="&#x2219;" horiz-adv-x="365" 
d="M59 328q0 19 14 33t33 14q20 0 34 -14t14 -33t-14.5 -33t-33.5 -14q-18 0 -32.5 14t-14.5 33z" />
    </font>
</defs>
</svg>
